<svg width="57" height="54" viewBox="0 0 57 54" fill="none" xmlns="http://www.w3.org/2000/svg">
<path d="M4.26316 54C3.12632 54 2.13158 53.5737 1.27895 52.7211C0.426316 51.8684 0 50.8737 0 49.7368V15.6316C0 14.4947 0.426316 13.5 1.27895 12.6474C2.13158 11.7947 3.12632 11.3684 4.26316 11.3684H17.0526V4.26316C17.0526 3.12632 17.4789 2.13158 18.3316 1.27895C19.1842 0.426316 20.1789 0 21.3158 0H35.5263C36.6632 0 37.6579 0.426316 38.5105 1.27895C39.3632 2.13158 39.7895 3.12632 39.7895 4.26316V11.3684H52.5789C53.7158 11.3684 54.7105 11.7947 55.5632 12.6474C56.4158 13.5 56.8421 14.4947 56.8421 15.6316V49.7368C56.8421 50.8737 56.4158 51.8684 55.5632 52.7211C54.7105 53.5737 53.7158 54 52.5789 54H4.26316ZM21.3158 11.3684H35.5263V4.26316H21.3158V11.3684Z" fill="#4285F4"/>
</svg>
