<svg width="64" height="67" viewBox="0 0 64 67" fill="none" xmlns="http://www.w3.org/2000/svg">
<path d="M4.75 63.3333C3.48333 63.3333 2.375 62.8583 1.425 61.9083C0.475 60.9583 0 59.85 0 58.5833V9.5C0 8.23333 0.475 7.125 1.425 6.175C2.375 5.225 3.48333 4.75 4.75 4.75H9.89583V2.53333C9.89583 1.81556 10.146 1.21389 10.6463 0.728334C11.1467 0.242779 11.7668 0 12.5068 0C13.2467 0 13.8542 0.242779 14.3292 0.728334C14.8042 1.21389 15.0417 1.81556 15.0417 2.53333V4.75H41.9583V2.53333C41.9583 1.81556 42.2085 1.21389 42.7088 0.728334C43.2092 0.242779 43.8293 0 44.5692 0C45.3092 0 45.9167 0.242779 46.3917 0.728334C46.8667 1.21389 47.1042 1.81556 47.1042 2.53333V4.75H52.25C53.5167 4.75 54.625 5.225 55.575 6.175C56.525 7.125 57 8.23333 57 9.5V31.4292C57 32.1021 56.7709 32.666 56.3128 33.121C55.8553 33.5764 55.2879 33.8042 54.6107 33.8042C53.9341 33.8042 53.3715 33.5764 52.9229 33.121C52.4743 32.666 52.25 32.1021 52.25 31.4292V24.5417H4.75V58.5833H28.975C29.6479 58.5833 30.2121 58.8124 30.6676 59.2705C31.1225 59.7281 31.35 60.2954 31.35 60.9726C31.35 61.6492 31.1225 62.2118 30.6676 62.6604C30.2121 63.109 29.6479 63.3333 28.975 63.3333H4.75ZM48.3708 66.5C44.2315 66.5 40.7028 65.0412 37.7847 62.1237C34.8671 59.2056 33.4083 55.6769 33.4083 51.5375C33.4083 47.3981 34.8671 43.8694 37.7847 40.9513C40.7028 38.0338 44.2315 36.575 48.3708 36.575C52.5102 36.575 56.0389 38.0338 58.957 40.9513C61.8746 43.8694 63.3333 47.3981 63.3333 51.5375C63.3333 55.6769 61.8746 59.2056 58.957 62.1237C56.0389 65.0412 52.5102 66.5 48.3708 66.5ZM49.2417 51.3792V44.023C49.2417 43.5966 49.0912 43.2382 48.7904 42.9479C48.4896 42.6576 48.1386 42.5125 47.7375 42.5125C47.3153 42.5125 46.9458 42.6629 46.6292 42.9638C46.3125 43.2646 46.1542 43.6156 46.1542 44.0167V51.5375C46.1542 51.8315 46.2069 52.1159 46.3125 52.3909C46.4181 52.6664 46.5764 52.9361 46.7875 53.2L51.8542 58.425C52.1708 58.7417 52.5403 58.9 52.9625 58.9C53.3847 58.9 53.7542 58.7417 54.0708 58.425C54.3875 58.1083 54.5458 57.7389 54.5458 57.3167C54.5458 56.8944 54.3875 56.525 54.0708 56.2083L49.2417 51.3792Z" fill="#97D62A"/>
</svg>
