<svg width="56" height="63" viewBox="0 0 56 63" fill="none" xmlns="http://www.w3.org/2000/svg">
<path d="M4.66667 62.2222C3.42222 62.2222 2.33333 61.7556 1.4 60.8222C0.466667 59.8889 0 58.8 0 57.5556V9.33333C0 8.08889 0.466667 7 1.4 6.06667C2.33333 5.13333 3.42222 4.66667 4.66667 4.66667H9.72222V2.48889C9.72222 1.7837 9.96074 1.19259 10.4378 0.715557C10.9148 0.238519 11.5059 0 12.2111 0C12.9381 0 13.5476 0.238519 14.0397 0.715557C14.5317 1.19259 14.7778 1.7837 14.7778 2.48889V4.66667H41.2222V2.48889C41.2222 1.7837 41.4607 1.19259 41.9378 0.715557C42.4148 0.238519 43.0059 0 43.7111 0C44.4386 0 45.0481 0.238519 45.5397 0.715557C46.0317 1.19259 46.2778 1.7837 46.2778 2.48889V4.66667H51.3333C52.5778 4.66667 53.6667 5.13333 54.6 6.06667C55.5333 7 56 8.08889 56 9.33333V57.5556C56 58.8 55.5333 59.8889 54.6 60.8222C53.6667 61.7556 52.5778 62.2222 51.3333 62.2222H4.66667ZM4.66667 57.5556H51.3333V24.1111H4.66667V57.5556ZM28 37.3333C27.1185 37.3333 26.3796 37.0352 25.7833 36.4389C25.187 35.8426 24.8889 35.1037 24.8889 34.2222C24.8889 33.3407 25.187 32.6019 25.7833 32.0056C26.3796 31.4093 27.1185 31.1111 28 31.1111C28.8815 31.1111 29.6204 31.4093 30.2167 32.0056C30.813 32.6019 31.1111 33.3407 31.1111 34.2222C31.1111 35.1037 30.813 35.8426 30.2167 36.4389C29.6204 37.0352 28.8815 37.3333 28 37.3333ZM15.5556 37.3333C14.6741 37.3333 13.9352 37.0352 13.3389 36.4389C12.7426 35.8426 12.4444 35.1037 12.4444 34.2222C12.4444 33.3407 12.7426 32.6019 13.3389 32.0056C13.9352 31.4093 14.6741 31.1111 15.5556 31.1111C16.437 31.1111 17.1759 31.4093 17.7722 32.0056C18.3685 32.6019 18.6667 33.3407 18.6667 34.2222C18.6667 35.1037 18.3685 35.8426 17.7722 36.4389C17.1759 37.0352 16.437 37.3333 15.5556 37.3333ZM40.4444 37.3333C39.563 37.3333 38.8241 37.0352 38.2278 36.4389C37.6315 35.8426 37.3333 35.1037 37.3333 34.2222C37.3333 33.3407 37.6315 32.6019 38.2278 32.0056C38.8241 31.4093 39.563 31.1111 40.4444 31.1111C41.3259 31.1111 42.0648 31.4093 42.6611 32.0056C43.2574 32.6019 43.5556 33.3407 43.5556 34.2222C43.5556 35.1037 43.2574 35.8426 42.6611 36.4389C42.0648 37.0352 41.3259 37.3333 40.4444 37.3333ZM28 49.7778C27.1185 49.7778 26.3796 49.4796 25.7833 48.8833C25.187 48.287 24.8889 47.5481 24.8889 46.6667C24.8889 45.7852 25.187 45.0463 25.7833 44.45C26.3796 43.8537 27.1185 43.5556 28 43.5556C28.8815 43.5556 29.6204 43.8537 30.2167 44.45C30.813 45.0463 31.1111 45.7852 31.1111 46.6667C31.1111 47.5481 30.813 48.287 30.2167 48.8833C29.6204 49.4796 28.8815 49.7778 28 49.7778ZM15.5556 49.7778C14.6741 49.7778 13.9352 49.4796 13.3389 48.8833C12.7426 48.287 12.4444 47.5481 12.4444 46.6667C12.4444 45.7852 12.7426 45.0463 13.3389 44.45C13.9352 43.8537 14.6741 43.5556 15.5556 43.5556C16.437 43.5556 17.1759 43.8537 17.7722 44.45C18.3685 45.0463 18.6667 45.7852 18.6667 46.6667C18.6667 47.5481 18.3685 48.287 17.7722 48.8833C17.1759 49.4796 16.437 49.7778 15.5556 49.7778ZM40.4444 49.7778C39.563 49.7778 38.8241 49.4796 38.2278 48.8833C37.6315 48.287 37.3333 47.5481 37.3333 46.6667C37.3333 45.7852 37.6315 45.0463 38.2278 44.45C38.8241 43.8537 39.563 43.5556 40.4444 43.5556C41.3259 43.5556 42.0648 43.8537 42.6611 44.45C43.2574 45.0463 43.5556 45.7852 43.5556 46.6667C43.5556 47.5481 43.2574 48.287 42.6611 48.8833C42.0648 49.4796 41.3259 49.7778 40.4444 49.7778Z" fill="#FFC619"/>
</svg>
