<svg width="61" height="61" viewBox="0 0 61 61" fill="none" xmlns="http://www.w3.org/2000/svg">
<path d="M14.33 19.4634L5.5325 28.2609C4.85777 28.9357 4.09221 29.26 3.23582 29.2341C2.37942 29.2081 1.61386 28.8578 0.939128 28.1831C0.316298 27.5602 0.00488281 26.8077 0.00488281 25.9253C0.00488281 25.043 0.316298 24.2644 0.939128 23.5897L2.96333 21.5655L1.25054 19.7749C0.523908 19.0482 0.16059 18.1789 0.16059 17.1668C0.16059 16.1547 0.523908 15.2853 1.25054 14.5587L5.37679 10.4324L4.75396 9.88743C3.97543 9.1608 3.58616 8.29143 3.58616 7.27933C3.58616 6.26723 3.94948 5.42381 4.67611 4.74908C5.35084 4.02245 6.19426 3.65913 7.20636 3.65913C8.21846 3.65913 9.08783 3.99649 9.81446 4.67123L10.4373 5.37191L14.4857 1.32351C15.2123 0.596879 16.0817 0.233561 17.0938 0.233561C18.1059 0.233561 19.0012 0.596879 19.7797 1.32351L21.4925 3.0363L23.5946 0.934246C24.2693 0.311415 25.0479 0 25.9302 0C26.8125 0 27.5651 0.311415 28.188 0.934246C28.8627 1.66088 29.2001 2.45239 29.2001 3.30879C29.2001 4.16518 28.8627 4.93074 28.188 5.60547L19.4683 14.3251L46.6393 41.4961L55.3589 32.7764C56.0337 32.1017 56.8122 31.7643 57.6945 31.7643C58.5769 31.7643 59.3554 32.1017 60.0302 32.7764C60.653 33.3993 60.9644 34.1648 60.9644 35.0731C60.9644 35.9814 60.653 36.747 60.0302 37.3698L57.9281 39.4719L59.6409 41.1847C60.3675 41.9632 60.7308 42.8585 60.7308 43.8706C60.7308 44.8827 60.3675 45.7521 59.6409 46.4787L55.4368 50.6828L56.1375 51.2278C56.8641 51.9544 57.2274 52.8238 57.2274 53.8359C57.2274 54.848 56.8641 55.6914 56.1375 56.3661C55.4108 57.0928 54.5544 57.4561 53.5683 57.4561C52.5821 57.4561 51.7258 57.0668 50.9991 56.2883L50.4541 55.6655L46.4057 59.7139C45.6791 60.4405 44.8097 60.8038 43.7976 60.8038C42.7855 60.8038 41.9162 60.4405 41.1895 59.7139L39.3989 58.0011L37.2969 60.1031C36.6221 60.726 35.8566 61.0244 35.0002 60.9984C34.1438 60.9725 33.4042 60.6481 32.7813 60.0253C32.0547 59.3505 31.6914 58.585 31.6914 57.7286C31.6914 56.8722 32.0547 56.0807 32.7813 55.354L41.501 46.6344L14.33 19.4634Z" fill="#EA4335"/>
</svg>
