<svg width="55" height="65" viewBox="0 0 55 65" fill="none" xmlns="http://www.w3.org/2000/svg">
<path d="M27.529 59.9888L15.657 63.9985C15.395 64.1033 15.1444 64.1689 14.9054 64.1951C14.6664 64.2213 14.4274 64.2344 14.1884 64.2344C12.9136 64.2344 11.8045 63.792 10.8611 62.9072C9.91761 62.023 9.44587 60.8929 9.44587 59.517V39.0753L0.876048 25.3164C0.613974 24.897 0.443626 24.4827 0.365004 24.0733C0.286381 23.6635 0.24707 23.2441 0.24707 22.8154C0.24707 22.3861 0.286381 21.9618 0.365004 21.5425C0.443626 21.1232 0.613974 20.7039 0.876048 20.2845L12.0404 2.20142C12.4597 1.46762 13.0253 0.91726 13.7371 0.550356C14.4489 0.183452 15.2199 0 16.0501 0H39.0078C39.8381 0 40.6091 0.183452 41.3209 0.550356C42.0327 0.91726 42.5983 1.46762 43.0176 2.20142L54.1819 20.2845C54.444 20.7039 54.6144 21.1182 54.693 21.5276C54.7716 21.9374 54.8109 22.3568 54.8109 22.7855C54.8109 23.2148 54.7716 23.6391 54.693 24.0584C54.6144 24.4777 54.444 24.897 54.1819 25.3164L45.6121 39.0753V59.517C45.6121 60.8929 45.1367 62.023 44.1859 62.9072C43.2351 63.792 42.1257 64.2344 40.8578 64.2344C40.6204 64.2344 40.3837 64.2213 40.1479 64.1951C39.912 64.1689 39.663 64.1033 39.4009 63.9985L27.529 59.9888ZM16.0407 40.8836H39.0078L50.1722 22.8005L39.0173 4.71733H16.0501L4.88578 22.8005L16.0407 40.8836ZM24.2269 27.8323L35.8629 16.1176C36.3347 15.6458 36.885 15.41 37.514 15.41C38.143 15.41 38.6933 15.6356 39.1651 16.0869C39.6368 16.5791 39.8858 17.152 39.912 17.8056C39.9382 18.4587 39.7154 19.0229 39.2437 19.4983L25.8779 32.8641C25.4062 33.3358 24.8558 33.5717 24.2269 33.5717C23.5979 33.5717 23.0475 33.3358 22.5758 32.8641L15.8929 26.1812C15.4212 25.7095 15.1722 25.1591 15.146 24.5301C15.1198 23.9012 15.3425 23.3508 15.8143 22.8791C16.286 22.4073 16.8581 22.1715 17.5306 22.1715C18.2036 22.1715 18.7846 22.4073 19.2737 22.8791L24.2269 27.8323Z" fill="#A0DC36"/>
</svg>
