<svg width="50" height="64" viewBox="0 0 50 64" fill="none" xmlns="http://www.w3.org/2000/svg">
<path d="M24.878 30.4711L19.0447 34.846C18.7889 34.9995 18.5458 34.9995 18.3155 34.846C18.0853 34.6925 18.0213 34.4878 18.1237 34.232L20.3495 27.0939L14.3628 22.412C14.1069 22.2585 14.0429 22.0538 14.1709 21.7979C14.2988 21.5421 14.4907 21.4142 14.7465 21.4142H21.9613L24.3407 14.0459C24.443 13.79 24.6221 13.6621 24.878 13.6621C25.1338 13.6621 25.3129 13.79 25.4152 14.0459L27.7178 21.4142H35.0094C35.2652 21.4142 35.4571 21.5421 35.585 21.7979C35.713 22.0538 35.649 22.2585 35.3932 22.412L29.4064 27.0939L31.5555 34.232C31.6578 34.4878 31.6067 34.6925 31.402 34.846C31.1973 34.9995 30.9671 34.9995 30.7112 34.846L24.878 30.4711ZM24.878 58.4093L9.83431 63.475C9.11794 63.7308 8.42716 63.6157 7.76197 63.1296C7.09677 62.6435 6.76417 62.0167 6.76417 61.2492V41.1398C4.46157 38.7348 2.81138 36.0996 1.81358 33.2342C0.815791 30.3687 0.316895 27.4777 0.316895 24.5611C0.316895 17.6021 2.67066 11.7688 7.3782 7.06131C12.0857 2.35377 17.919 0 24.878 0C31.8369 0 37.6702 2.35377 42.3777 7.06131C47.0853 11.7688 49.439 17.6021 49.439 24.5611C49.439 27.4777 48.9401 30.3687 47.9423 33.2342C46.9445 36.0996 45.2943 38.7348 42.9917 41.1398V61.2492C42.9917 62.0167 42.6591 62.6435 41.9939 63.1296C41.3288 63.6157 40.638 63.7308 39.9216 63.475L24.878 58.4093ZM24.878 44.5169C30.4554 44.5169 35.1757 42.5853 39.0389 38.7221C42.9022 34.8588 44.8338 30.1385 44.8338 24.5611C44.8338 18.9837 42.9022 14.2633 39.0389 10.4001C35.1757 6.53683 30.4554 4.6052 24.878 4.6052C19.3006 4.6052 14.5802 6.53683 10.717 10.4001C6.85372 14.2633 4.92209 18.9837 4.92209 24.5611C4.92209 30.1385 6.85372 34.8588 10.717 38.7221C14.5802 42.5853 19.3006 44.5169 24.878 44.5169Z" fill="#9747FF"/>
</svg>
