<svg width="46" height="72" viewBox="0 0 46 72" fill="none" xmlns="http://www.w3.org/2000/svg">
<path d="M15.2175 43.8019C14.6318 43.8019 14.1473 43.6094 13.7639 43.2244C13.381 42.8399 13.1896 42.3532 13.1896 41.7643C13.1896 41.176 13.381 40.6926 13.7639 40.314C14.1473 39.9355 14.6318 39.7462 15.2175 39.7462H31.116C31.7016 39.7462 32.1861 39.9387 32.5695 40.3237C32.9524 40.7082 33.1438 41.1949 33.1438 41.7838C33.1438 42.3722 32.9524 42.8556 32.5695 43.2341C32.1861 43.6127 31.7016 43.8019 31.116 43.8019H15.2175ZM11.8918 33.257C11.3061 33.257 10.8216 33.0645 10.4382 32.6795C10.0553 32.295 9.8639 31.8083 9.8639 31.2194C9.8639 30.6311 10.0553 30.1476 10.4382 29.7691C10.8216 29.3906 11.3061 29.2013 11.8918 29.2013H34.4417C35.0273 29.2013 35.5118 29.3938 35.8952 29.7788C36.2781 30.1633 36.4695 30.65 36.4695 31.2389C36.4695 31.8273 36.2781 32.3107 35.8952 32.6892C35.5118 33.0678 35.0273 33.257 34.4417 33.257H11.8918ZM5.32147 71.381C4.02364 71.381 2.88803 70.8943 1.91465 69.9209C0.941278 68.9475 0.45459 67.8119 0.45459 66.5141V4.86688C0.45459 3.56905 0.941278 2.43344 1.91465 1.46006C2.88803 0.486688 4.02364 0 5.32147 0H41.0119C42.3098 0 43.4454 0.486688 44.4188 1.46006C45.3921 2.43344 45.8788 3.56905 45.8788 4.86688V66.5141C45.8788 67.8119 45.3921 68.9475 44.4188 69.9209C43.4454 70.8943 42.3098 71.381 41.0119 71.381H5.32147ZM5.32147 59.2137H41.0119V12.1672H5.32147V59.2137Z" fill="#39BF71"/>
</svg>
