<svg width="65" height="74" viewBox="0 0 65 74" fill="none" xmlns="http://www.w3.org/2000/svg">
<path d="M36.4251 65.2814H32.6407C23.6211 65.2814 15.9261 62.0962 9.55568 55.7257C3.18523 49.3552 0 41.6602 0 32.6407C0 23.6211 3.201 15.9261 9.60298 9.55568C16.005 3.18523 23.7473 0 32.8299 0C37.3081 0 41.4552 0.804191 45.2712 2.41257C49.0872 4.02095 52.4143 6.27584 55.2526 9.17724C58.091 12.0786 60.3143 15.5004 61.9227 19.4425C63.5311 23.3846 64.3353 27.6894 64.3353 32.3569C64.3353 40.6195 62.1908 48.3461 57.9017 55.5365C53.6127 62.7269 48.0938 68.5612 41.3449 73.0395C40.9033 73.3548 40.4303 73.5125 39.9257 73.5125C39.4211 73.5125 38.9481 73.4179 38.5065 73.2287C38.065 73.0395 37.7024 72.7399 37.4185 72.3299C37.1347 71.9199 36.9612 71.4626 36.8982 70.958L36.4251 65.2814ZM32.8299 54.5904C33.8391 54.5904 34.6906 54.2435 35.3844 53.5497C36.0782 52.8558 36.4251 52.0043 36.4251 50.9952C36.4251 49.986 36.0782 49.1345 35.3844 48.4407C34.6906 47.7469 33.8391 47.4 32.8299 47.4C31.8207 47.4 30.9692 47.7469 30.2754 48.4407C29.5816 49.1345 29.2347 49.986 29.2347 50.9952C29.2347 52.0043 29.5816 52.8558 30.2754 53.5497C30.9692 54.2435 31.8207 54.5904 32.8299 54.5904ZM23.6527 23.2742C24.2834 23.5265 24.8984 23.5265 25.4976 23.2742C26.0968 23.0219 26.6171 22.612 27.0587 22.0443C27.6263 21.2243 28.399 20.5778 29.3766 20.1048C30.3543 19.6317 31.5684 19.3952 33.0191 19.3952C34.659 19.3952 36.0624 19.8367 37.2293 20.7197C38.3962 21.6028 38.9796 22.8327 38.9796 24.4096C38.9796 25.608 38.6485 26.8221 37.9862 28.0521C37.3239 29.282 36.1728 30.7169 34.5329 32.3569C33.0822 33.8076 32.0257 35.0848 31.3634 36.1886C30.7012 37.2924 30.37 38.2858 30.37 39.1688C30.37 39.8626 30.575 40.4618 30.985 40.9664C31.395 41.471 31.9469 41.7233 32.6407 41.7233C33.3345 41.7233 33.9179 41.5026 34.391 41.061C34.864 40.6195 35.1636 40.0519 35.2898 39.358C35.479 38.6642 35.8417 37.9074 36.3778 37.0874C36.9139 36.2674 37.7181 35.3213 38.7904 34.2491C40.6195 32.4199 41.9125 30.7327 42.6694 29.1874C43.4263 27.6421 43.8047 26.0495 43.8047 24.4096C43.8047 21.4451 42.764 19.0798 40.6826 17.3138C38.6012 15.5477 36.0467 14.6647 33.0191 14.6647C31.19 14.6647 29.282 15.0904 27.2952 15.9419C25.3084 16.7934 23.8419 18.1022 22.8958 19.8682C22.5173 20.5621 22.3912 21.2401 22.5173 21.9024C22.6435 22.5646 23.0219 23.0219 23.6527 23.2742Z" fill="#39BF71"/>
</svg>
