<svg width="64" height="61" viewBox="0 0 64 61" fill="none" xmlns="http://www.w3.org/2000/svg">
<path d="M31.6667 44.4125C34.2 44.4125 36.4562 43.6604 38.4354 42.1562C40.4146 40.6521 41.8528 38.7125 42.75 36.3375H20.5833C21.4806 38.7125 22.9187 40.6521 24.8979 42.1562C26.8771 43.6604 29.1333 44.4125 31.6667 44.4125ZM23.75 31.7458C25.0694 31.7458 26.191 31.284 27.1146 30.3604C28.0382 29.4368 28.5 28.3153 28.5 26.9958C28.5 25.6764 28.0382 24.5549 27.1146 23.6312C26.191 22.7076 25.0694 22.2458 23.75 22.2458C22.4306 22.2458 21.309 22.7076 20.3854 23.6312C19.4618 24.5549 19 25.6764 19 26.9958C19 28.3153 19.4618 29.4368 20.3854 30.3604C21.309 31.284 22.4306 31.7458 23.75 31.7458ZM39.5833 31.7458C40.9028 31.7458 42.0243 31.284 42.9479 30.3604C43.8715 29.4368 44.3333 28.3153 44.3333 26.9958C44.3333 25.6764 43.8715 24.5549 42.9479 23.6312C42.0243 22.7076 40.9028 22.2458 39.5833 22.2458C38.2639 22.2458 37.1424 22.7076 36.2188 23.6312C35.2951 24.5549 34.8333 25.6764 34.8333 26.9958C34.8333 28.3153 35.2951 29.4368 36.2188 30.3604C37.1424 31.284 38.2639 31.7458 39.5833 31.7458ZM17.9582 14.2642L27.2333 2.21667C27.8139 1.47778 28.4892 0.923611 29.2592 0.554167C30.0287 0.184722 30.8336 0 31.6738 0C32.5135 0 33.316 0.184722 34.0812 0.554167C34.8465 0.923611 35.5194 1.47778 36.1 2.21667L45.3752 14.2642L59.4542 19C60.6681 19.4222 61.6181 20.1376 62.3042 21.1462C62.9903 22.1548 63.3333 23.2689 63.3333 24.4886C63.3333 25.0518 63.2534 25.6138 63.0935 26.1749C62.933 26.7359 62.6699 27.2734 62.3042 27.7875L53.2792 40.6917L53.5958 54.3875C53.5958 56.0236 53.0417 57.409 51.9333 58.5438C50.825 59.6785 49.5008 60.2458 47.9607 60.2458C47.8647 60.2458 47.3681 60.1667 46.4708 60.0083L31.6667 55.8917L16.8799 60.002C16.6044 60.1118 16.3213 60.1799 16.0305 60.2062C15.7397 60.2326 15.4731 60.2458 15.2309 60.2458C13.6797 60.2458 12.3632 59.6735 11.2812 58.5287C10.1993 57.3845 9.68472 55.9777 9.7375 54.3083L10.0542 40.5927L1.02917 27.7083C0.663417 27.1895 0.400319 26.6472 0.239875 26.0815C0.0799582 25.5152 0 24.9491 0 24.3833C0 23.1694 0.340944 22.0714 1.02283 21.0892C1.70472 20.1075 2.65683 19.4111 3.87917 19L17.9582 14.2642Z" fill="#FFC619"/>
</svg>
