<svg width="309" height="88" viewBox="0 0 309 88" fill="none" xmlns="http://www.w3.org/2000/svg">
<rect x="0.427907" y="1.195" width="307.237" height="86.3459" rx="19.5721" fill="#ED0007"/>
<rect x="0.427907" y="1.195" width="307.237" height="86.3459" rx="19.5721" stroke="#DCDCDC" stroke-width="0.855814"/>
<g clip-path="url(#clip0_514_3474)">
<path fill-rule="evenodd" clip-rule="evenodd" d="M137.838 44.7269C139.193 44.2026 140.356 43.277 141.17 42.0739C141.984 40.8708 142.412 39.4477 142.395 37.995C142.395 31.9363 138.097 28.9329 132.194 28.9329H116.71V61.8776H133.54C138.719 61.8776 143.793 58.2528 143.793 52.7119C143.793 46.125 137.838 44.789 137.838 44.7269ZM124.789 35.7683H130.796C131.18 35.7445 131.566 35.7967 131.93 35.9221C132.295 36.0474 132.631 36.2434 132.919 36.4988C133.208 36.7542 133.443 37.064 133.612 37.4105C133.781 37.757 133.88 38.1333 133.903 38.518C133.903 38.6354 133.903 38.7545 133.903 38.8753C133.886 39.6852 133.551 40.4559 132.969 41.0194C132.387 41.5829 131.606 41.8937 130.796 41.884H124.737L124.789 35.7683ZM130.847 54.98H124.84V48.5071H130.692C133.644 48.5071 135.042 49.8017 135.042 51.7177C135.042 54.1101 133.281 54.98 130.847 54.98Z" fill="white"/>
<path fill-rule="evenodd" clip-rule="evenodd" d="M161.607 28.1042C152.079 28.1042 146.486 35.7164 146.486 45.3482C146.486 54.98 152.079 62.5922 161.607 62.5922C171.135 62.5922 176.728 55.0318 176.728 45.3482C176.728 35.6647 171.187 28.1042 161.607 28.1042ZM161.607 54.721C156.946 54.721 154.616 50.5266 154.616 45.3482C154.616 40.1698 156.946 36.0271 161.607 36.0271C166.267 36.0271 168.649 40.2216 168.649 45.3482C168.649 50.5784 166.267 54.721 161.607 54.721Z" fill="white"/>
<path fill-rule="evenodd" clip-rule="evenodd" d="M194.282 41.8787L193.143 41.6198C190.347 41.0502 188.12 40.3252 188.12 38.3057C188.12 36.1307 190.243 35.2504 192.107 35.2504C193.379 35.2694 194.634 35.5505 195.792 36.0762C196.95 36.6019 197.988 37.3608 198.839 38.3057L203.966 33.2309C201.636 30.5899 197.855 28.0525 191.952 28.0525C185.013 28.0525 179.731 31.9363 179.731 38.4092C179.731 44.3126 183.977 47.2124 189.156 48.2999L190.295 48.5588C194.593 49.4391 196.198 50.1123 196.198 52.1837C196.198 54.1515 194.438 55.446 191.745 55.446C188.534 55.446 185.635 54.0479 183.408 51.1998L178.178 56.3781C181.078 59.8477 184.754 62.5404 191.849 62.5404C198.011 62.5404 204.587 59.0191 204.587 51.8212C204.691 44.3126 198.995 42.8626 194.282 41.8787Z" fill="white"/>
<path fill-rule="evenodd" clip-rule="evenodd" d="M223.022 54.721C219.397 54.721 215.617 51.7176 215.617 45.141C215.617 39.2895 219.139 36.0271 222.815 36.0271C225.715 36.0271 227.424 37.3735 228.77 39.7038L235.399 35.3022C232.084 30.2791 228.149 28.156 222.712 28.156C212.769 28.156 207.384 35.8718 207.384 45.1928C207.384 54.9799 213.339 62.6439 222.608 62.6439C229.133 62.6439 232.24 60.3654 235.606 55.4978L228.926 51.003C227.579 53.1675 226.129 54.721 223.022 54.721Z" fill="white"/>
<path fill-rule="evenodd" clip-rule="evenodd" d="M257.51 28.9329V41.0502H247.516V28.9329H238.868V61.8673H247.516V48.8696H257.51V61.8673H266.158V28.9329H257.51Z" fill="white"/>
<path d="M66.8946 20.5439C61.958 20.5439 57.1323 22.0078 53.0277 24.7504C48.9231 27.493 45.724 31.3912 43.8348 35.952C41.9457 40.5128 41.4514 45.5314 42.4145 50.3731C43.3776 55.2148 45.7547 59.6622 49.2454 63.1529C52.7361 66.6435 57.1835 69.0207 62.0252 69.9838C66.8669 70.9469 71.8855 70.4526 76.4463 68.5634C81.0071 66.6743 84.9053 63.4752 87.6479 59.3706C90.3905 55.2659 91.8543 50.4402 91.8543 45.5037C91.8543 38.8839 89.2247 32.5353 84.5438 27.8545C79.863 23.1736 73.5143 20.5439 66.8946 20.5439ZM66.8946 68.1331C62.4189 68.1331 58.0438 66.8059 54.3224 64.3194C50.601 61.8328 47.7005 58.2986 45.9877 54.1636C44.2749 50.0286 43.8268 45.4786 44.7 41.0889C45.5731 36.6992 47.7284 32.667 50.8932 29.5022C54.058 26.3374 58.0901 24.1822 62.4798 23.309C66.8695 22.4359 71.4195 22.884 75.5545 24.5968C79.6895 26.3095 83.2238 29.21 85.7103 32.9314C88.1969 36.6528 89.5241 41.028 89.5241 45.5037C89.5227 51.505 87.1381 57.2601 82.8945 61.5036C78.651 65.7472 72.8959 68.1318 66.8946 68.1331Z" fill="white"/>
<path d="M77.1996 29.9167H75.4907V38.4611H58.3503V29.9167H56.5897C54.0109 31.618 51.8945 33.9325 50.4302 36.6528C48.9659 39.3731 48.1993 42.4142 48.1993 45.5036C48.1993 48.593 48.9659 51.6341 50.4302 54.3545C51.8945 57.0748 54.0109 59.3893 56.5897 61.0905H58.3503V52.5566H75.4907V61.1009H77.1996C79.7795 59.4004 81.8969 57.0862 83.3621 54.3658C84.8272 51.6454 85.5941 48.6038 85.5941 45.514C85.5941 42.4241 84.8272 39.3826 83.3621 36.6622C81.8969 33.9417 79.7795 31.6275 77.1996 29.9271V29.9167ZM55.9683 57.7349C54.3623 56.3079 53.0531 54.5786 52.1155 52.6456C51.1779 50.7126 50.6302 48.6139 50.5037 46.4693C50.3772 44.3246 50.6745 42.176 51.3784 40.1463C52.0823 38.1165 53.1792 36.2453 54.6064 34.6394C55.0341 34.1616 55.4888 33.7086 55.9683 33.2827V57.7349ZM75.4907 50.1745H58.3503V40.7913H75.4907V50.1745ZM77.821 57.6831V52.5048V38.4611V33.2827C79.423 34.7213 80.726 36.4614 81.6553 38.4037C82.5845 40.346 83.122 42.4524 83.2369 44.6025C83.3519 46.7526 83.042 48.9043 82.3251 50.9346C81.6082 52.9649 80.4982 54.834 79.0586 56.4352C78.667 56.8682 78.254 57.2812 77.821 57.6728V57.6831Z" fill="white"/>
</g>
<defs>
<clipPath id="clip0_514_3474">
<rect width="224.223" height="50.2301" fill="white" transform="translate(41.9349 20.4507)"/>
</clipPath>
</defs>
</svg>
