<svg width="309" height="88" viewBox="0 0 309 88" fill="none" xmlns="http://www.w3.org/2000/svg">
<rect x="0.427907" y="1.20916" width="307.237" height="86.3459" rx="19.5721" fill="black"/>
<rect x="0.427907" y="1.20916" width="307.237" height="86.3459" rx="19.5721" stroke="#DCDCDC" stroke-width="0.855814"/>
<g clip-path="url(#clip0_514_3467)">
<path d="M121.081 48.0163L119.745 51.7985H119.633C119.411 50.9457 119.002 49.6478 118.334 48.0904L111.169 30.1062H104.153V58.7697H108.793V41.0822C108.793 39.9697 108.793 38.709 108.756 37.1516C108.719 36.3729 108.645 35.7796 108.608 35.3346H108.719C108.942 36.4471 109.202 37.2628 109.387 37.782L118 58.6956H121.267L129.805 37.5966C129.991 37.1145 130.176 36.1504 130.362 35.3346H130.473C130.362 37.4482 130.288 39.3394 130.251 40.4889V58.6585H135.188V30.0321H128.432L121.081 48.0163ZM139.865 38.1157H144.691V58.6585H139.865V38.1157ZM142.316 29.4388C141.499 29.4388 140.831 29.7354 140.274 30.2545C139.717 30.7737 139.42 31.4411 139.42 32.2569C139.42 33.0356 139.717 33.7031 140.274 34.2222C140.831 34.7413 141.499 35.0009 142.316 35.0009C143.132 35.0009 143.838 34.7043 144.357 34.2222C144.914 33.7031 145.211 33.0356 145.211 32.2569C145.211 31.4782 144.914 30.8108 144.357 30.2545C143.875 29.7354 143.169 29.4388 142.316 29.4388ZM161.805 37.9303C160.914 37.7449 159.986 37.6336 159.095 37.6336C156.905 37.6336 154.9 38.1157 153.23 39.0798C151.559 40.0439 150.223 41.3788 149.369 43.0474C148.478 44.7532 148.033 46.7184 148.033 48.9804C148.033 50.9457 148.478 52.6885 149.332 54.2829C150.186 55.8403 151.374 57.1011 152.97 57.9539C154.492 58.8068 156.274 59.2518 158.278 59.2518C160.58 59.2518 162.548 58.7697 164.107 57.8798L164.144 57.8427V53.393L163.958 53.5413C163.253 54.0605 162.436 54.5054 161.62 54.765C160.766 55.0616 159.986 55.21 159.318 55.21C157.388 55.21 155.865 54.6537 154.789 53.4301C153.675 52.2435 153.118 50.6119 153.118 48.5725C153.118 46.4589 153.675 44.7902 154.826 43.5666C155.977 42.3429 157.499 41.7125 159.355 41.7125C160.914 41.7125 162.511 42.2317 163.958 43.2699L164.144 43.4183V38.709L164.107 38.6719C163.476 38.4123 162.77 38.1157 161.805 37.9303ZM177.731 37.782C176.543 37.782 175.429 38.1528 174.464 38.9315C173.647 39.5989 173.091 40.563 172.608 41.7125H172.571V38.1157H167.745V58.6585H172.571V48.1646C172.571 46.3847 172.942 44.9015 173.759 43.8261C174.576 42.7137 175.615 42.1575 176.877 42.1575C177.323 42.1575 177.768 42.2687 178.325 42.3429C178.845 42.4912 179.216 42.6396 179.476 42.825L179.661 42.9733V38.1528L179.55 38.1157C179.216 37.8932 178.548 37.782 177.731 37.782ZM190.873 37.6707C187.494 37.6707 184.784 38.6719 182.891 40.6372C180.961 42.6025 180.033 45.3094 180.033 48.7208C180.033 51.9098 180.998 54.5054 182.854 56.3965C184.71 58.2506 187.234 59.2147 190.39 59.2147C193.694 59.2147 196.33 58.2135 198.223 56.2111C200.153 54.2088 201.081 51.539 201.081 48.2388C201.081 44.9756 200.19 42.38 198.371 40.4889C196.627 38.5977 194.065 37.6707 190.873 37.6707ZM194.733 53.4672C193.842 54.6167 192.432 55.1729 190.687 55.1729C188.942 55.1729 187.531 54.6167 186.529 53.393C185.527 52.2435 185.044 50.5749 185.044 48.4612C185.044 46.2735 185.564 44.6048 186.529 43.4183C187.531 42.2317 188.905 41.6384 190.65 41.6384C192.357 41.6384 193.694 42.1946 194.659 43.3441C195.624 44.4936 196.144 46.1622 196.144 48.35C196.07 50.5749 195.661 52.3177 194.733 53.4672ZM211.847 46.6443C210.325 46.0139 209.36 45.5319 208.914 45.124C208.543 44.7532 208.357 44.234 208.357 43.5666C208.357 43.0104 208.58 42.4541 209.137 42.0833C209.694 41.7125 210.325 41.5271 211.253 41.5271C212.07 41.5271 212.924 41.6754 213.74 41.8979C214.557 42.1204 215.299 42.4541 215.893 42.8991L216.079 43.0474V38.5236L215.968 38.4865C215.411 38.264 214.668 38.0415 213.777 37.8561C212.886 37.7078 212.07 37.6336 211.402 37.6336C209.1 37.6336 207.207 38.1899 205.722 39.4135C204.237 40.563 203.531 42.1204 203.531 43.9374C203.531 44.9015 203.68 45.7543 204.014 46.4589C204.348 47.1634 204.831 47.8309 205.499 48.3871C206.167 48.9062 207.132 49.4995 208.469 50.0557C209.583 50.5378 210.436 50.9086 210.956 51.2052C211.476 51.5019 211.81 51.8356 212.07 52.0952C212.255 52.3918 212.367 52.7626 212.367 53.2447C212.367 54.6167 211.327 55.2841 209.211 55.2841C208.395 55.2841 207.541 55.1358 206.538 54.8021C205.536 54.4683 204.608 53.9863 203.828 53.4301L203.643 53.2818V57.991L203.754 58.0281C204.46 58.3618 205.313 58.5843 206.353 58.8439C207.392 59.0293 208.32 59.1776 209.137 59.1776C211.624 59.1776 213.666 58.6214 215.114 57.3977C216.599 56.2111 217.378 54.6908 217.378 52.7255C217.378 51.3536 217.007 50.1299 216.19 49.2029C215.114 48.3129 213.777 47.3859 211.847 46.6443ZM230.112 37.6707C226.733 37.6707 224.023 38.6719 222.13 40.6372C220.237 42.6025 219.272 45.3094 219.272 48.7208C219.272 51.9098 220.237 54.5054 222.093 56.3965C223.949 58.2506 226.474 59.2147 229.629 59.2147C232.933 59.2147 235.569 58.2135 237.462 56.2111C239.392 54.2088 240.32 51.539 240.32 48.2388C240.32 44.9756 239.429 42.38 237.61 40.4889C235.866 38.5977 233.304 37.6707 230.112 37.6707ZM233.935 53.4672C233.044 54.6167 231.634 55.1729 229.889 55.1729C228.107 55.1729 226.733 54.6167 225.731 53.393C224.729 52.2435 224.246 50.5749 224.246 48.4612C224.246 46.2735 224.766 44.6048 225.731 43.4183C226.733 42.2317 228.107 41.6384 229.852 41.6384C231.522 41.6384 232.896 42.1946 233.861 43.3441C234.826 44.4936 235.346 46.1622 235.346 48.35C235.346 50.5749 234.863 52.3177 233.935 53.4672ZM266.121 42.0833V38.1157H261.258V32.0344L261.109 32.0715L256.506 33.4435L256.395 33.4806V38.1157H249.119V35.52C249.119 34.3334 249.416 33.4064 249.935 32.8131C250.455 32.2198 251.235 31.9232 252.2 31.9232C252.868 31.9232 253.573 32.0715 254.353 32.4052L254.539 32.5165V28.3263L254.427 28.2893C253.759 28.0668 252.868 27.9185 251.717 27.9185C250.269 27.9185 249.007 28.2522 247.856 28.8084C246.706 29.4388 245.852 30.2916 245.221 31.4411C244.59 32.5536 244.255 33.8143 244.255 35.2605V38.1157H240.877V42.0463H244.255V58.6585H249.119V42.0833H256.395V52.6514C256.395 56.9898 258.436 59.1776 262.52 59.1776C263.188 59.1776 263.894 59.0664 264.562 58.9551C265.267 58.8068 265.787 58.6214 266.084 58.4731L266.121 58.436V54.4683L265.935 54.6167C265.638 54.8021 265.379 54.9504 264.933 55.0616C264.562 55.1729 264.228 55.21 263.968 55.21C263.003 55.21 262.334 54.9875 261.852 54.4313C261.406 53.9121 261.184 53.0593 261.184 51.7985V42.0833H266.121Z" fill="white"/>
<path d="M41.9349 20.4651H64.6913V43.1956H41.9349V20.4651Z" fill="#F25022"/>
<path d="M67.0672 20.4651H89.8236V43.1956H67.0672V20.4651Z" fill="#7FBA00"/>
<path d="M41.9349 45.5688H64.6913V68.2994H41.9349V45.5688Z" fill="#00A4EF"/>
<path d="M67.0672 45.5688H89.8236V68.2994H67.0672V45.5688Z" fill="#FFB900"/>
</g>
<defs>
<clipPath id="clip0_514_3467">
<rect width="224.223" height="47.8343" fill="white" transform="translate(41.9349 20.4651)"/>
</clipPath>
</defs>
</svg>
