<svg width="298" height="83" viewBox="0 0 298 83" fill="none" xmlns="http://www.w3.org/2000/svg">
<rect x="1.20928" y="1.3908" width="296.112" height="81.1454" rx="19.5721" fill="#503629"/>
<rect x="1.20928" y="1.3908" width="296.112" height="81.1454" rx="19.5721" stroke="#DCDCDC" stroke-width="0.855814"/>
<g clip-path="url(#clip0_514_3531)">
<path d="M65.6087 20.6465H53.2796V21.6786H57.2313V42.1619C57.2313 48.2751 55.4925 50.0217 51.6989 50.0217C50.2764 50.1805 49.0118 49.1484 48.8538 47.7193C48.8538 47.5606 48.8538 47.4018 48.8538 47.243C48.8538 45.02 48.6957 43.6703 46.7199 43.6703C44.744 43.6703 44.4279 45.7345 44.4279 46.3697C44.4279 49.2278 45.6924 51.3714 51.3038 51.3714C58.0216 51.3714 61.5781 49.1484 61.5781 41.6061V21.6786H65.6878L65.6087 20.6465Z" fill="white"/>
<path d="M67.1894 46.5286C66.5571 46.5286 65.9249 46.7667 65.4507 47.2431C64.9765 47.7195 64.7394 48.3546 64.7394 48.9897C64.7394 49.6249 64.9765 50.26 65.4507 50.657C65.9249 51.1333 66.5571 51.3715 67.1894 51.3715C67.8217 51.3715 68.4539 51.1333 68.9281 50.657C69.4023 50.1806 69.6394 49.6249 69.6394 48.9897C69.6394 47.6401 68.612 46.608 67.2684 46.608H67.1894" fill="white"/>
<path d="M94.6138 46.5284C93.3493 46.5284 92.2429 47.5605 92.1638 48.8308V48.9101C92.1638 49.5453 92.48 50.1804 92.9541 50.5774C93.4283 51.0537 94.0606 51.2919 94.6929 51.2919C95.3251 51.2919 95.9574 51.0537 96.4316 50.5774C96.9058 50.1804 97.1429 49.5453 97.1429 48.9101C97.1429 48.275 96.9058 47.6399 96.4316 47.1635C95.9574 46.6872 95.4042 46.449 94.7719 46.449" fill="white"/>
<path d="M86.0783 20.6465H73.9072V21.6786H77.4637V45.02C77.5428 45.9727 77.4637 46.9254 77.1476 47.8781C76.8315 48.5133 76.2782 49.069 75.646 49.2278C74.9347 49.466 74.1443 49.6248 73.354 49.6248V50.5775H86.2364V49.6248C85.367 49.6248 84.5767 49.5454 83.7864 49.3072C83.0751 49.069 82.5218 48.5927 82.2847 47.9575C82.0476 47.3224 81.8896 46.6872 81.9686 46.0521V37.9541H85.2089C94.5348 37.9541 97.1429 34.2226 97.1429 29.2209C97.1429 24.2191 95.4832 20.6465 86.0783 20.6465ZM84.3396 36.7632H81.8896V21.8374H84.1025C91.2945 21.8374 93.0332 24.7749 93.0332 29.5385C93.0332 34.302 90.188 36.922 84.4977 36.922" fill="white"/>
<path d="M135.632 47.7987C135.395 47.1635 135.316 46.449 135.395 45.7345V21.6785H138.635V20.7258H130.969L121.643 43.5115C121.643 43.5909 121.564 43.6703 121.485 43.6703C121.406 43.6703 121.327 43.5909 121.248 43.5115C121.248 43.5115 111.606 20.964 111.527 20.7258H102.991V21.6785H106.706V47.0048C106.706 47.5605 106.469 48.0369 106.232 48.5132C105.916 48.9896 105.441 49.3071 104.888 49.4659C104.335 49.6247 103.703 49.6247 103.149 49.6247V50.5774H111.606V49.6247C111.053 49.6247 110.578 49.5453 110.104 49.3865C109.472 49.2278 108.998 48.9102 108.603 48.4338C108.287 47.9575 108.128 47.4811 108.049 46.9254L107.97 44.7818V24.7748H108.445C108.445 24.7748 119.43 50.2599 119.43 50.5774H120.458L130.811 25.013H131.048V45.5757C131.048 46.2902 130.969 47.0048 130.811 47.7193C130.574 48.3544 130.1 48.8308 129.546 49.069C128.835 49.3071 128.124 49.4659 127.413 49.4659V50.4186H139.188V49.4659C138.477 49.4659 137.687 49.3071 136.976 49.069C136.343 48.7514 135.869 48.1957 135.632 47.5605" fill="white"/>
<path d="M151.518 28.665C145.195 28.665 141.243 32.7935 141.243 40.0976C141.243 50.8156 149.542 51.4507 151.36 51.4507C154.916 51.4507 161.634 49.2277 161.634 39.8594C161.555 32.5553 157.287 28.665 151.518 28.665ZM151.439 50.101C146.697 50.101 145.985 47.7193 145.985 40.177C145.985 34.3019 146.38 29.8559 151.439 29.8559C156.892 29.8559 156.971 34.4607 156.971 39.7006C156.971 47.4017 155.627 50.101 151.439 50.101Z" fill="white"/>
<path d="M178.073 28.9827C174.279 28.9827 173.173 31.2057 172.066 33.508H171.75C171.75 33.508 171.197 30.2529 171.039 29.2208H163.689V30.3323H167.64V45.1787C167.719 46.2108 167.561 47.243 167.166 48.1957C166.771 48.9102 165.823 49.3072 164.4 49.3072H163.768V50.6568H175.939V49.3072H175.386C173.805 49.3072 173.094 48.9896 172.698 48.2751C172.303 47.3223 172.066 46.2108 172.224 45.1787V37.4777C172.224 34.9371 174.2 31.9202 176.492 31.9202C178.863 31.9202 178.863 35.6516 181.629 34.1432C183.052 33.2699 182.736 28.9827 178.073 28.9827Z" fill="white"/>
<path d="M226.678 48.3546C225.334 48.3546 224.939 47.64 224.86 46.4492V34.6991C225.018 33.1112 224.465 31.444 223.359 30.2531C222.252 29.1416 220.039 28.5064 216.878 28.5064C214.507 28.3477 212.215 28.9034 210.16 30.1737C208.975 30.8882 208.263 32.2379 208.263 33.5876C208.184 34.1433 208.421 34.6991 208.816 35.096C209.212 35.4136 209.686 35.5724 210.16 35.5724C211.346 35.5724 212.057 34.9372 212.294 33.3494C212.294 32.3967 212.689 31.5234 213.242 30.8088C214.033 30.0943 215.139 29.6973 216.167 29.8561C217.352 29.6973 218.617 30.1737 219.407 31.1264C220.039 32.0791 220.276 33.1112 220.276 34.2227V37.9542C216.404 38.2717 207.157 39.0657 207.552 46.0522C207.868 48.9897 210.397 51.2127 213.321 51.1333C216.088 51.0539 218.696 49.7836 220.434 47.5607C220.829 49.5455 222.568 50.8951 224.544 50.8158C227.389 50.8158 229.128 49.3867 229.286 45.9728H228.575C228.417 47.5607 227.468 48.3546 226.678 48.3546ZM220.276 46.0522C220.276 46.1316 220.276 46.1316 220.276 46.211V46.2904C219.012 47.7194 217.273 48.5928 215.376 48.8309C213.558 48.9103 211.978 47.4813 211.899 45.5758C211.899 45.4171 211.899 45.2583 211.899 45.0995C211.899 41.1299 217.352 39.145 220.355 39.145L220.276 46.0522Z" fill="white"/>
<path d="M251.652 48.1956C251.099 47.2429 250.862 46.1314 250.862 45.0199V35.334C250.941 34.0638 250.704 32.8729 250.151 31.7614C249.677 30.888 248.886 30.0941 248.017 29.6178C246.989 29.1414 245.883 28.9032 244.776 28.9032C241.852 28.8238 239.165 30.4117 237.822 33.0316H237.347L236.557 29.1414H229.997V30.2529H233.317V45.0199C233.317 45.8932 233.238 46.6872 233.08 47.5605C232.922 48.1956 232.447 48.7514 231.815 48.9102C231.262 49.1483 230.63 49.2277 229.997 49.2277V50.5774H240.509V49.2277C239.718 49.3071 238.928 48.9102 238.375 48.3544C237.901 47.4017 237.664 46.3696 237.822 45.3375V39.7006C237.584 37.6364 237.901 35.5722 238.612 33.5874C239.481 32.0789 241.141 31.1262 242.88 31.2056C244.065 31.0468 245.251 31.682 245.804 32.7141C246.357 34.3019 246.594 36.0486 246.515 37.7158V44.7024C246.594 45.5757 246.594 46.449 246.515 47.3223C246.436 47.9574 246.12 48.5132 245.567 48.8308C245.014 49.1483 244.46 49.3071 243.907 49.3071V50.6568H254.102V49.3071C252.838 49.1483 252.048 48.8308 251.652 48.1956Z" fill="white"/>
<path d="M203.995 27.7917C203.284 28.1093 202.81 28.7444 202.731 29.459C202.573 30.3323 202.257 30.8086 201.783 30.9674C201.308 31.1262 200.755 31.0468 200.281 30.888C198.384 29.2208 195.855 28.4269 193.405 28.5856C189.058 28.2681 185.186 31.5232 184.869 35.8898C184.869 36.2073 184.869 36.5249 184.869 36.8425C184.869 41.4472 186.608 43.5114 190.402 44.3848C190.639 44.3848 190.639 44.7023 190.402 44.7023C187.161 45.2581 184.316 46.2108 184.316 49.3865C184.316 50.8949 185.265 52.2446 186.687 52.721C188.742 53.4355 190.876 53.7531 193.01 53.6737C194.67 53.6737 196.408 53.7531 198.068 53.9119C199.016 53.9913 199.965 54.3088 200.834 54.8646C201.545 55.4997 201.941 56.373 201.862 57.3257C201.862 58.8342 200.913 60.1839 199.57 60.7396C197.752 61.6129 195.776 62.0099 193.8 61.9305C191.982 62.0893 190.086 61.6923 188.505 60.7396C187.557 60.0251 187.082 58.8342 187.399 57.7227C187.715 56.8494 187.24 55.8173 186.292 55.4997H186.055C185.344 55.4203 184.632 55.7379 184.237 56.2936C183.921 56.8494 183.684 57.5639 183.763 58.2785C183.842 60.3427 185.265 62.0099 187.319 62.4069C189.216 63.042 191.192 63.2802 193.168 63.2802C195.46 63.3596 197.752 62.9626 199.886 62.0099C202.415 60.8984 204.154 58.4372 204.154 55.6585C204.233 54.3088 203.837 53.0385 203.126 51.9271C200.992 48.9895 197.989 49.3865 191.192 49.0689C187.952 49.0689 187.319 48.5132 187.319 47.5605C187.319 46.052 188.505 45.4963 193.168 44.7817C197.831 44.0672 202.178 42.3206 202.178 36.6837C202.178 35.334 201.941 33.9049 201.308 32.6347C202.178 32.8728 203.126 32.8728 203.995 32.6347C204.786 32.3965 205.497 31.8407 205.892 31.1262C206.287 30.5705 206.445 29.7765 206.287 29.1414C205.892 27.9505 205.102 27.4741 203.995 27.7917ZM193.484 43.432C190.718 43.432 189.058 42.3999 189.058 36.7631C189.058 32.7934 190.402 29.8559 193.484 29.8559C196.962 29.8559 197.91 32.5553 197.91 36.6837C197.831 42.5587 196.013 43.432 193.484 43.432Z" fill="white"/>
</g>
<defs>
<clipPath id="clip0_514_3531">
<rect width="209.674" height="42.6338" fill="white" transform="translate(44.4279 20.6465)"/>
</clipPath>
</defs>
</svg>
