<svg width="151" height="24" viewBox="0 0 151 24" fill="none" xmlns="http://www.w3.org/2000/svg">
<path fill-rule="evenodd" clip-rule="evenodd" d="M1.12225 22.3098V1.15558H6.6724L14.5868 12.1003C14.7509 12.2629 14.9955 12.7536 15.3221 13.4069C15.7294 14.0602 16.056 14.8775 16.4647 15.7754C16.3827 14.9581 16.3007 14.1422 16.2187 13.4889C16.2187 12.7536 16.1381 12.1823 16.1381 11.6097V1.15558H21.6868V22.3098H16.1381L8.2222 11.447C8.05958 11.201 7.81354 10.7937 7.48831 10.0584C7.07965 9.40515 6.753 8.58783 6.34576 7.68991C6.42636 8.58783 6.50837 9.40515 6.59039 10.0584C6.59039 10.7937 6.6724 11.365 6.6724 11.9363V22.3098H1.12225Z" fill="#C93733"/>
<path fill-rule="evenodd" clip-rule="evenodd" d="M31.7236 14.4689H37.4364L35.3139 7.44527C35.2319 7.28125 35.1513 6.87258 35.0693 6.46392C34.9067 5.97466 34.7426 5.32137 34.58 4.58606C34.498 5.15734 34.3354 5.64802 34.2534 6.13728C34.0907 6.54594 34.0087 7.03661 33.8447 7.44527L31.7236 14.4689ZM23.7272 22.3098L30.9897 1.15558H38.1703L45.4328 22.3098H39.7201L38.6595 18.5526H30.4991L29.4385 22.3098H23.7272Z" fill="#C93733"/>
<path fill-rule="evenodd" clip-rule="evenodd" d="M48.371 15.531C49.1869 16.5109 50.0834 17.2462 50.9008 17.6535C51.7167 18.1442 52.5326 18.3888 53.3485 18.3888C54.1644 18.3888 54.7357 18.2262 55.2249 17.8175C55.7142 17.4089 55.9588 16.8376 55.9588 16.1843C55.9588 15.531 55.7962 14.9583 55.3875 14.6317C54.8983 14.2244 54.0004 13.8158 52.4506 13.4071C50.4101 12.8358 48.9409 12.1005 48.125 11.2012C47.2285 10.3033 46.8198 9.07869 46.8198 7.52606C46.8198 5.48417 47.4731 3.85095 48.8603 2.62638C50.1655 1.3198 51.9613 0.666504 54.0824 0.666504C55.2249 0.666504 56.3675 0.82912 57.346 1.15577C58.408 1.48241 59.3865 1.97309 60.2844 2.54436L58.4886 6.71016C57.8367 6.13747 57.1834 5.73022 56.5301 5.48417C55.7962 5.15753 55.1429 4.99491 54.491 4.99491C53.8377 4.99491 53.2665 5.15753 52.7772 5.56619C52.3685 5.89283 52.1239 6.3015 52.1239 6.79076C52.1239 7.36345 52.3685 7.77211 52.6952 8.09875C53.1039 8.4254 53.8377 8.67003 54.8983 8.99668L55.1429 9.07869C57.51 9.73198 59.0598 10.3853 59.7951 11.1206C60.2844 11.6919 60.6916 12.2631 60.9377 12.9984C61.1823 13.7337 61.3449 14.5511 61.3449 15.449C61.3449 17.7355 60.611 19.5328 59.1418 20.8393C57.6727 22.2279 55.7142 22.8812 53.2665 22.8812C51.7973 22.8812 50.4921 22.6366 49.2675 22.1459C48.0444 21.6567 46.9018 20.8393 45.7593 19.7774L48.371 15.531Z" fill="#C93733"/>
<path fill-rule="evenodd" clip-rule="evenodd" d="M65.426 15.531C66.3225 16.5109 67.1398 17.2462 67.9557 17.6535C68.8523 18.1442 69.6682 18.3888 70.4855 18.3888C71.2194 18.3888 71.8727 18.2262 72.3619 17.8175C72.8512 17.4089 73.0958 16.8376 73.0958 16.1843C73.0958 15.531 72.8512 14.9583 72.4439 14.6317C72.0353 14.2244 71.0568 13.8158 69.5876 13.4071C67.4651 12.8358 66.0779 12.1005 65.1814 11.2012C64.3641 10.3033 63.8748 9.07869 63.8748 7.52606C63.8748 5.48417 64.6101 3.85095 65.9153 2.62638C67.3025 1.3198 69.0163 0.666504 71.1374 0.666504C72.3619 0.666504 73.4225 0.82912 74.483 1.15577C75.5435 1.48241 76.5235 1.97309 77.4214 2.54436L75.6256 6.71016C74.9723 6.13747 74.3204 5.73022 73.5851 5.48417C72.9332 5.15753 72.2799 4.99491 71.6266 4.99491C70.8927 4.99491 70.3215 5.15753 69.9142 5.56619C69.5055 5.89283 69.2609 6.3015 69.2609 6.79076C69.2609 7.36345 69.4235 7.77211 69.8322 8.09875C70.2394 8.4254 70.9747 8.67003 72.0353 8.99668L72.2799 9.07869C74.647 9.73198 76.1148 10.3853 76.8501 11.1206C77.4214 11.6919 77.748 12.2631 77.9927 12.9984C78.3193 13.7337 78.3999 14.5511 78.3999 15.449C78.3999 17.7355 77.666 19.5328 76.1968 20.8393C74.7276 22.2279 72.7692 22.8812 70.3215 22.8812C68.8523 22.8812 67.5471 22.6366 66.3225 22.1459C65.1814 21.6567 63.9568 20.8393 62.8963 19.7774L65.426 15.531Z" fill="#C93733"/>
<path fill-rule="evenodd" clip-rule="evenodd" d="M96.8418 1.97309V8.34338C96.1079 7.44546 95.292 6.79076 94.5581 6.38351C93.7408 5.97485 92.9249 5.73022 92.0283 5.73022C90.3951 5.73022 89.0079 6.30149 88.0294 7.44546C86.9689 8.58801 86.4782 10.0586 86.4782 11.8559C86.4782 13.5711 86.9689 14.9583 88.0294 16.1023C89.0899 17.2462 90.3951 17.8175 92.0283 17.8175C92.9249 17.8175 93.7408 17.5729 94.5581 17.1642C95.292 16.7556 96.1079 16.1023 96.8418 15.2044V21.5747C95.9453 21.9833 95.0473 22.31 94.1494 22.5546C93.2515 22.7992 92.3536 22.8812 91.4571 22.8812C90.3145 22.8812 89.2526 22.7172 88.274 22.4726C87.2941 22.2279 86.3976 21.7373 85.5817 21.248C84.0305 20.1861 82.8073 18.7975 81.99 17.2462C81.1741 15.6116 80.7668 13.8158 80.7668 11.7739C80.7668 10.1406 81.0115 8.67003 81.5007 7.36345C82.072 6.05686 82.8073 4.83088 83.8679 3.76893C84.8464 2.70839 85.9889 1.97309 87.2135 1.4004C88.5187 0.911135 89.9059 0.666504 91.4571 0.666504C92.3536 0.666504 93.2515 0.747105 94.1494 0.99315C95.0473 1.23778 95.9453 1.56443 96.8418 1.97309Z" fill="#C93733"/>
<path fill-rule="evenodd" clip-rule="evenodd" d="M121.731 11.7739C121.731 13.3251 121.405 14.7957 120.834 16.1023C120.344 17.4089 119.528 18.6348 118.467 19.6954C117.407 20.6767 116.182 21.4926 114.795 22.0639C113.408 22.6366 111.938 22.8812 110.471 22.8812C109.001 22.8812 107.532 22.6366 106.145 22.0639C104.758 21.4926 103.533 20.6767 102.555 19.6954C101.412 18.6348 100.596 17.4089 100.025 16.1023C99.5358 14.7137 99.2091 13.3251 99.2091 11.7739C99.2091 10.3033 99.5358 8.83265 100.025 7.52606C100.596 6.21948 101.412 4.99491 102.555 3.93296C103.533 2.95302 104.758 2.1357 106.145 1.56443C107.532 0.99315 109.001 0.666504 110.471 0.666504C111.938 0.666504 113.408 0.99315 114.795 1.56443C116.182 2.1357 117.407 2.95302 118.467 3.93296C119.528 4.99491 120.263 6.21948 120.834 7.52606C121.405 8.83265 121.731 10.3033 121.731 11.7739ZM110.471 18.0622C112.02 18.0622 113.408 17.4089 114.388 16.2649C115.448 15.1223 115.937 13.5711 115.937 11.7739C115.937 10.0586 115.448 8.58801 114.388 7.36345C113.326 6.21948 112.02 5.56619 110.471 5.56619C108.839 5.56619 107.532 6.21948 106.554 7.36345C105.492 8.506 105.003 10.0586 105.003 11.7739C105.003 13.6517 105.492 15.1223 106.472 16.2649C107.532 17.4089 108.839 18.0622 110.471 18.0622Z" fill="#C93733"/>
<path fill-rule="evenodd" clip-rule="evenodd" d="M149.395 22.3098H144.091L142.867 13.1623C142.785 12.5896 142.704 11.8557 142.622 11.0384C142.54 10.2211 142.458 9.40515 142.377 8.42521C142.295 9.32313 141.969 10.4671 141.642 11.7737C141.561 12.1003 141.479 12.2629 141.397 12.427L138.541 22.3098H134.706L131.85 12.427C131.85 12.2629 131.769 12.1003 131.687 11.7737C131.278 10.4671 131.034 9.32313 130.953 8.50581C130.871 9.24112 130.789 10.0584 130.707 10.8743C130.627 11.6097 130.545 12.427 130.463 13.1623L129.239 22.3098H123.853L127.117 1.15558H132.83L136.011 12.1003C136.011 12.1823 136.011 12.2629 136.093 12.509C136.42 13.4069 136.583 14.3048 136.665 14.9581C136.665 14.6315 136.747 14.1422 136.829 13.7336C136.991 13.2429 137.154 12.7536 137.318 12.1003L140.5 1.15558H146.212L149.395 22.3098Z" fill="#C93733"/>
</svg>
