<svg width="252" height="73" viewBox="0 0 252 73" fill="none" xmlns="http://www.w3.org/2000/svg">
<rect x="0.416143" y="1.20167" width="251.111" height="70.5721" rx="15.9966" fill="#5D1725"/>
<rect x="0.416143" y="1.20167" width="251.111" height="70.5721" rx="15.9966" stroke="#DCDCDC" stroke-width="0.699473"/>
<path d="M85.0938 20.0103V51.5277H86.042V20.0103" fill="white"/>
<path d="M100.717 34.2793V29.8543L98.5951 33.7375L96.4729 29.8543V34.2793L97.1502 34.7309V36.0404H93.7637V34.7309L94.441 34.2793V28.0029L93.7637 27.5514V26.2419H96.6987L98.5951 29.7188L100.537 26.2419H103.427V27.5514L102.749 28.0029V34.2793L103.427 34.7309V36.0404H100.04V34.7309L100.717 34.2793Z" fill="white"/>
<path d="M108.89 36.04H105.277V34.7305L105.955 34.279V28.0026L105.277 27.551V26.2416H108.89V27.551L108.212 28.0026V34.279L108.89 34.7305V36.04Z" fill="white"/>
<path d="M117.062 27.6865L117.197 27.822V28.9057H114.985V28.4541L114.714 28.2284H113.179L112.908 28.4541V29.8539L112.953 29.899H115.978L117.017 30.9827L117.152 31.1182V34.279L115.662 35.9497H112.185L110.831 34.4144L110.695 34.279V32.9244H112.908V33.692L113.179 34.0532H114.669L114.985 33.692V31.8407L114.94 31.7955H111.824L110.74 30.486V27.8671L112.05 26.4222L112.185 26.2416H115.707L117.062 27.6865Z" fill="white"/>
<path d="M125.371 27.6865L125.506 27.822V28.9057H123.294V28.4541L123.023 28.2284H121.487L121.216 28.4541V29.8539L121.262 29.899H124.287L125.325 30.9827L125.461 31.1182V34.279L123.971 35.9497H120.494L119.139 34.4144L119.004 34.279V32.9244H121.216V33.692L121.487 34.0532H122.977L123.294 33.692V31.8407L123.248 31.7955H120.133L119.049 30.486V27.8671L120.359 26.4222L120.494 26.2416H124.016L125.371 27.6865Z" fill="white"/>
<path d="M130.927 36.04H127.314V34.7305L127.992 34.279V28.0026L127.314 27.551V26.2416H130.927V27.551L130.249 28.0026V34.279L130.927 34.7305V36.04Z" fill="white"/>
<path d="M139.142 27.6865L139.278 27.822V28.9057H137.065V28.4541L136.794 28.2284H135.259L134.988 28.4541V29.8539L135.033 29.899H138.058L139.097 30.9827L139.232 31.1182V34.279L137.742 35.9497H134.265L132.911 34.4144L132.775 34.279V32.9244H134.988V33.692L135.259 34.0532H136.749L137.065 33.692V31.8407L137.02 31.7955H133.904L132.775 30.486V27.8671L134.085 26.4222L134.22 26.2416H137.742L139.142 27.6865Z" fill="white"/>
<path d="M147.453 27.6865L147.588 27.822V28.9057H145.376V28.4541L145.105 28.2284H143.569L143.298 28.4541V29.8539L143.344 29.899H146.369L147.407 30.9827L147.543 31.1182V34.279L146.053 35.9497H142.576L141.221 34.4144L141.086 34.279V32.9244H143.298V33.692L143.615 34.0984H145.105L145.421 33.7371V31.8407L145.376 31.7955H142.26L141.176 30.486V27.8671L142.486 26.4222L142.621 26.2416H146.143L147.453 27.6865Z" fill="white"/>
<path d="M153.007 36.04H149.395V34.7305L150.072 34.279V28.0026L149.395 27.551V26.2416H153.007V27.551L152.33 28.0026V34.279L153.007 34.7305V36.04Z" fill="white"/>
<path d="M161.811 27.7317L161.947 27.8671V31.0279L160.592 32.4728L160.457 32.6534H157.792V34.279L158.515 34.7305V36.04H154.857V34.7305L155.535 34.279V28.0026L154.857 27.551V26.2416H160.411L161.811 27.7317ZM159.734 28.4993L159.508 28.2284H157.792V30.6667H159.508L159.734 30.3957V28.4993Z" fill="white"/>
<path d="M170.436 27.7317L170.572 27.8671V31.0279L169.217 32.4728L169.082 32.6534H166.417V34.279L167.14 34.7305V36.04H163.482V34.7305L164.16 34.279V28.0026L163.482 27.551V26.2416H169.036L170.436 27.7317ZM168.359 28.4993L168.133 28.2284H166.417V30.6667H168.133L168.359 30.3957V28.4993Z" fill="white"/>
<path d="M175.72 36.04H172.107V34.7305L172.785 34.279V28.0026L172.107 27.551V26.2416H175.72V27.551L175.042 28.0026V34.279L175.72 34.7305V36.04Z" fill="white"/>
<path d="M188.767 27.6865L188.903 27.822V28.9057H186.69V28.4541L186.419 28.2284H184.884L184.613 28.4541V29.8539L184.658 29.899H187.683L188.722 30.9827L188.857 31.1182V34.279L187.367 35.9497H183.89L182.536 34.4144L182.4 34.279V32.9244H184.613V33.692L184.884 34.0532H186.374L186.69 33.692V31.8407L186.645 31.7955H183.529L182.446 30.486V27.8671L183.755 26.4222L183.89 26.2416H187.412L188.767 27.6865Z" fill="white"/>
<path d="M190.303 26.1964H198.16V29.312H196.353V28.2283H195.315V34.279L195.992 34.7305V36.04H192.425V34.7305L193.102 34.279V28.2283H192.109V29.312H190.303V26.1964Z" fill="white"/>
<path d="M206.198 34.7305V36.04H202.766V34.7305L203.444 34.3241L203.037 32.9695H200.734L200.283 34.3241L200.96 34.7305V36.04H197.709V34.7757L198.341 34.279L200.734 26.6028L200.825 26.2416H203.082L205.475 34.279L206.198 34.7305ZM202.631 31.6601L201.908 29.2217L201.141 31.6601H202.631Z" fill="white"/>
<path d="M205.654 26.1964H213.511V29.312H211.705V28.2283H210.666V34.279L211.344 34.7305V36.04H207.777V34.7305L208.454 34.279V28.2283H207.46V29.312H205.654V26.1964Z" fill="white"/>
<path d="M214.957 26.1964H222.137V29.2669H219.924V28.2283H217.892V30.1248H220.24V31.9761H217.892V34.0532H219.924V33.3307H222.137V36.04H214.957V34.7305L215.634 34.279V28.0026L214.957 27.551V26.1964Z" fill="white"/>
<path d="M122.299 40.1941V42.9033C122.299 43.0388 122.299 43.1743 122.299 43.3097C122.299 43.4 122.299 43.4903 122.344 43.5355C122.344 43.6709 122.435 43.7613 122.48 43.8516C122.66 44.0773 122.886 44.1676 123.157 44.1676C123.473 44.1676 123.699 44.0773 123.88 43.8516C123.97 43.7613 124.015 43.6258 124.015 43.5355C124.015 43.4903 124.015 43.4 124.06 43.3097C124.06 43.2194 124.06 43.0839 124.06 42.9485V40.2392H125.37V43.1291C125.37 43.5355 125.325 43.8516 125.234 44.1225C125.144 44.3483 125.008 44.6192 124.783 44.7998C124.376 45.161 123.834 45.3868 123.202 45.3868C122.48 45.3868 121.938 45.2062 121.577 44.7998C121.396 44.6192 121.261 44.3934 121.216 44.1676C121.125 43.8967 121.08 43.5806 121.08 43.1743V40.2844H122.299V40.1941Z" fill="white"/>
<path d="M129.93 45.161V40.1941H131.239L133.632 43.2194V40.1941H134.942V45.161H133.632L131.239 42.1357V45.161H129.93Z" fill="white"/>
<path d="M140.766 40.1941V45.161H139.457V40.1941H140.766Z" fill="white"/>
<path d="M146.232 40.1941L147.451 43.2194L148.67 40.1941H150.07L147.947 45.161H146.954L144.877 40.1941H146.232Z" fill="white"/>
<path d="M156.933 41.2778H155.397V42.0905H156.842V43.1742H155.397V44.0322H156.933V45.1159H154.088V40.1489H156.933V41.2778Z" fill="white"/>
<path d="M163.839 43.1291L165.42 45.161H163.794L162.575 43.2646V45.161H161.266V40.1941H163.298C163.885 40.1941 164.336 40.3747 164.607 40.7359C164.833 41.0069 164.968 41.3681 164.968 41.7293C164.968 42.0906 164.878 42.4066 164.697 42.6324C164.472 42.9033 164.201 43.0388 163.839 43.1291ZM162.575 42.4066H162.801C163.072 42.4066 163.252 42.3615 163.388 42.226C163.523 42.1357 163.614 41.9551 163.614 41.7745C163.614 41.5939 163.523 41.4132 163.388 41.3229C163.252 41.2326 163.072 41.1423 162.801 41.1423H162.575V42.4066Z" fill="white"/>
<path d="M172.737 40.465L172.24 41.4584C171.969 41.2326 171.698 41.1423 171.382 41.1423C171.201 41.1423 171.111 41.1874 170.976 41.2778C170.885 41.3681 170.795 41.4584 170.795 41.5938C170.795 41.7293 170.885 41.8196 171.021 41.9099C171.111 41.9551 171.292 42.0454 171.698 42.1357C172.15 42.2711 172.421 42.4518 172.646 42.6324C172.827 42.8581 172.917 43.1291 172.917 43.4903C172.917 44.0321 172.737 44.4837 172.421 44.7998C172.104 45.1158 171.608 45.2513 170.976 45.2513C170.343 45.2513 169.802 45.0707 169.26 44.7095L169.802 43.6709C170.163 43.987 170.569 44.1676 170.93 44.1676C171.021 44.1676 171.111 44.1676 171.201 44.1224C171.292 44.0773 171.337 44.0773 171.382 44.0321C171.427 43.987 171.472 43.9418 171.517 43.8967C171.563 43.8515 171.563 43.7612 171.563 43.7161C171.563 43.5806 171.517 43.4903 171.382 43.4C171.292 43.3097 171.066 43.2194 170.75 43.1291C170.253 42.9936 169.937 42.8581 169.802 42.7227C169.531 42.4969 169.395 42.1808 169.395 41.7293C169.395 41.2326 169.531 40.8262 169.847 40.5101C170.163 40.1941 170.569 40.0586 171.066 40.0586C171.698 40.0586 172.24 40.1941 172.737 40.465Z" fill="white"/>
<path d="M178.606 40.1941V45.161H177.297V40.1941H178.606Z" fill="white"/>
<path d="M185.018 41.2778V45.161H183.708V41.2778H182.67V40.1941H186.102V41.2778H185.018Z" fill="white"/>
<path d="M191.746 42.7679L189.939 40.1941H191.475L192.423 41.5487L193.326 40.1941H194.906L193.055 42.7679V45.161H191.746V42.7679Z" fill="white"/>
<path d="M70.6884 29.4474C73.0815 30.3505 75.3392 31.5245 77.4163 32.8791L75.8811 36.1753L77.7324 42.0905C76.3326 41.1874 74.9329 40.3747 73.6685 39.7425V42.9936C72.7203 42.4517 71.7269 41.9099 70.6432 41.4583V42.813L72.0882 44.9804V47.9605H62.4252V39.1103C62.064 39.0652 61.7027 39.02 61.3867 38.9749L57.5937 44.9352L53.846 38.9749C53.4847 39.02 53.1235 39.0652 52.8074 39.1103V47.9605H43.0993V44.9804L44.5442 42.813V41.4583C43.5057 41.9099 42.4672 42.4517 41.5189 42.9936V39.7425C40.2546 40.3747 38.8549 41.1874 37.4551 42.0905L39.3064 36.1753L37.7712 32.8791C39.8482 31.5245 42.1059 30.3505 44.4991 29.4474V28.7249L43.0542 26.4221V23.5322H52.1301L55.6521 28.9959C56.2843 28.9507 56.9164 28.9507 57.5486 28.9507C58.1807 28.9507 58.8129 28.9507 59.4451 28.9959L62.9671 23.5322H72.043V26.4221L70.5981 28.7249V29.4474H70.6884Z" fill="white"/>
<path d="M44.499 30.486C42.5122 31.2536 40.7061 32.1567 38.9902 33.2404L40.2997 36.1302L39.1257 39.9231C39.8933 39.4716 40.7061 39.0652 41.4737 38.6588V33.0146C42.3768 32.563 43.7314 31.8857 44.499 31.5697V30.486Z" fill="#5D1725"/>
<path d="M57.5929 37.7557C62.6502 37.7557 68.0235 39.0652 72.6292 41.368V33.6467C68.0235 31.2536 62.6502 29.9441 57.5929 29.9441C52.5357 29.9441 47.1623 31.2536 42.5566 33.6467V41.3229C47.1172 39.02 52.5357 37.7557 57.5929 37.7557Z" fill="#5D1725"/>
<path d="M70.6875 30.486C72.6743 31.2536 74.4804 32.1567 76.1963 33.2404L74.8868 36.1302L76.0608 39.9231C75.2932 39.4716 74.4804 39.0652 73.7128 38.6588V33.0146C72.8097 32.563 71.4551 31.8857 70.6875 31.5697V30.486Z" fill="#5D1725"/>
<path d="M54.7498 32.7437C54.4337 32.7888 54.1177 32.7888 53.8016 32.834V32.2018L52.763 32.2921V35.9496L53.2146 35.9045V36.8527C52.4921 36.943 51.7697 37.0785 51.0923 37.2139V36.2657L51.5439 36.1754V32.5179L50.5505 32.6985V33.3307C50.2344 33.3758 49.9183 33.4661 49.6474 33.5565V31.9761C51.3181 31.5697 53.034 31.2536 54.7498 31.1181V32.7437ZM48.8798 33.5565C48.4734 33.6468 48.1122 33.7822 47.7058 33.9177V33.5113L46.0351 34.0983V35.3626C46.0351 35.3626 47.5703 34.8208 48.2025 34.595L48.8798 35.0465V36.8527L47.9316 38.0718C47.2091 38.2976 46.4866 38.5685 45.7642 38.8395C45.4933 38.6589 45.1772 38.4782 44.9062 38.2976V37.6203C45.2675 37.4397 45.6739 37.3042 46.0351 37.1688V37.8461L46.2157 37.8009C46.6673 37.6203 47.7509 37.2591 47.7509 37.2591V35.6335C47.7509 35.6335 46.1706 36.1754 45.5384 36.4012L44.9062 35.9948V34.5047L45.8093 33.2404C46.5318 32.9695 47.2543 32.6985 47.9767 32.4728C48.2928 32.6534 48.5637 32.8791 48.8798 33.0598V33.5565ZM64.7288 33.4661C64.4128 33.3758 64.0967 33.3307 63.8258 33.2855V32.6534L62.7872 32.4276V36.0851L63.2388 36.1754V37.1236C62.5163 36.9882 61.7938 36.8978 61.0714 36.8075V35.8593L61.5229 35.9045V32.247L60.5295 32.1115V32.7437C60.2134 32.6985 59.8974 32.6985 59.5813 32.6534V31.0278C61.2971 31.1633 63.013 31.3891 64.6837 31.7954V33.4661H64.7288ZM67.2123 33.4661V34.8208C67.2123 34.8208 68.296 35.182 68.7927 35.3626V36.2205C68.3412 36.0399 67.2123 35.6787 67.2123 35.6787V37.1236L68.883 37.7106V37.3042C69.2442 37.4397 69.6506 37.6203 70.0118 37.7558V39.1104C68.5669 38.5234 67.0768 37.9815 65.5416 37.6203V36.6721L66.0383 36.8075V33.1501L65.5416 33.0146V32.0664C67.0317 32.4728 68.5669 32.9695 70.0118 33.6016V34.8659C69.6506 34.6853 69.2442 34.5498 68.883 34.4144V34.0531L67.2123 33.4661ZM57.143 32.2018L56.5108 33.9628H57.73L57.143 32.2018ZM59.9425 36.6721C59.2652 36.6269 58.5879 36.5818 57.9106 36.5818V35.6335H58.3621L58.0461 34.7756H56.1947L55.8787 35.6335H56.3302V36.5818C55.698 36.5818 55.0207 36.6269 54.3886 36.7172V35.769L54.8401 35.7238L56.5108 31.0278C56.9624 31.0278 57.3687 31.0278 57.8203 31.0278L59.4458 35.7238C59.4458 35.7238 59.8071 35.769 59.9425 35.769V36.6721Z" fill="white"/>
<path d="M196.894 43.6709V43.9418H196.397V45.2964H196.081V43.9418H195.539V43.6709H196.894ZM198.655 45.2513L198.61 44.303C198.61 44.1676 198.61 44.0321 198.61 43.8515C198.564 43.987 198.519 44.1676 198.474 44.3482L198.203 45.2513H197.797L197.526 44.3482C197.481 44.2127 197.436 44.0321 197.436 43.8967C197.436 44.0321 197.436 44.2127 197.436 44.3482L197.39 45.2964H197.074L197.21 43.6709H197.706L197.977 44.4385C198.023 44.574 198.023 44.6643 198.068 44.8449C198.113 44.7094 198.158 44.574 198.158 44.4385L198.429 43.6257H198.88L199.016 45.2513H198.655Z" fill="#772124"/>
</svg>
