<svg width="217" height="38" viewBox="0 0 217 38" fill="none" xmlns="http://www.w3.org/2000/svg">
<path d="M56.4285 0.585815V37.3922H57.5358V0.585815" fill="#5D1725"/>
<path d="M74.6734 17.2488V12.0811L72.1951 16.616L69.7167 12.0811V17.2488L70.5077 17.7761V19.3053H66.5529V17.7761L67.3438 17.2488V9.91912L66.5529 9.39181V7.86261H69.9804L72.1951 11.9229L74.4625 7.86261H77.8373V9.39181L77.0463 9.91912V17.2488L77.8373 17.7761V19.3053H73.8825V17.7761L74.6734 17.2488Z" fill="#5D1725"/>
<path d="M84.2178 19.3055H79.9993V17.7762L80.7902 17.2489V9.91931L79.9993 9.392V7.86279H84.2178V9.392L83.4268 9.91931V17.2489L84.2178 17.7762V19.3055Z" fill="#5D1725"/>
<path d="M93.7621 9.55019L93.9203 9.70838V10.9739H91.3365V10.4466L91.0201 10.183H89.2272L88.9108 10.4466V12.0813L88.9636 12.134H92.4966L93.7094 13.3996L93.8676 13.5578V17.2489L92.1275 19.2H88.0671L86.4852 17.4071L86.327 17.2489V15.667H88.9108V16.5634L89.2272 16.9853H90.9674L91.3365 16.5634V14.4015L91.2838 14.3487H87.6453L86.3798 12.8195V9.76111L87.909 8.07372L88.0671 7.86279H92.1802L93.7621 9.55019Z" fill="#5D1725"/>
<path d="M103.465 9.55019L103.623 9.70838V10.9739H101.039V10.4466L100.723 10.183H98.9298L98.6134 10.4466V12.0813L98.6661 12.134H102.199L103.412 13.3996L103.57 13.5578V17.2489L101.83 19.2H97.7697L96.1877 17.4071L96.0295 17.2489V15.667H98.6134V16.5634L98.9298 16.9853H100.67L101.039 16.5634V14.4015L100.986 14.3487H97.3478L96.0823 12.8195V9.76111L97.6115 8.07372L97.7697 7.86279H101.883L103.465 9.55019Z" fill="#5D1725"/>
<path d="M109.951 19.3055H105.732V17.7762L106.523 17.2489V9.91931L105.732 9.392V7.86279H109.951V9.392L109.16 9.91931V17.2489L109.951 17.7762V19.3055Z" fill="#5D1725"/>
<path d="M119.548 9.55019L119.706 9.70838V10.9739H117.122V10.4466L116.806 10.183H115.013L114.696 10.4466V12.0813L114.749 12.134H118.282L119.495 13.3996L119.653 13.5578V17.2489L117.913 19.2H113.853L112.271 17.4071L112.113 17.2489V15.667H114.696V16.5634L115.013 16.9853H116.753L117.122 16.5634V14.4015L117.069 14.3487H113.431L112.113 12.8195V9.76111L113.642 8.07372L113.8 7.86279H117.913L119.548 9.55019Z" fill="#5D1725"/>
<path d="M129.25 9.55019L129.408 9.70838V10.9739H126.825V10.4466L126.508 10.183H124.715L124.399 10.4466V12.0813L124.452 12.134H127.985L129.197 13.3996L129.356 13.5578V17.2489L127.615 19.2H123.555L121.973 17.4071L121.815 17.2489V15.667H124.399V16.5634L124.768 17.038H126.508L126.877 16.6162V14.4015L126.825 14.3487H123.186L121.921 12.8195V9.76111L123.45 8.07372L123.608 7.86279H127.721L129.25 9.55019Z" fill="#5D1725"/>
<path d="M135.736 19.3055H131.518V17.7762L132.309 17.2489V9.91931L131.518 9.392V7.86279H135.736V9.392L134.945 9.91931V17.2489L135.736 17.7762V19.3055Z" fill="#5D1725"/>
<path d="M146.019 9.60292L146.177 9.76111V13.4523L144.595 15.1397L144.437 15.3506H141.326V17.2489L142.169 17.7762V19.3055H137.898V17.7762L138.689 17.2489V9.91931L137.898 9.392V7.86279H144.384L146.019 9.60292ZM143.593 10.4994L143.329 10.183H141.326V13.0304H143.329L143.593 12.7141V10.4994Z" fill="#5D1725"/>
<path d="M156.09 9.60292L156.249 9.76111V13.4523L154.667 15.1397L154.508 15.3506H151.397V17.2489L152.241 17.7762V19.3055H147.97V17.7762L148.761 17.2489V9.91931L147.97 9.392V7.86279H154.456L156.09 9.60292ZM153.665 10.4994L153.401 10.183H151.397V13.0304H153.401L153.665 12.7141V10.4994Z" fill="#5D1725"/>
<path d="M162.26 19.3055H158.041V17.7762L158.832 17.2489V9.91931L158.041 9.392V7.86279H162.26V9.392L161.469 9.91931V17.2489L162.26 17.7762V19.3055Z" fill="#5D1725"/>
<path d="M177.499 9.55019L177.657 9.70838V10.9739H175.074V10.4466L174.757 10.183H172.964L172.648 10.4466V12.0813L172.701 12.134H176.234L177.446 13.3996L177.605 13.5578V17.2489L175.865 19.2H171.804L170.222 17.4071L170.064 17.2489V15.667H172.648V16.5634L172.964 16.9853H174.704L175.074 16.5634V14.4015L175.021 14.3487H171.382L170.117 12.8195V9.76111L171.646 8.07372L171.804 7.86279H175.917L177.499 9.55019Z" fill="#5D1725"/>
<path d="M179.292 7.81H188.467V11.4484H186.358V10.1829H185.145V17.2489L185.936 17.7762V19.3054H181.77V17.7762L182.561 17.2489V10.1829H181.401V11.4484H179.292V7.81Z" fill="#5D1725"/>
<path d="M197.853 17.7762V19.3055H193.846V17.7762L194.637 17.3017L194.162 15.7197H191.473L190.946 17.3017L191.737 17.7762V19.3055H187.94V17.829L188.678 17.2489L191.473 8.28464L191.578 7.86279H194.215L197.01 17.2489L197.853 17.7762ZM193.688 14.1905L192.844 11.343L191.948 14.1905H193.688Z" fill="#5D1725"/>
<path d="M197.221 7.81H206.396V11.4484H204.287V10.1829H203.074V17.2489L203.865 17.7762V19.3054H199.699V17.7762L200.49 17.2489V10.1829H199.33V11.4484H197.221V7.81Z" fill="#5D1725"/>
<path d="M208.083 7.81H216.468V11.3957H213.884V10.1829H211.511V12.3976H214.253V14.5596H211.511V16.9852H213.884V16.1415H216.468V19.3054H208.083V17.7762L208.874 17.2489V9.91924L208.083 9.39193V7.81Z" fill="#5D1725"/>
<path d="M99.8789 24.1566V27.3205C99.8789 27.4787 99.8789 27.6369 99.8789 27.7951C99.8789 27.9005 99.8789 28.006 99.9317 28.0587C99.9317 28.2169 100.037 28.3224 100.09 28.4278C100.301 28.6915 100.564 28.797 100.881 28.797C101.25 28.797 101.514 28.6915 101.725 28.4278C101.83 28.3224 101.883 28.1642 101.883 28.0587C101.883 28.006 101.883 27.9005 101.935 27.7951C101.935 27.6896 101.935 27.5314 101.935 27.3732V24.2093H103.465V27.5841C103.465 28.0587 103.412 28.4278 103.306 28.7442C103.201 29.0079 103.043 29.3243 102.779 29.5352C102.305 29.957 101.672 30.2207 100.934 30.2207C100.09 30.2207 99.4571 30.0098 99.0352 29.5352C98.8243 29.3243 98.6661 29.0606 98.6134 28.797C98.5079 28.4806 98.4552 28.1115 98.4552 27.6369V24.2621H99.8789V24.1566Z" fill="#5D1725"/>
<path d="M108.791 29.957V24.1566H110.32L113.114 27.6896V24.1566H114.644V29.957H113.114L110.32 26.4241V29.957H108.791Z" fill="#5D1725"/>
<path d="M121.446 24.1566V29.957H119.917V24.1566H121.446Z" fill="#5D1725"/>
<path d="M127.826 24.1566L129.25 27.6896L130.674 24.1566H132.309L129.83 29.957H128.67L126.245 24.1566H127.826Z" fill="#5D1725"/>
<path d="M140.324 25.4222H138.531V26.3713H140.218V27.6369H138.531V28.6388H140.324V29.9043H137.002V24.1039H140.324V25.4222Z" fill="#5D1725"/>
<path d="M148.392 27.5841L150.237 29.957H148.339L146.915 27.7423V29.957H145.386V24.1566H147.759C148.444 24.1566 148.972 24.3675 149.288 24.7894C149.552 25.1058 149.71 25.5276 149.71 25.9495C149.71 26.3713 149.604 26.7404 149.393 27.0041C149.13 27.3205 148.813 27.4787 148.392 27.5841ZM146.915 26.7404H147.179C147.495 26.7404 147.706 26.6877 147.864 26.5295C148.022 26.4241 148.128 26.2131 148.128 26.0022C148.128 25.7913 148.022 25.5804 147.864 25.4749C147.706 25.3694 147.495 25.264 147.179 25.264H146.915V26.7404Z" fill="#5D1725"/>
<path d="M158.78 24.473L158.2 25.6331C157.883 25.3694 157.567 25.264 157.198 25.264C156.987 25.264 156.881 25.3167 156.723 25.4222C156.618 25.5276 156.512 25.6331 156.512 25.7913C156.512 25.9495 156.618 26.0549 156.776 26.1604C156.881 26.2131 157.092 26.3186 157.567 26.424C158.094 26.5822 158.41 26.7932 158.674 27.0041C158.885 27.2677 158.991 27.5841 158.991 28.006C158.991 28.6388 158.78 29.1661 158.41 29.5352C158.041 29.9043 157.461 30.0625 156.723 30.0625C155.985 30.0625 155.352 29.8516 154.719 29.4297L155.352 28.2169C155.774 28.586 156.249 28.7969 156.67 28.7969C156.776 28.7969 156.881 28.7969 156.987 28.7442C157.092 28.6915 157.145 28.6915 157.198 28.6388C157.25 28.586 157.303 28.5333 157.356 28.4806C157.409 28.4278 157.409 28.3224 157.409 28.2696C157.409 28.1114 157.356 28.006 157.198 27.9005C157.092 27.7951 156.829 27.6896 156.459 27.5841C155.879 27.4259 155.51 27.2677 155.352 27.1095C155.036 26.8459 154.878 26.4768 154.878 25.9495C154.878 25.3694 155.036 24.8948 155.405 24.5257C155.774 24.1566 156.249 23.9984 156.829 23.9984C157.567 23.9984 158.2 24.1566 158.78 24.473Z" fill="#5D1725"/>
<path d="M165.635 24.1566V29.957H164.105V24.1566H165.635Z" fill="#5D1725"/>
<path d="M173.123 25.4222V29.957H171.593V25.4222H170.38V24.1566H174.388V25.4222H173.123Z" fill="#5D1725"/>
<path d="M180.979 27.1623L178.87 24.1566H180.663L181.77 25.7386L182.825 24.1566H184.671L182.509 27.1623V29.957H180.979V27.1623Z" fill="#5D1725"/>
<path d="M39.6072 11.6066C42.402 12.6613 45.0385 14.0323 47.4642 15.6142L45.6713 19.4636L47.8333 26.3714C46.1986 25.3167 44.564 24.3676 43.0875 23.6293V27.426C41.9801 26.7932 40.8201 26.1604 39.5545 25.6331V27.215L41.2419 29.7461V33.2264H29.9574V22.8911C29.5356 22.8384 29.1137 22.7856 28.7446 22.7329L24.3152 29.6934L19.9385 22.7329C19.5167 22.7856 19.0948 22.8384 18.7257 22.8911V33.2264H7.38851V29.7461L9.07591 27.215V25.6331C7.86309 26.1604 6.65028 26.7932 5.54292 27.426V23.6293C4.06645 24.3676 2.43178 25.3167 0.797119 26.3714L2.9591 19.4636L1.16624 15.6142C3.59187 14.0323 6.22843 12.6613 9.02318 11.6066V10.7629L7.33578 8.07365V4.69885H17.9347L22.0478 11.0793C22.786 11.0266 23.5242 11.0266 24.2625 11.0266C25.0007 11.0266 25.7389 11.0266 26.4772 11.0793L30.5902 4.69885H41.1892V8.07365L39.5018 10.7629V11.6066H39.6072Z" fill="#5D1725"/>
<path d="M9.02317 12.8195C6.70299 13.7159 4.59375 14.7705 2.58997 16.0361L4.11917 19.4109L2.74816 23.8403C3.64459 23.313 4.59375 22.8384 5.49018 22.3638V15.7724C6.5448 15.2451 8.12674 14.4541 9.02317 14.085V12.8195Z" fill="white"/>
<path d="M24.3152 21.3092C30.2211 21.3092 36.4961 22.8384 41.8747 25.5277V16.5107C36.4961 13.7159 30.2211 12.1867 24.3152 12.1867C18.4093 12.1867 12.1343 13.7159 6.75574 16.5107V25.475C12.0816 22.7857 18.4093 21.3092 24.3152 21.3092Z" fill="white"/>
<path d="M39.6072 12.8195C41.9274 13.7159 44.0367 14.7705 46.0404 16.0361L44.5112 19.4109L45.8822 23.8403C44.9858 23.313 44.0367 22.8384 43.1402 22.3638V15.7724C42.0856 15.2451 40.5037 14.4541 39.6072 14.085V12.8195Z" fill="white"/>
<path d="M20.9931 15.4561C20.624 15.5088 20.2549 15.5088 19.8858 15.5616V14.8233L18.673 14.9288V19.2L19.2003 19.1473V20.2546C18.3566 20.3601 17.5129 20.5183 16.7219 20.6765V19.5691L17.2492 19.4637V15.1925L16.0891 15.4034V16.1416C15.72 16.1944 15.3509 16.2998 15.0345 16.4053V14.5597C16.9856 14.0851 18.9893 13.716 20.9931 13.5578V15.4561ZM14.1381 16.4053C13.6635 16.5107 13.2417 16.6689 12.7671 16.8271V16.3525L10.816 17.038V18.5145C10.816 18.5145 12.6089 17.8817 13.3471 17.6181L14.1381 18.1454V20.2546L13.0307 21.6784C12.187 21.942 11.3433 22.2584 10.4996 22.5748C10.1832 22.3639 9.81413 22.153 9.49774 21.942V21.1511C9.91959 20.9402 10.3942 20.782 10.816 20.6238V21.4147L11.0269 21.362C11.5543 21.1511 12.8198 20.7292 12.8198 20.7292V18.8309C12.8198 18.8309 10.9742 19.4637 10.236 19.7273L9.49774 19.2528V17.5126L10.5524 16.0362C11.3961 15.7198 12.2398 15.4034 13.0835 15.1397C13.4526 15.3507 13.769 15.6143 14.1381 15.8252V16.4053ZM32.6467 16.2998C32.2776 16.1943 31.9085 16.1416 31.5921 16.0889V15.3507L30.3793 15.087V19.3582L30.9066 19.4637V20.571C30.0629 20.4128 29.2192 20.3074 28.3755 20.2019V19.0946L28.9028 19.1473V14.8761L27.7427 14.7179V15.4561C27.3736 15.4034 27.0045 15.4034 26.6354 15.3507V13.4523C28.6391 13.6105 30.6429 13.8742 32.594 14.3488V16.2998H32.6467ZM35.5469 16.2998V17.8817C35.5469 17.8817 36.8125 18.3036 37.3925 18.5145V19.5164C36.8652 19.3055 35.5469 18.8836 35.5469 18.8836V20.571L37.498 21.2565V20.782C37.9198 20.9402 38.3944 21.1511 38.8163 21.3093V22.8912C37.1289 22.2057 35.3887 21.5729 33.5959 21.1511V20.0437L34.1759 20.2019V15.9307L33.5959 15.7725V14.6651C35.336 15.1397 37.1289 15.7198 38.8163 16.458V17.9345C38.3944 17.7236 37.9198 17.5654 37.498 17.4072V16.9853L35.5469 16.2998ZM23.7879 14.8233L23.0496 16.8799H24.4734L23.7879 14.8233ZM27.0572 20.0437C26.2662 19.991 25.4753 19.9383 24.6843 19.9383V18.8309H25.2116L24.8425 17.829H22.6805L22.3114 18.8309H22.8387V19.9383C22.1005 19.9383 21.3095 19.991 20.5713 20.0965V18.9891L21.0986 18.9364L23.0496 13.4523C23.577 13.4523 24.0515 13.4523 24.5788 13.4523L26.4772 18.9364C26.4772 18.9364 26.899 18.9891 27.0572 18.9891V20.0437Z" fill="#5D1725"/>
</svg>
