<svg width="182" height="121" viewBox="0 0 182 121" fill="none" xmlns="http://www.w3.org/2000/svg">
<g filter="url(#filter0_d_514_4538)">
<rect x="26" y="17" width="139.94" height="79.5486" rx="15.5859" fill="white"/>
<rect x="26.3711" y="17.3711" width="139.198" height="78.8064" rx="15.2148" stroke="#E5E5E5" stroke-width="0.742188"/>
<g clip-path="url(#clip0_514_4538)">
<path d="M55.7127 45.9629V49.5442H64.3553C64.1258 51.5253 63.4375 53.0492 62.3667 54.0398C61.143 55.259 59.1544 56.6305 55.7127 56.6305C50.4353 56.6305 46.3053 52.3635 46.3053 47.1059C46.3053 41.8483 50.3589 37.5813 55.7127 37.5813C58.5426 37.5813 60.6841 38.7242 62.2138 40.172L64.7377 37.6575C62.5962 35.6001 59.6898 34 55.7127 34C48.4468 34 42.3281 39.8672 42.3281 47.1059C42.3281 54.3446 48.4468 60.2118 55.7127 60.2118C59.6133 60.2118 62.5962 58.9164 64.8907 56.5543C67.2617 54.1922 68.0265 50.8395 68.0265 48.1726C68.0265 47.3345 67.95 46.5725 67.8735 45.9629H55.7127Z" fill="#4285F4"/>
<path d="M78.734 42.9909C74.0685 42.9909 70.1678 46.5722 70.1678 51.4488C70.1678 56.3254 73.992 59.9067 78.734 59.9067C83.4759 59.9067 87.3001 56.4016 87.3001 51.525C87.3001 46.5722 83.4759 42.9909 78.734 42.9909ZM78.734 56.6302C76.1335 56.6302 73.9155 54.4967 73.9155 51.525C73.9155 48.4771 76.1335 46.4198 78.734 46.4198C81.3344 46.4198 83.5524 48.4771 83.5524 51.525C83.5524 54.4967 81.3344 56.6302 78.734 56.6302Z" fill="#EA4335"/>
<path d="M120.57 44.8959H120.417C119.576 43.9053 117.97 42.9909 115.905 42.9909C111.622 42.9909 107.95 46.6484 107.95 51.4488C107.95 56.173 111.622 59.9067 115.905 59.9067C117.97 59.9067 119.576 58.9923 120.417 58.0017H120.57V59.2209C120.57 62.4212 118.811 64.1737 116.058 64.1737C113.763 64.1737 112.386 62.5735 111.775 61.1258L108.562 62.4974C109.48 64.7071 112.004 67.5264 116.134 67.5264C120.494 67.5264 124.241 64.9357 124.241 58.6875V43.4481H120.723V44.8959H120.57ZM116.287 56.6302C113.687 56.6302 111.775 54.4205 111.775 51.525C111.775 48.5533 113.763 46.4198 116.287 46.4198C118.811 46.4198 120.8 48.6295 120.8 51.6012C120.876 54.4967 118.888 56.6302 116.287 56.6302Z" fill="#4285F4"/>
<path d="M97.7783 42.9909C93.1128 42.9909 89.2122 46.5722 89.2122 51.4488C89.2122 56.3254 93.0363 59.9067 97.7783 59.9067C102.52 59.9067 106.344 56.4016 106.344 51.525C106.344 46.5722 102.52 42.9909 97.7783 42.9909ZM97.7783 56.6302C95.1778 56.6302 92.9598 54.4967 92.9598 51.525C92.9598 48.4771 95.1778 46.4198 97.7783 46.4198C100.379 46.4198 102.597 48.4771 102.597 51.525C102.597 54.4967 100.379 56.6302 97.7783 56.6302Z" fill="#FBBC05"/>
<path d="M127.072 34.3809H130.743V59.9831H127.072V34.3809Z" fill="#34A853"/>
<path d="M142.062 56.6302C140.15 56.6302 138.85 55.792 137.932 54.0395L149.328 49.3915L148.946 48.4009C148.258 46.496 146.04 42.9909 141.68 42.9909C137.32 42.9909 133.649 46.4198 133.649 51.4488C133.649 56.173 137.244 59.9067 142.062 59.9067C145.963 59.9067 148.181 57.5445 149.175 56.173L146.269 54.2681C145.275 55.7158 143.975 56.6302 142.062 56.6302ZM141.833 46.1912C143.363 46.1912 144.663 46.9532 145.045 48.0199L137.397 51.2202C137.32 47.7151 139.921 46.1912 141.833 46.1912Z" fill="#EA4335"/>
</g>
<path d="M91.1925 75.4837H90.4944C90.4531 75.2829 90.3808 75.1065 90.2776 74.9545C90.1763 74.8025 90.0524 74.6749 89.906 74.5716C89.7615 74.4666 89.6011 74.3877 89.4247 74.3352C89.2483 74.2826 89.0643 74.2564 88.8729 74.2564C88.5239 74.2564 88.2076 74.3446 87.9243 74.521C87.6427 74.6974 87.4185 74.9573 87.2515 75.3007C87.0863 75.6442 87.0037 76.0655 87.0037 76.5647C87.0037 77.0639 87.0863 77.4852 87.2515 77.8286C87.4185 78.1721 87.6427 78.432 87.9243 78.6084C88.2076 78.7848 88.5239 78.873 88.8729 78.873C89.0643 78.873 89.2483 78.8468 89.4247 78.7942C89.6011 78.7417 89.7615 78.6638 89.906 78.5606C90.0524 78.4555 90.1763 78.3269 90.2776 78.1749C90.3808 78.021 90.4531 77.8446 90.4944 77.6457H91.1925C91.14 77.9403 91.0443 78.204 90.9054 78.4367C90.7665 78.6694 90.5938 78.8674 90.3874 79.0307C90.181 79.1921 89.9492 79.315 89.6921 79.3994C89.4369 79.4839 89.1638 79.5261 88.8729 79.5261C88.3812 79.5261 87.944 79.406 87.5611 79.1658C87.1783 78.9256 86.8771 78.584 86.6575 78.1411C86.4379 77.6982 86.3281 77.1727 86.3281 76.5647C86.3281 75.9566 86.4379 75.4312 86.6575 74.9883C86.8771 74.5454 87.1783 74.2038 87.5611 73.9636C87.944 73.7234 88.3812 73.6033 88.8729 73.6033C89.1638 73.6033 89.4369 73.6455 89.6921 73.7299C89.9492 73.8144 90.181 73.9383 90.3874 74.1015C90.5938 74.2629 90.7665 74.46 90.9054 74.6927C91.0443 74.9235 91.14 75.1872 91.1925 75.4837Z" fill="black"/>
<path d="M92.3206 79.4473V73.6821H95.8V74.3014H93.0188V76.2494H95.6199V76.8687H93.0188V78.828H95.8451V79.4473H92.3206Z" fill="black"/>
<path d="M97.0583 79.4473V73.6821H99.0064C99.4568 73.6821 99.8265 73.759 100.115 73.9129C100.404 74.0649 100.618 74.2742 100.757 74.5407C100.896 74.8072 100.966 75.1103 100.966 75.4499C100.966 75.7896 100.896 76.0908 100.757 76.3536C100.618 76.6163 100.405 76.8227 100.118 76.9729C99.8312 77.1211 99.4643 77.1953 99.0176 77.1953H97.4412V76.5647H98.9951C99.3029 76.5647 99.5506 76.5197 99.7383 76.4296C99.9278 76.3395 100.065 76.2119 100.149 76.0467C100.236 75.8797 100.279 75.6808 100.279 75.4499C100.279 75.2191 100.236 75.0174 100.149 74.8447C100.063 74.672 99.925 74.5388 99.7354 74.445C99.5459 74.3493 99.2954 74.3014 98.9838 74.3014H97.7565V79.4473H97.0583ZM99.772 76.8575L101.191 79.4473H100.38L98.9838 76.8575H99.772Z" fill="black"/>
<path d="M101.814 74.3014V73.6821H106.138V74.3014H104.325V79.4473H103.627V74.3014H101.814Z" fill="black"/>
<path d="M107.913 73.6821V79.4473H107.215V73.6821H107.913Z" fill="black"/>
<path d="M109.313 79.4473V73.6821H112.77V74.3014H110.011V76.2494H112.511V76.8687H110.011V79.4473H109.313Z" fill="black"/>
<path d="M114.664 73.6821V79.4473H113.965V73.6821H114.664Z" fill="black"/>
<path d="M120.703 75.4837H120.004C119.963 75.2829 119.891 75.1065 119.788 74.9545C119.686 74.8025 119.562 74.6749 119.416 74.5716C119.272 74.4666 119.111 74.3877 118.935 74.3352C118.758 74.2826 118.574 74.2564 118.383 74.2564C118.034 74.2564 117.718 74.3446 117.434 74.521C117.153 74.6974 116.929 74.9573 116.762 75.3007C116.596 75.6442 116.514 76.0655 116.514 76.5647C116.514 77.0639 116.596 77.4852 116.762 77.8286C116.929 78.1721 117.153 78.432 117.434 78.6084C117.718 78.7848 118.034 78.873 118.383 78.873C118.574 78.873 118.758 78.8468 118.935 78.7942C119.111 78.7417 119.272 78.6638 119.416 78.5606C119.562 78.4555 119.686 78.3269 119.788 78.1749C119.891 78.021 119.963 77.8446 120.004 77.6457H120.703C120.65 77.9403 120.554 78.204 120.415 78.4367C120.277 78.6694 120.104 78.8674 119.897 79.0307C119.691 79.1921 119.459 79.315 119.202 79.3994C118.947 79.4839 118.674 79.5261 118.383 79.5261C117.891 79.5261 117.454 79.406 117.071 79.1658C116.688 78.9256 116.387 78.584 116.168 78.1411C115.948 77.6982 115.838 77.1727 115.838 76.5647C115.838 75.9566 115.948 75.4312 116.168 74.9883C116.387 74.5454 116.688 74.2038 117.071 73.9636C117.454 73.7234 117.891 73.6033 118.383 73.6033C118.674 73.6033 118.947 73.6455 119.202 73.7299C119.459 73.8144 119.691 73.9383 119.897 74.1015C120.104 74.2629 120.277 74.46 120.415 74.6927C120.554 74.9235 120.65 75.1872 120.703 75.4837Z" fill="black"/>
<path d="M122.067 79.4473H121.335L123.452 73.6821H124.173L126.29 79.4473H125.558L123.835 74.5942H123.79L122.067 79.4473ZM122.337 77.1953H125.288V77.8146H122.337V77.1953Z" fill="black"/>
<path d="M126.199 74.3014V73.6821H130.523V74.3014H128.71V79.4473H128.012V74.3014H126.199Z" fill="black"/>
<path d="M132.298 73.6821V79.4473H131.6V73.6821H132.298Z" fill="black"/>
<path d="M138.563 76.5647C138.563 77.1727 138.453 77.6982 138.233 78.1411C138.014 78.584 137.712 78.9256 137.33 79.1658C136.947 79.406 136.509 79.5261 136.018 79.5261C135.526 79.5261 135.089 79.406 134.706 79.1658C134.323 78.9256 134.022 78.584 133.802 78.1411C133.583 77.6982 133.473 77.1727 133.473 76.5647C133.473 75.9566 133.583 75.4312 133.802 74.9883C134.022 74.5454 134.323 74.2038 134.706 73.9636C135.089 73.7234 135.526 73.6033 136.018 73.6033C136.509 73.6033 136.947 73.7234 137.33 73.9636C137.712 74.2038 138.014 74.5454 138.233 74.9883C138.453 75.4312 138.563 75.9566 138.563 76.5647ZM137.887 76.5647C137.887 76.0655 137.803 75.6442 137.636 75.3007C137.471 74.9573 137.247 74.6974 136.964 74.521C136.682 74.3446 136.367 74.2564 136.018 74.2564C135.669 74.2564 135.352 74.3446 135.069 74.521C134.788 74.6974 134.563 74.9573 134.396 75.3007C134.231 75.6442 134.149 76.0655 134.149 76.5647C134.149 77.0639 134.231 77.4852 134.396 77.8286C134.563 78.1721 134.788 78.432 135.069 78.6084C135.352 78.7848 135.669 78.873 136.018 78.873C136.367 78.873 136.682 78.7848 136.964 78.6084C137.247 78.432 137.471 78.1721 137.636 77.8286C137.803 77.4852 137.887 77.0639 137.887 76.5647Z" fill="black"/>
<path d="M144.308 73.6821V79.4473H143.632L140.491 74.9207H140.435V79.4473H139.736V73.6821H140.412L143.565 78.2199H143.621V73.6821H144.308Z" fill="black"/>
<path d="M148.858 75.1234C148.824 74.8381 148.687 74.6167 148.447 74.459C148.207 74.3014 147.912 74.2226 147.563 74.2226C147.308 74.2226 147.084 74.2639 146.893 74.3464C146.703 74.429 146.555 74.5426 146.448 74.6871C146.343 74.8316 146.291 74.9958 146.291 75.1797C146.291 75.3336 146.327 75.4659 146.4 75.5766C146.475 75.6855 146.571 75.7765 146.687 75.8497C146.804 75.921 146.926 75.9801 147.053 76.027C147.181 76.0721 147.298 76.1087 147.405 76.1368L147.991 76.2944C148.141 76.3339 148.308 76.3883 148.492 76.4577C148.678 76.5272 148.855 76.6219 149.024 76.742C149.195 76.8603 149.335 77.0123 149.446 77.1981C149.557 77.3839 149.612 77.6119 149.612 77.8821C149.612 78.1937 149.531 78.4752 149.367 78.7266C149.206 78.9781 148.97 79.178 148.658 79.3262C148.348 79.4745 147.972 79.5486 147.529 79.5486C147.116 79.5486 146.759 79.482 146.457 79.3488C146.156 79.2155 145.92 79.0297 145.747 78.7914C145.576 78.553 145.48 78.2762 145.457 77.961H146.178C146.197 78.1786 146.27 78.3588 146.398 78.5014C146.527 78.6422 146.69 78.7473 146.887 78.8167C147.086 78.8843 147.3 78.9181 147.529 78.9181C147.796 78.9181 148.035 78.8749 148.247 78.7886C148.459 78.7004 148.627 78.5784 148.751 78.4226C148.875 78.265 148.937 78.0811 148.937 77.8709C148.937 77.6794 148.883 77.5237 148.776 77.4036C148.669 77.2835 148.529 77.1859 148.354 77.1108C148.179 77.0357 147.991 76.9701 147.788 76.9138L147.079 76.7111C146.628 76.5816 146.272 76.3967 146.009 76.1565C145.746 75.9163 145.615 75.6019 145.615 75.2135C145.615 74.8907 145.702 74.6092 145.877 74.369C146.053 74.1269 146.29 73.9392 146.586 73.806C146.885 73.6708 147.218 73.6033 147.585 73.6033C147.957 73.6033 148.287 73.6699 148.576 73.8031C148.865 73.9345 149.094 74.1147 149.263 74.3436C149.434 74.5726 149.524 74.8325 149.533 75.1234H148.858Z" fill="black"/>
</g>
<defs>
<filter id="filter0_d_514_4538" x="0.6" y="0.6" width="180.74" height="120.349" filterUnits="userSpaceOnUse" color-interpolation-filters="sRGB">
<feFlood flood-opacity="0" result="BackgroundImageFix"/>
<feColorMatrix in="SourceAlpha" type="matrix" values="0 0 0 0 0 0 0 0 0 0 0 0 0 0 0 0 0 0 127 0" result="hardAlpha"/>
<feOffset dx="-5" dy="4"/>
<feGaussianBlur stdDeviation="10.2"/>
<feComposite in2="hardAlpha" operator="out"/>
<feColorMatrix type="matrix" values="0 0 0 0 0 0 0 0 0 0 0 0 0 0 0 0 0 0 0.11 0"/>
<feBlend mode="normal" in2="BackgroundImageFix" result="effect1_dropShadow_514_4538"/>
<feBlend mode="normal" in="SourceGraphic" in2="effect1_dropShadow_514_4538" result="shape"/>
</filter>
<clipPath id="clip0_514_4538">
<rect width="107" height="33.5267" fill="white" transform="translate(42.3281 34)"/>
</clipPath>
</defs>
</svg>
