<svg width="175" height="56" viewBox="0 0 175 56" fill="none" xmlns="http://www.w3.org/2000/svg">
<path d="M165.88 43.8668C166.69 48.7245 171.262 53.2853 173.953 54.3617C163.619 54.3617 157 50.8634 155.385 48.7106L147.312 51.1325L148.119 26.9136H165.073V30.1428V33.372V34.1793C165.073 35.7939 165.073 39.0231 165.88 43.8668Z" fill="#0078FF"/>
<rect x="0.191772" y="0.888184" width="167.75" height="52.6044" rx="26.3022" fill="#0078FF"/>
<path opacity="0.9" d="M21.7428 36.1904V19.126H23.8714V36.1904H21.7428ZM32.3386 36.4151C29.5005 36.4151 27.5492 35.0433 27.3127 32.9384H29.4177C29.7606 34.0027 30.7776 34.7004 32.4096 34.7004C34.1243 34.7004 35.3423 33.8844 35.3423 32.7255V32.7019C35.3423 31.8386 34.6919 31.2355 33.1191 30.8571L31.1442 30.384C28.7554 29.8164 27.6793 28.7757 27.6793 26.9428V26.9309C27.6793 24.8141 29.7133 23.2177 32.4214 23.2177C35.094 23.2177 36.9506 24.554 37.2344 26.6353H35.2123C34.9403 25.6301 33.9469 24.9324 32.4096 24.9324C30.8959 24.9324 29.7843 25.7129 29.7843 26.8363V26.86C29.7843 27.7233 30.4229 28.2672 31.9247 28.6338L33.8878 29.1069C36.2884 29.6863 37.4473 30.727 37.4473 32.5481V32.5718C37.4473 34.8423 35.2359 36.4151 32.3386 36.4151ZM48.5398 20.9826C47.7593 20.9826 47.1207 20.344 47.1207 19.5635C47.1207 18.783 47.7593 18.1445 48.5398 18.1445C49.3203 18.1445 49.9589 18.783 49.9589 19.5635C49.9589 20.344 49.3203 20.9826 48.5398 20.9826ZM47.4991 36.1904V23.4424H49.5568V36.1904H47.4991ZM57.9648 36.285C55.3395 36.285 54.2397 35.3153 54.2397 32.8792V25.1453H52.2294V23.4424H54.2397V20.143H56.3684V23.4424H59.1592V25.1453H56.3684V32.3589C56.3684 33.8608 56.8887 34.4639 58.2132 34.4639C58.5798 34.4639 58.7808 34.4521 59.1592 34.4166V36.1668C58.7572 36.2377 58.3669 36.285 57.9648 36.285ZM74.2843 36.4151C70.6538 36.4151 68.4069 33.9081 68.4069 29.8282V29.8046C68.4069 25.7129 70.6538 23.2177 74.2843 23.2177C77.9147 23.2177 80.1616 25.7129 80.1616 29.8046V29.8282C80.1616 33.9081 77.9147 36.4151 74.2843 36.4151ZM74.2843 34.594C76.6967 34.594 78.0566 32.8319 78.0566 29.8282V29.8046C78.0566 26.789 76.6967 25.0388 74.2843 25.0388C71.8718 25.0388 70.5119 26.789 70.5119 29.8046V29.8282C70.5119 32.8319 71.8718 34.594 74.2843 34.594ZM83.3545 36.1904V23.4424H85.4122V25.3581H85.6014C86.24 24.01 87.4344 23.2177 89.3147 23.2177C92.1765 23.2177 93.773 24.9087 93.773 27.9361V36.1904H91.7153V28.4328C91.7153 26.1386 90.7692 25.0388 88.7352 25.0388C86.7012 25.0388 85.4122 26.4106 85.4122 28.6457V36.1904H83.3545ZM97.6163 36.1904V18.381H99.674V36.1904H97.6163ZM104.712 20.9826C103.931 20.9826 103.293 20.344 103.293 19.5635C103.293 18.783 103.931 18.1445 104.712 18.1445C105.492 18.1445 106.131 18.783 106.131 19.5635C106.131 20.344 105.492 20.9826 104.712 20.9826ZM103.671 36.1904V23.4424H105.729V36.1904H103.671ZM109.608 36.1904V23.4424H111.665V25.3581H111.854C112.493 24.01 113.687 23.2177 115.568 23.2177C118.429 23.2177 120.026 24.9087 120.026 27.9361V36.1904H117.968V28.4328C117.968 26.1386 117.022 25.0388 114.988 25.0388C112.954 25.0388 111.665 26.4106 111.665 28.6457V36.1904H109.608ZM128.954 36.4151C125.312 36.4151 123.112 33.8608 123.112 29.8637V29.8519C123.112 25.9139 125.359 23.2177 128.824 23.2177C132.289 23.2177 134.394 25.7957 134.394 29.6035V30.4077H125.217C125.277 33.0448 126.731 34.5821 129.002 34.5821C130.728 34.5821 131.792 33.7662 132.135 32.9975L132.183 32.8911H134.24L134.217 32.9857C133.779 34.7122 131.958 36.4151 128.954 36.4151ZM128.812 25.0507C126.92 25.0507 125.478 26.3396 125.253 28.7639H132.301C132.088 26.245 130.693 25.0507 128.812 25.0507ZM140.319 30.9162V29.8282C140.307 28.2672 141.064 27.2029 142.684 26.2332C144.056 25.3936 144.588 24.6486 144.588 23.3951V23.3714C144.588 21.9168 143.453 20.8407 141.691 20.8407C139.905 20.8407 138.77 21.8932 138.651 23.5724L138.628 23.5843L136.617 23.5961V23.5724C136.747 21.0299 138.45 18.9959 141.773 18.9959C144.753 18.9959 146.787 20.8407 146.787 23.265V23.2886C146.787 25.1334 145.83 26.4461 144.316 27.3567C142.814 28.2436 142.388 28.9058 142.388 30.1475V30.9162H140.319ZM141.513 36.4033C140.555 36.4033 139.869 35.7174 139.869 34.7595C139.869 33.7898 140.555 33.1039 141.513 33.1039C142.471 33.1039 143.145 33.7898 143.145 34.7595C143.145 35.7174 142.471 36.4033 141.513 36.4033Z" fill="white"/>
</svg>
