<svg width="212" height="83" viewBox="0 0 212 83" fill="none" xmlns="http://www.w3.org/2000/svg">
<g filter="url(#filter0_d_55_62)">
<rect x="6.91829" y="3.91829" width="197.957" height="69.5654" rx="13.7976" stroke="#7DB022" stroke-width="2.16342" shape-rendering="crispEdges"/>
<g filter="url(#filter1_ii_55_62)">
<rect x="8" y="5" width="195.794" height="67.4019" rx="12.7158" fill="url(#paint0_linear_55_62)"/>
<g filter="url(#filter2_di_55_62)">
<path d="M36.1144 43.6187H30.5444C30.001 43.6187 29.6002 43.3764 29.3421 42.8919C29.084 42.4073 29.1179 41.9387 29.444 41.4858L42.6897 22.3848C42.9252 22.0588 43.2241 21.8346 43.5863 21.7123C43.9486 21.5901 44.3154 21.6014 44.6867 21.7463C45.0581 21.8912 45.3433 22.1312 45.5426 22.4663C45.7418 22.8014 45.8143 23.1637 45.76 23.5532L44.2656 35.4675H51.1533C51.733 35.4675 52.1428 35.7256 52.3828 36.2419C52.6228 36.7581 52.5571 37.2426 52.1858 37.6955L37.6359 55.139C37.3914 55.4379 37.0835 55.6326 36.7121 55.7232C36.3408 55.8138 35.9876 55.7821 35.6525 55.6281C35.3174 55.4742 35.0525 55.2319 34.8578 54.9013C34.663 54.5707 34.5928 54.2107 34.6472 53.8213L36.1144 43.6187Z" fill="#658E1F"/>
</g>
<g filter="url(#filter3_di_55_62)">
<path d="M64.2798 50.7012V26.5144H72.9011C74.7749 26.5144 76.3299 26.8372 77.566 27.4828C78.81 28.1284 79.739 29.022 80.3531 30.1637C80.9673 31.2974 81.2743 32.6083 81.2743 34.0964C81.2743 35.5766 80.9633 36.8796 80.3413 38.0055C79.7272 39.1235 78.7982 39.9935 77.5542 40.6155C76.3181 41.2375 74.7631 41.5485 72.8893 41.5485H66.3583V38.407H72.5586C73.7396 38.407 74.7001 38.2377 75.4402 37.8992C76.1882 37.5606 76.7354 37.0686 77.0818 36.4229C77.4282 35.7773 77.6014 35.0018 77.6014 34.0964C77.6014 33.1831 77.4243 32.3918 77.07 31.7226C76.7235 31.0534 76.1764 30.5416 75.4284 30.1873C74.6883 29.8251 73.7159 29.644 72.5113 29.644H67.9291V50.7012H64.2798ZM76.2197 39.7888L82.1955 50.7012H78.0384L72.1807 39.7888H76.2197ZM91.3594 51.0673C89.5722 51.0673 88.033 50.6854 86.7417 49.9217C85.4584 49.1501 84.4663 48.0676 83.7656 46.674C83.0728 45.2725 82.7263 43.6309 82.7263 41.7492C82.7263 39.8911 83.0728 38.2535 83.7656 36.8363C84.4663 35.4191 85.4426 34.3129 86.6945 33.5177C87.9542 32.7225 89.4265 32.3249 91.1114 32.3249C92.1349 32.3249 93.127 32.4942 94.0875 32.8327C95.0481 33.1713 95.9102 33.7027 96.6739 34.4271C97.4376 35.1514 98.0399 36.0923 98.4808 37.2496C98.9217 38.3991 99.1422 39.7967 99.1422 41.4422V42.694H84.7222V40.0486H95.6819C95.6819 39.1195 95.4929 38.2968 95.115 37.5803C94.7371 36.856 94.2056 36.2852 93.5206 35.8679C92.8435 35.4506 92.0483 35.2419 91.135 35.2419C90.143 35.2419 89.2769 35.486 88.5368 35.9742C87.8046 36.4544 87.2377 37.0843 86.8362 37.8638C86.4425 38.6353 86.2457 39.4738 86.2457 40.3793V42.446C86.2457 43.6585 86.4583 44.6899 86.8835 45.5402C87.3165 46.3905 87.9188 47.0401 88.6904 47.4889C89.462 47.9298 90.3634 48.1502 91.3949 48.1502C92.0641 48.1502 92.6743 48.0557 93.2254 47.8668C93.7765 47.67 94.2529 47.3786 94.6544 46.9928C95.0559 46.6071 95.363 46.1307 95.5756 45.5638L98.9178 46.1662C98.6501 47.1503 98.1698 48.0124 97.477 48.7525C96.792 49.4847 95.9299 50.0556 94.8906 50.465C93.8592 50.8665 92.6821 51.0673 91.3594 51.0673ZM113.644 57.5037V47.8786H113.432C113.219 48.2644 112.912 48.7053 112.51 49.2013C112.117 49.6973 111.574 50.1304 110.881 50.5004C110.188 50.8704 109.29 51.0555 108.188 51.0555C106.724 51.0555 105.417 50.6815 104.267 49.9335C103.125 49.1777 102.228 48.103 101.574 46.7094C100.929 45.308 100.606 43.627 100.606 41.6666C100.606 39.7061 100.933 38.0291 101.586 36.6355C102.248 35.2419 103.153 34.1751 104.303 33.435C105.452 32.6949 106.755 32.3249 108.212 32.3249C109.338 32.3249 110.243 32.5139 110.928 32.8918C111.621 33.2618 112.156 33.6948 112.534 34.1909C112.92 34.6869 113.219 35.1238 113.432 35.5018H113.727V32.5611H117.175V57.5037H113.644ZM108.967 48.0439C109.983 48.0439 110.841 47.7762 111.542 47.2409C112.251 46.6976 112.786 45.9457 113.148 44.9852C113.518 44.0246 113.703 42.9066 113.703 41.6311C113.703 40.3714 113.522 39.2691 113.16 38.3243C112.798 37.3795 112.266 36.6434 111.566 36.1159C110.865 35.5884 109.999 35.3246 108.967 35.3246C107.905 35.3246 107.019 35.6002 106.31 36.1513C105.602 36.7024 105.066 37.4543 104.704 38.407C104.35 39.3597 104.173 40.4344 104.173 41.6311C104.173 42.8436 104.354 43.9341 104.716 44.9025C105.078 45.8709 105.613 46.6385 106.322 47.2054C107.039 47.7644 107.92 48.0439 108.967 48.0439ZM131.751 43.1782V32.5611H135.294V50.7012H131.822V47.5597H131.633C131.216 48.5281 130.547 49.3352 129.625 49.9808C128.712 50.6185 127.574 50.9374 126.212 50.9374C125.047 50.9374 124.016 50.6815 123.118 50.1697C122.228 49.6501 121.528 48.8824 121.016 47.8668C120.512 46.8511 120.26 45.5953 120.26 44.0994V32.5611H123.791V43.6743C123.791 44.9104 124.134 45.8945 124.819 46.6267C125.504 47.359 126.393 47.7251 127.488 47.7251C128.149 47.7251 128.807 47.5597 129.46 47.229C130.121 46.8984 130.669 46.3984 131.102 45.7292C131.543 45.06 131.759 44.2096 131.751 43.1782ZM146.194 51.0673C144.407 51.0673 142.868 50.6854 141.577 49.9217C140.293 49.1501 139.301 48.0676 138.6 46.674C137.908 45.2725 137.561 43.6309 137.561 41.7492C137.561 39.8911 137.908 38.2535 138.6 36.8363C139.301 35.4191 140.277 34.3129 141.529 33.5177C142.789 32.7225 144.261 32.3249 145.946 32.3249C146.97 32.3249 147.962 32.4942 148.922 32.8327C149.883 33.1713 150.745 33.7027 151.509 34.4271C152.272 35.1514 152.875 36.0923 153.316 37.2496C153.757 38.3991 153.977 39.7967 153.977 41.4422V42.694H139.557V40.0486H150.517C150.517 39.1195 150.328 38.2968 149.95 37.5803C149.572 36.856 149.04 36.2852 148.355 35.8679C147.678 35.4506 146.883 35.2419 145.97 35.2419C144.978 35.2419 144.112 35.486 143.372 35.9742C142.639 36.4544 142.073 37.0843 141.671 37.8638C141.277 38.6353 141.08 39.4738 141.08 40.3793V42.446C141.08 43.6585 141.293 44.6899 141.718 45.5402C142.151 46.3905 142.754 47.0401 143.525 47.4889C144.297 47.9298 145.198 48.1502 146.23 48.1502C146.899 48.1502 147.509 48.0557 148.06 47.8668C148.611 47.67 149.088 47.3786 149.489 46.9928C149.891 46.6071 150.198 46.1307 150.41 45.5638L153.753 46.1662C153.485 47.1503 153.005 48.0124 152.312 48.7525C151.627 49.4847 150.765 50.0556 149.725 50.465C148.694 50.8665 147.517 51.0673 146.194 51.0673ZM169.825 36.9898L166.625 37.5567C166.491 37.1473 166.278 36.7576 165.987 36.3875C165.704 36.0175 165.318 35.7143 164.83 35.4781C164.342 35.2419 163.731 35.1238 162.999 35.1238C161.999 35.1238 161.165 35.3482 160.495 35.797C159.826 36.2379 159.492 36.8087 159.492 37.5095C159.492 38.1157 159.716 38.6038 160.165 38.9739C160.614 39.3439 161.338 39.6471 162.338 39.8833L165.219 40.5446C166.889 40.9304 168.133 41.5248 168.951 42.3279C169.77 43.131 170.18 44.1742 170.18 45.4576C170.18 46.5441 169.865 47.5125 169.235 48.3628C168.613 49.2052 167.743 49.8666 166.625 50.3469C165.515 50.8271 164.227 51.0673 162.763 51.0673C160.732 51.0673 159.074 50.6342 157.791 49.7682C156.508 48.8942 155.72 47.6542 155.429 46.0481L158.842 45.5284C159.055 46.4181 159.492 47.0913 160.153 47.5479C160.814 47.9967 161.676 48.2211 162.739 48.2211C163.897 48.2211 164.822 47.9809 165.515 47.5007C166.208 47.0125 166.554 46.4181 166.554 45.7174C166.554 45.1505 166.341 44.6742 165.916 44.2884C165.499 43.9026 164.857 43.6113 163.991 43.4144L160.921 42.7413C159.228 42.3555 157.976 41.7414 157.165 40.8989C156.362 40.0565 155.96 38.9896 155.96 37.6984C155.96 36.6276 156.26 35.6907 156.858 34.8876C157.456 34.0846 158.283 33.4586 159.338 33.0099C160.393 32.5532 161.602 32.3249 162.964 32.3249C164.924 32.3249 166.467 32.75 167.593 33.6004C168.719 34.4428 169.463 35.5726 169.825 36.9898ZM180.867 32.5611V35.3955H170.958V32.5611H180.867ZM173.616 28.215H177.147V45.3749C177.147 46.0599 177.249 46.5756 177.454 46.922C177.659 47.2605 177.922 47.4928 178.245 47.6188C178.576 47.7369 178.934 47.7959 179.32 47.7959C179.603 47.7959 179.851 47.7762 180.064 47.7369C180.277 47.6975 180.442 47.666 180.56 47.6424L181.198 50.5595C180.993 50.6382 180.702 50.7169 180.324 50.7957C179.946 50.8823 179.473 50.9295 178.907 50.9374C177.978 50.9531 177.111 50.7878 176.308 50.4414C175.505 50.0949 174.856 49.5595 174.36 48.8352C173.864 48.1109 173.616 47.2015 173.616 46.1071V28.215Z" fill="#658E1F"/>
</g>
</g>
</g>
<defs>
<filter id="filter0_d_55_62" x="0.644342" y="0.528779" width="210.505" height="82.1134" filterUnits="userSpaceOnUse" color-interpolation-filters="sRGB">
<feFlood flood-opacity="0" result="BackgroundImageFix"/>
<feColorMatrix in="SourceAlpha" type="matrix" values="0 0 0 0 0 0 0 0 0 0 0 0 0 0 0 0 0 0 127 0" result="hardAlpha"/>
<feOffset dy="2.88456"/>
<feGaussianBlur stdDeviation="2.5961"/>
<feComposite in2="hardAlpha" operator="out"/>
<feColorMatrix type="matrix" values="0 0 0 0 0 0 0 0 0 0 0 0 0 0 0 0 0 0 0.25 0"/>
<feBlend mode="normal" in2="BackgroundImageFix" result="effect1_dropShadow_55_62"/>
<feBlend mode="normal" in="SourceGraphic" in2="effect1_dropShadow_55_62" result="shape"/>
</filter>
<filter id="filter1_ii_55_62" x="8" y="3.54424" width="195.794" height="68.8576" filterUnits="userSpaceOnUse" color-interpolation-filters="sRGB">
<feFlood flood-opacity="0" result="BackgroundImageFix"/>
<feBlend mode="normal" in="SourceGraphic" in2="BackgroundImageFix" result="shape"/>
<feColorMatrix in="SourceAlpha" type="matrix" values="0 0 0 0 0 0 0 0 0 0 0 0 0 0 0 0 0 0 127 0" result="hardAlpha"/>
<feOffset dy="1.95628"/>
<feComposite in2="hardAlpha" operator="arithmetic" k2="-1" k3="1"/>
<feColorMatrix type="matrix" values="0 0 0 0 1 0 0 0 0 1 0 0 0 0 1 0 0 0 0.39 0"/>
<feBlend mode="normal" in2="shape" result="effect1_innerShadow_55_62"/>
<feColorMatrix in="SourceAlpha" type="matrix" values="0 0 0 0 0 0 0 0 0 0 0 0 0 0 0 0 0 0 127 0" result="hardAlpha"/>
<feOffset dy="-1.95628"/>
<feGaussianBlur stdDeviation="0.727879"/>
<feComposite in2="hardAlpha" operator="arithmetic" k2="-1" k3="1"/>
<feColorMatrix type="matrix" values="0 0 0 0 0 0 0 0 0 0 0 0 0 0 0 0 0 0 0.15 0"/>
<feBlend mode="normal" in2="effect1_innerShadow_55_62" result="effect2_innerShadow_55_62"/>
</filter>
<filter id="filter2_di_55_62" x="29.171" y="21.6284" width="23.3531" height="34.8662" filterUnits="userSpaceOnUse" color-interpolation-filters="sRGB">
<feFlood flood-opacity="0" result="BackgroundImageFix"/>
<feColorMatrix in="SourceAlpha" type="matrix" values="0 0 0 0 0 0 0 0 0 0 0 0 0 0 0 0 0 0 127 0" result="hardAlpha"/>
<feOffset dy="0.72114"/>
<feComposite in2="hardAlpha" operator="out"/>
<feColorMatrix type="matrix" values="0 0 0 0 1 0 0 0 0 1 0 0 0 0 1 0 0 0 0.33 0"/>
<feBlend mode="normal" in2="BackgroundImageFix" result="effect1_dropShadow_55_62"/>
<feBlend mode="normal" in="SourceGraphic" in2="effect1_dropShadow_55_62" result="shape"/>
<feColorMatrix in="SourceAlpha" type="matrix" values="0 0 0 0 0 0 0 0 0 0 0 0 0 0 0 0 0 0 127 0" result="hardAlpha"/>
<feOffset dy="0.72114"/>
<feComposite in2="hardAlpha" operator="arithmetic" k2="-1" k3="1"/>
<feColorMatrix type="matrix" values="0 0 0 0 0 0 0 0 0 0 0 0 0 0 0 0 0 0 0.25 0"/>
<feBlend mode="normal" in2="shape" result="effect2_innerShadow_55_62"/>
</filter>
<filter id="filter3_di_55_62" x="64.2798" y="26.5142" width="116.918" height="31.7109" filterUnits="userSpaceOnUse" color-interpolation-filters="sRGB">
<feFlood flood-opacity="0" result="BackgroundImageFix"/>
<feColorMatrix in="SourceAlpha" type="matrix" values="0 0 0 0 0 0 0 0 0 0 0 0 0 0 0 0 0 0 127 0" result="hardAlpha"/>
<feOffset dy="0.72114"/>
<feComposite in2="hardAlpha" operator="out"/>
<feColorMatrix type="matrix" values="0 0 0 0 1 0 0 0 0 1 0 0 0 0 1 0 0 0 0.33 0"/>
<feBlend mode="normal" in2="BackgroundImageFix" result="effect1_dropShadow_55_62"/>
<feBlend mode="normal" in="SourceGraphic" in2="effect1_dropShadow_55_62" result="shape"/>
<feColorMatrix in="SourceAlpha" type="matrix" values="0 0 0 0 0 0 0 0 0 0 0 0 0 0 0 0 0 0 127 0" result="hardAlpha"/>
<feOffset dy="0.72114"/>
<feComposite in2="hardAlpha" operator="arithmetic" k2="-1" k3="1"/>
<feColorMatrix type="matrix" values="0 0 0 0 0 0 0 0 0 0 0 0 0 0 0 0 0 0 0.25 0"/>
<feBlend mode="normal" in2="shape" result="effect2_innerShadow_55_62"/>
</filter>
<linearGradient id="paint0_linear_55_62" x1="105.897" y1="5" x2="105.897" y2="72.4019" gradientUnits="userSpaceOnUse">
<stop stop-color="#B0EE43"/>
<stop offset="1" stop-color="#9BD437"/>
</linearGradient>
</defs>
</svg>
