<svg width="373" height="56" viewBox="0 0 373 56" fill="none" xmlns="http://www.w3.org/2000/svg">
<mask id="path-1-outside-1_147_27381" maskUnits="userSpaceOnUse" x="-162" y="0" width="563" height="56" fill="black">
<rect fill="white" x="-162" width="563" height="56"/>
<path fill-rule="evenodd" clip-rule="evenodd" d="M104.204 17H396V39H104.204C100.303 46.1495 92.718 51 84 51C75.282 51 67.6968 46.1495 63.796 39H-157V17H63.796C67.6968 9.85049 75.282 5 84 5C92.718 5 100.303 9.85049 104.204 17Z"/>
</mask>
<path fill-rule="evenodd" clip-rule="evenodd" d="M104.204 17H396V39H104.204C100.303 46.1495 92.718 51 84 51C75.282 51 67.6968 46.1495 63.796 39H-157V17H63.796C67.6968 9.85049 75.282 5 84 5C92.718 5 100.303 9.85049 104.204 17Z" fill="#D9D9D9"/>
<path d="M104.204 17L99.8148 19.3948L101.236 22H104.204V17ZM396 17H401V12H396V17ZM396 39V44H401V39H396ZM104.204 39V34H101.236L99.8148 36.6052L104.204 39ZM63.796 39L68.1852 36.6052L66.7638 34H63.796V39ZM-157 39H-162V44H-157V39ZM-157 17V12H-162V17H-157ZM63.796 17V22H66.7638L68.1852 19.3948L63.796 17ZM104.204 22H396V12H104.204V22ZM391 17V39H401V17H391ZM396 34H104.204V44H396V34ZM99.8148 36.6052C96.755 42.2134 90.8161 46 84 46V56C94.62 56 103.851 50.0857 108.593 41.3948L99.8148 36.6052ZM84 46C77.1839 46 71.245 42.2134 68.1852 36.6052L59.4068 41.3948C64.1486 50.0857 73.38 56 84 56V46ZM63.796 34H-157V44H63.796V34ZM-152 39V17H-162V39H-152ZM-157 22H63.796V12H-157V22ZM68.1852 19.3948C71.245 13.7866 77.1839 10 84 10V0C73.38 0 64.1486 5.91434 59.4068 14.6052L68.1852 19.3948ZM84 10C90.8161 10 96.755 13.7866 99.8148 19.3948L108.593 14.6052C103.851 5.91433 94.62 0 84 0V10Z" fill="#E8E8E8" mask="url(#path-1-outside-1_147_27381)"/>
<path fill-rule="evenodd" clip-rule="evenodd" d="M104.204 17H387V39H104.204C100.303 46.1495 92.718 51 84 51C75.282 51 67.6968 46.1495 63.796 39H-157V17H63.796C67.6968 9.85049 75.282 5 84 5C92.718 5 100.303 9.85049 104.204 17Z" fill="white"/>
<path fill-rule="evenodd" clip-rule="evenodd" d="M71.9963 33C73.9554 37.6979 78.5921 41 84 41C91.1797 41 97 35.1797 97 28C97 20.8203 91.1797 15 84 15C78.2159 15 73.3141 18.7775 71.627 24H-245V33H71.9963Z" fill="#EEEEEE"/>
<path fill-rule="evenodd" clip-rule="evenodd" d="M96.0037 33C94.0446 37.6979 89.4079 41 84 41C76.8203 41 71 35.1797 71 28C71 20.8203 76.8203 15 84 15C89.7841 15 94.6859 18.7775 96.373 24H412V33H96.0037Z" fill="url(#paint0_linear_147_27381)"/>
<defs>
<linearGradient id="paint0_linear_147_27381" x1="265" y1="22" x2="253.526" y2="66.5409" gradientUnits="userSpaceOnUse">
<stop stop-color="#C2EDFF"/>
<stop offset="1" stop-color="#21BCFF"/>
</linearGradient>
</defs>
</svg>
