<svg width="62" height="62" viewBox="0 0 62 62" fill="none" xmlns="http://www.w3.org/2000/svg">
<rect width="62" height="62" rx="12" fill="#E7E7E8"/>
<path d="M18.3259 38.4883H24.4021C23.8471 37.8053 23.4629 37.1223 23.2494 36.4818H18.3686C16.846 36.4818 16.0064 35.6423 16.0064 34.1055V19.9752C16.0064 18.4383 16.846 17.5845 18.3686 17.5845H37.1379C38.6462 17.5845 39.4858 18.4383 39.4858 19.9752V25.2972C40.1688 25.2972 40.8519 25.4821 41.4922 25.8806V19.8471C41.4922 17.0011 40.0693 15.5781 37.1805 15.5781H18.3259C15.4372 15.5781 14 16.9869 14 19.8471V34.2336C14 37.0937 15.4372 38.4883 18.3259 38.4883ZM42.1894 46.1155C47.9953 43.9952 49.9163 39.1998 47.668 32.9671L46.7288 30.3915C45.8892 28.0577 44.2243 27.019 42.9436 27.4886C42.6591 27.6024 42.5736 27.8016 42.6591 28.0719L43.0717 29.2247C43.2568 29.7512 43.0859 30.121 42.7729 30.2492C42.4171 30.3773 42.0472 30.2065 41.8479 29.6657L41.5775 28.9115C41.0653 27.5312 39.87 26.9478 38.6604 27.3889C38.1197 27.5882 37.949 27.887 38.1197 28.3566L38.6889 29.8934C38.9023 30.4342 38.7032 30.8041 38.39 30.918C38.0486 31.0461 37.6644 30.8752 37.4793 30.3487L36.9671 28.9115C36.4121 27.3463 35.2169 26.9621 34.0641 27.3889C33.5519 27.5598 33.3669 27.9154 33.5234 28.3424L34.6192 31.3875C34.8183 31.9283 34.6476 32.2841 34.3345 32.4122C33.9788 32.5401 33.6088 32.3694 33.4096 31.8287L29.724 21.6828C29.354 20.6867 28.4719 20.274 27.6465 20.5871C26.7358 20.9286 26.3516 21.7824 26.7073 22.7785L32.1289 37.6344C32.2712 38.0044 32.0862 38.2749 31.8585 38.3602C31.6308 38.4172 31.4031 38.3744 31.1043 38.0614L27.4615 34.1339C26.9065 33.5506 26.3516 33.4224 25.7539 33.6501C24.8432 33.9916 24.4732 34.8169 24.7578 35.5853C24.8574 35.87 25.0139 36.1118 25.1705 36.2969L29.6956 41.9603C33.5092 46.7416 37.9062 47.6666 42.1894 46.1155Z" fill="black"/>
</svg>
