<svg width="56" height="56" viewBox="0 0 56 56" fill="none" xmlns="http://www.w3.org/2000/svg">
<path d="M12.875 47.25C11.775 47.25 10.8125 46.8375 9.9875 46.0125C9.1625 45.1875 8.75 44.225 8.75 43.125V4.625C8.75 3.525 9.1625 2.5625 9.9875 1.7375C10.8125 0.9125 11.775 0.5 12.875 0.5H51.375C52.475 0.5 53.4375 0.9125 54.2625 1.7375C55.0875 2.5625 55.5 3.525 55.5 4.625V43.125C55.5 44.225 55.0875 45.1875 54.2625 46.0125C53.4375 46.8375 52.475 47.25 51.375 47.25H12.875ZM12.875 43.125H51.375V17H32.8125C32.2281 17 31.7384 16.8022 31.3433 16.4067C30.9478 16.0116 30.75 15.5219 30.75 14.9375V4.625H12.875V43.125ZM4.625 55.5C3.525 55.5 2.5625 55.0875 1.7375 54.2625C0.9125 53.4375 0.5 52.475 0.5 51.375V10.8125C0.5 10.2281 0.698917 9.73817 1.09675 9.34262C1.49413 8.94754 1.98683 8.75 2.57488 8.75C3.16246 8.75 3.65104 8.94754 4.04063 9.34262C4.43021 9.73817 4.625 10.2281 4.625 10.8125V51.375H45.1875C45.7719 51.375 46.2618 51.5739 46.6574 51.9718C47.0525 52.3691 47.25 52.8618 47.25 53.4499C47.25 54.0375 47.0525 54.526 46.6574 54.9156C46.2618 55.3052 45.7719 55.5 45.1875 55.5H4.625Z" fill="#FF4545"/>
</svg>
