<svg width="56" height="44" viewBox="0 0 56 44" fill="none" xmlns="http://www.w3.org/2000/svg">
<path d="M4.625 44C3.525 44 2.5625 43.576 1.7375 42.7281C0.9125 41.8802 0.5 40.9292 0.5 39.875V4.125C0.5 3.07083 0.9125 2.11979 1.7375 1.27188C2.5625 0.423958 3.525 0 4.625 0H22.225C22.7952 0 23.3388 0.114583 23.8558 0.34375C24.3727 0.572917 24.8166 0.872898 25.1874 1.24369L28.0688 4.125H51.375C52.4292 4.125 53.3802 4.54896 54.2281 5.39687C55.076 6.24479 55.5 7.19583 55.5 8.25V39.875C55.5 40.9292 55.076 41.8802 54.2281 42.7281C53.3802 43.576 52.4292 44 51.375 44H4.625ZM4.625 39.875H51.375V8.25H26.35L22.225 4.125H4.625V39.875ZM35.9406 30.1125L40.7188 33.4125C40.9479 33.55 41.1542 33.5516 41.3375 33.4173C41.5208 33.2826 41.5667 33.0976 41.475 32.8625L39.6875 27.0187L44.5687 22.8937C44.7521 22.7283 44.7979 22.5379 44.7063 22.3224C44.6146 22.1075 44.4542 22 44.225 22H38.3813L36.4562 16.2938C36.3646 16.0646 36.2042 15.95 35.975 15.95C35.7458 15.95 35.5854 16.0646 35.4938 16.2938L33.5 22H27.6562C27.4271 22 27.2667 22.1075 27.175 22.3224C27.0833 22.5379 27.1292 22.7283 27.3125 22.8937L32.1938 27.0187L30.3375 32.8625C30.2458 33.0917 30.3031 33.2865 30.5094 33.4469C30.7156 33.6073 30.9333 33.6188 31.1625 33.4813L35.9406 30.1125Z" fill="#FF4545"/>
</svg>
