<svg width="258" height="180" viewBox="0 0 258 180" fill="none" xmlns="http://www.w3.org/2000/svg">
<path d="M7 173C69.8394 172.647 192.363 148.966 246 91" stroke="#A5A5A5" stroke-width="13" stroke-linecap="round"/>
<path d="M7 173C57.9197 166 172.807 123.4 225 9" stroke="url(#paint0_linear_915_549)" stroke-width="13" stroke-linecap="round"/>
<mask id="mask0_915_549" style="mask-type:alpha" maskUnits="userSpaceOnUse" x="238" y="0" width="20" height="20">
<rect x="238" width="20" height="20" fill="#D9D9D9"/>
</mask>
<g mask="url(#mask0_915_549)">
<path d="M247.667 8.76908V12.1597C247.667 12.2525 247.698 12.3303 247.762 12.393C247.825 12.4557 247.903 12.487 247.996 12.487C248.09 12.487 248.172 12.4542 248.243 12.3885C248.314 12.3226 248.35 12.241 248.35 12.1437V8.76908L249.737 10.157C249.815 10.2349 249.894 10.2712 249.972 10.266C250.051 10.2605 250.129 10.2189 250.207 10.141C250.285 10.0629 250.324 9.98374 250.324 9.90346C250.324 9.82318 250.285 9.74582 250.207 9.67138L248.422 7.90242C248.303 7.78367 248.167 7.72429 248.012 7.72429C247.858 7.72429 247.723 7.78464 247.607 7.90534L245.826 9.68742C245.748 9.76547 245.712 9.83756 245.719 9.90367C245.726 9.96992 245.768 10.0421 245.846 10.1201C245.924 10.198 246.003 10.237 246.084 10.237C246.164 10.237 246.241 10.198 246.316 10.1201L247.667 8.76908ZM248.009 17.1666C247.023 17.1666 246.095 16.9802 245.223 16.6074C244.352 16.2346 243.589 15.7213 242.935 15.0674C242.28 14.4135 241.766 13.6516 241.393 12.7816C241.02 11.9117 240.833 10.9823 240.833 9.99325C240.833 9.00409 241.02 8.07728 241.393 7.21283C241.765 6.34853 242.279 5.58909 242.933 4.9345C243.587 4.27992 244.348 3.7661 245.218 3.39304C246.088 3.01985 247.018 2.83325 248.007 2.83325C248.996 2.83325 249.923 3.01964 250.787 3.39242C251.652 3.7652 252.411 4.27853 253.066 4.93242C253.72 5.58631 254.234 6.34659 254.607 7.21325C254.98 8.07992 255.167 9.00596 255.167 9.99138C255.167 10.9768 254.98 11.9052 254.608 12.7766C254.235 13.6478 253.722 14.4108 253.068 15.0653C252.414 15.7199 251.653 16.2337 250.787 16.6068C249.92 16.98 248.994 17.1666 248.009 17.1666Z" fill="#39E280"/>
</g>
<defs>
<linearGradient id="paint0_linear_915_549" x1="180" y1="69" x2="225" y2="9" gradientUnits="userSpaceOnUse">
<stop stop-color="#21BCFF"/>
<stop offset="1" stop-color="#C4EDFF"/>
</linearGradient>
</defs>
</svg>
