<svg width="67" height="71" viewBox="0 0 67 71" fill="none" xmlns="http://www.w3.org/2000/svg">
<g filter="url(#filter0_d_587_7735)">
<path fill-rule="evenodd" clip-rule="evenodd" d="M20.6226 50.8352C21.1476 51.3083 21.5102 51.648 22.6304 52.7122C23.7276 53.7544 24.2582 54.2468 24.7434 54.6588C24.9458 54.8293 25.1183 55.2851 25.1866 55.9625C25.2429 56.52 25.2233 57.1417 25.1551 57.7409C25.1315 57.9481 25.1088 58.0975 25.0958 58.1687C24.9495 58.968 25.5586 59.7063 26.3712 59.7146C27.1024 59.722 27.6658 59.7311 29.157 59.7576C29.5301 59.7643 29.5301 59.7643 29.9045 59.7708C33.9581 59.8405 36.0285 59.8214 37.5144 59.6345C39.1026 59.4348 40.7383 57.5167 42.1523 55.1099C43.3504 57.2396 45.0123 59.3193 46.6905 59.5897C47.2237 59.6748 47.8686 59.7012 48.6161 59.684C49.1735 59.6712 49.7633 59.6345 50.3585 59.5813C50.8073 59.5412 51.1649 59.5009 51.3785 59.4732C52.1678 59.3708 52.6842 58.5942 52.4733 57.8268C52.4278 57.661 52.3546 57.3569 52.2808 56.974C52.1952 56.5301 52.1334 56.0965 52.1053 55.7015C52.0874 55.4511 52.0839 55.2244 52.0952 55.0284C52.1149 54.6868 52.1211 54.4955 52.1306 54.0536C52.1343 53.889 52.1343 53.889 52.1392 53.745C52.1577 53.2738 52.221 52.8264 52.4258 51.8507C52.5138 51.4273 52.9404 50.6169 53.6122 49.614C53.8123 49.3153 54.031 49.0034 54.2654 48.6814C54.7098 48.0707 55.1881 47.4537 55.6666 46.8633C55.9533 46.5096 56.1748 46.245 56.2983 46.1014C57.3331 44.6187 58.4366 42.1914 58.8421 40.7724C59.2313 39.4085 59.5427 36.8966 59.734 34.4278C59.8389 33.0273 59.8777 31.8983 59.8777 30.1273C59.8779 29.8166 59.8779 29.8166 59.8784 29.5601C59.8794 29.14 59.8795 28.9811 59.8781 28.7847C59.8744 28.2481 59.8587 27.7163 59.8069 26.36C59.6954 23.5174 58.1376 21.6797 55.8421 21.3252C53.8892 21.0236 51.5121 22.6456 51.5121 22.6456C51.5121 22.6456 50.9831 20.8191 50.6258 20.2553C50.0451 19.3492 48.5499 18.1946 47.4069 17.9697C46.2313 17.7414 44.8377 17.7667 43.558 17.993C42.4372 18.1936 41.3208 19.1942 40.6751 20.2736C40.2131 21.0435 40.6476 20.2327 40.1855 19.4362C39.546 18.3391 38.0568 17.3567 36.6386 17.0668C35.437 16.8183 34.0603 16.9129 32.8028 17.2866C31.1851 17.77 30.9276 19.0011 30.8633 18.6486C30.6481 17.4669 30.6282 17.5446 30.4942 16.7016C29.996 13.5739 29.4386 11.4097 28.5934 9.52128C28.642 9.62985 28.2838 8.81506 28.1535 8.5341C27.9278 8.0476 27.7024 7.60726 27.4548 7.18374C26.6914 5.87836 25.8166 4.90099 24.719 4.34575C22.8128 3.38049 19.9557 3.85025 18.6015 5.43103C17.2566 7.002 17.0323 9.62858 17.371 12.8788C17.5004 14.1408 17.9537 16.4446 18.3648 18.1476C18.5101 18.7387 18.6375 19.2778 18.8711 20.2736C18.9112 20.4429 18.9112 20.4429 18.9517 20.6124C19.1324 21.366 19.2909 21.9861 19.4801 22.6665C19.4602 22.5955 19.819 23.8686 19.8954 24.1503C19.9208 24.2443 19.9208 24.2444 19.946 24.3388C20.0886 24.8761 20.2281 25.4553 20.4459 26.4221C20.5652 26.9536 20.6815 27.5215 20.7953 28.1234C21.1056 29.7652 21.1072 29.4233 20.8084 29.0732C20.602 28.8314 20.4079 28.6117 20.2204 28.4093C19.8719 28.033 19.5515 27.7219 19.2473 27.4737C17.0309 25.6603 15.6728 24.8591 13.8083 24.683C10.75 24.3892 7.84755 26.5496 7.41113 29.4652C7.14273 31.2528 7.2292 32.0757 8.05618 33.6555C8.51127 34.5091 9.28106 35.54 10.7174 37.3146C10.8053 37.4231 10.8053 37.4231 10.8931 37.5314C12.6561 39.704 12.8482 39.9453 13.2674 40.5524C14.4006 42.1968 17.1591 46.9183 17.6606 47.5522L20.6226 50.8352Z" fill="black"/>
<path fill-rule="evenodd" clip-rule="evenodd" d="M12.9295 35.8802C12.8425 35.773 12.8425 35.773 12.7558 35.666C11.4377 34.0375 10.7149 33.0695 10.3747 32.4314C9.84081 31.4114 9.81176 31.135 10.0042 29.8535C10.2303 28.3426 11.8621 27.128 13.5617 27.2913C14.7377 27.4023 15.7651 28.0085 17.5912 29.5026C17.7889 29.6639 18.0273 29.8954 18.3 30.1898C18.4613 30.3639 18.6324 30.5575 18.8171 30.7739C19.0945 31.099 20.0294 32.2431 19.8917 32.0766C20.0949 32.3209 20.2401 32.5101 20.4061 32.742C20.7348 33.2113 20.9198 33.4719 21.1703 33.8059C21.0528 33.6492 21.9205 34.8485 22.1042 35.0239C23.0775 35.953 24.487 35.1705 24.3987 33.9323C24.3839 33.7256 24.3353 33.5023 24.2338 33.1125C23.8325 30.2504 23.6921 29.3318 23.3717 27.6366C23.2526 27.0069 23.1304 26.4104 23.0041 25.8472C22.7793 24.8495 22.6325 24.2399 22.4803 23.6663C22.4532 23.5648 22.4532 23.5648 22.426 23.4643C22.3456 23.168 21.9815 21.8757 22.0057 21.9624C21.8263 21.3172 21.6754 20.7266 21.5015 20.0013C21.462 19.8361 21.462 19.8361 21.4226 19.6698C21.1903 18.6793 21.0596 18.1264 20.9123 17.5272C20.528 15.9353 20.0939 13.729 19.9791 12.6094C19.7155 10.0792 19.8974 7.94824 20.5934 7.13527C21.1368 6.50094 22.677 6.24771 23.5375 6.68346C24.1002 6.96812 24.6626 7.59639 25.1947 8.50632C25.3961 8.85069 25.585 9.21995 25.7784 9.63677C25.8956 9.88921 26.2428 10.6792 26.2037 10.5918C26.9385 12.2335 27.4432 14.1933 27.9083 17.1134C28.0459 17.9786 28.2162 18.9588 28.4346 20.1581C28.4995 20.5137 28.4995 20.5137 28.5646 20.8678C29.6176 26.581 29.5405 26.148 29.5557 26.6037C29.6109 28.2659 32.0645 28.3048 32.1724 26.6452C32.2066 26.1189 32.1944 25.6489 32.1337 24.2994C32.1251 24.1084 32.1251 24.1084 32.1169 23.9182C32.0637 22.6748 32.0668 21.9595 32.1403 21.5528C32.2743 20.8114 32.9399 19.9808 33.5529 19.7976C34.4138 19.5417 35.357 19.4769 36.1127 19.6332C36.836 19.7811 37.6801 20.3379 37.9222 20.7533C38.2141 21.2564 38.4643 22.0228 38.6561 22.9728C38.8109 23.7396 38.9175 24.5622 38.9924 25.4401C39.0157 25.7133 39.0309 25.9243 39.0543 26.2735C39.0643 26.4197 39.0643 26.4197 39.0742 26.5403C39.0798 26.6008 39.0798 26.6008 39.0934 26.6963C39.104 26.7633 39.104 26.7633 39.154 26.933C39.1794 27.4145 39.1794 27.4145 41.1133 27.593C41.6908 26.8949 41.6908 26.8949 41.675 26.7725C41.7696 26.359 41.8275 25.8982 41.91 25.0322C41.9627 24.4693 41.9893 24.1926 42.0203 23.9055C42.1489 22.7173 42.3121 21.9623 42.5112 21.6305C42.7583 21.2175 43.6284 20.6424 44.0187 20.5726C44.9988 20.3993 46.0751 20.3798 46.906 20.5411C47.2824 20.6152 48.2006 21.3242 48.4179 21.6633C48.8641 22.3675 49.2981 24.6377 49.5426 26.8902C49.5041 27.0379 49.5041 27.0379 50.104 27.8949C52.1665 27.6598 52.1665 27.6598 52.1085 27.2874C52.1629 27.1547 52.2062 27.0012 52.2675 26.7629C52.4149 26.2049 52.5126 25.881 52.6582 25.5179C52.7589 25.2668 52.865 25.052 52.9738 24.8811C53.3954 24.2176 54.4868 23.7668 55.444 23.9146C56.472 24.0733 57.1271 24.8461 57.1904 26.4613C57.2412 27.7904 57.2562 28.3013 57.2597 28.8028C57.261 28.9879 57.261 29.1364 57.26 29.5543C57.2595 29.8125 57.2595 29.8125 57.2593 30.1271C57.2593 31.8353 57.2227 32.8994 57.1232 34.2287C56.9463 36.5109 56.6477 38.9199 56.3244 40.0528C55.9944 41.2078 55.0092 43.3748 54.2291 44.5019C54.1738 44.5554 53.9363 44.8389 53.6328 45.2134C53.1276 45.8367 52.6223 46.4886 52.1486 47.1394C51.8951 47.4877 51.6571 47.8272 51.4371 48.1556C50.5858 49.4264 50.0395 50.4642 49.8628 51.3148C49.6307 52.4203 49.5477 53.0066 49.5228 53.6422C49.5167 53.8222 49.5167 53.8222 49.5128 53.9968C49.5039 54.4092 49.4986 54.5757 49.4812 54.8773C49.4629 55.1941 49.4681 55.5313 49.4934 55.8874C49.5297 56.3974 49.4934 57.0944 49.4934 57.0944C49.4934 57.0944 49.051 57.0531 48.5577 57.0644C47.9549 57.0783 47.4537 57.0577 47.1074 57.0024C46.6076 56.9219 45.258 55.2331 44.567 53.9173C43.511 51.9035 40.9474 52.0013 39.8966 53.7797C38.9487 55.3931 37.592 56.984 37.1893 57.0347C35.8805 57.1993 33.8539 57.218 29.9514 57.1509C29.5783 57.1444 29.5783 57.1444 29.2055 57.1377C27.7071 57.111 27.7647 57.364 27.7954 57.0944C27.883 56.3247 27.873 56.4689 27.7954 55.6994C27.6652 54.4091 27.267 53.3569 26.4372 52.6581C26.0079 52.2935 25.4945 51.817 24.4632 50.8375C23.2851 49.7183 22.9161 49.3725 22.4614 48.9729L19.662 45.861C19.3547 45.4681 16.6574 40.8514 15.426 39.0645C14.947 38.3708 14.7679 38.1456 12.9295 35.8802ZM46.1485 35.893V47.9774C46.1485 49.7242 48.7687 49.7242 48.7687 47.9774V35.893C48.7687 34.1462 46.1485 34.1462 46.1485 35.893ZM39.0531 35.8912L39.109 48.0245C39.117 49.7713 41.7372 49.7592 41.7292 48.0124L41.6733 35.8791C41.6652 34.1323 39.045 34.1444 39.0531 35.8912ZM34.8263 47.9569L34.753 35.9878C34.7423 34.241 32.1221 34.2571 32.1328 36.0038L32.2062 47.9729C32.2169 49.7197 34.837 49.7037 34.8263 47.9569Z" fill="white"/>
</g>
<defs>
<filter id="filter0_d_587_7735" x="0.287898" y="0.352094" width="66.5785" height="69.9368" filterUnits="userSpaceOnUse" color-interpolation-filters="sRGB">
<feFlood flood-opacity="0" result="BackgroundImageFix"/>
<feColorMatrix in="SourceAlpha" type="matrix" values="0 0 0 0 0 0 0 0 0 0 0 0 0 0 0 0 0 0 127 0" result="hardAlpha"/>
<feOffset dy="3.49361"/>
<feGaussianBlur stdDeviation="3.49361"/>
<feColorMatrix type="matrix" values="0 0 0 0 0 0 0 0 0 0 0 0 0 0 0 0 0 0 0.298656 0"/>
<feBlend mode="normal" in2="BackgroundImageFix" result="effect1_dropShadow_587_7735"/>
<feBlend mode="normal" in="SourceGraphic" in2="effect1_dropShadow_587_7735" result="shape"/>
</filter>
</defs>
</svg>
