<svg width="70" height="70" viewBox="0 0 70 70" fill="none" xmlns="http://www.w3.org/2000/svg">
<g filter="url(#filter0_d_8_40)">
<rect x="11" width="48.2057" height="48.2057" rx="9.64114" fill="white"/>
<rect x="11.5605" y="0.560531" width="47.0846" height="47.0846" rx="9.08061" stroke="#D8D8D8" stroke-width="1.12106"/>
<mask id="mask0_8_40" style="mask-type:alpha" maskUnits="userSpaceOnUse" x="18" y="7" width="35" height="35">
<rect x="18.3385" y="7.33862" width="34.1408" height="34.1408" fill="#D9D9D9"/>
</mask>
<g mask="url(#mask0_8_40)">
<path d="M35.8192 35.4991C35.9833 35.4991 36.1438 35.4663 36.3007 35.4006C36.4574 35.3349 36.5896 35.2483 36.6973 35.1406L47.3279 24.4745C47.6015 24.2008 47.8195 23.9053 47.9819 23.5879C48.144 23.2706 48.2251 22.9263 48.2251 22.5547C48.2251 22.1704 48.144 21.8002 47.9819 21.4441C47.8195 21.0877 47.6015 20.7683 47.3279 20.4857L41.0687 14.1909C40.7624 13.9173 40.4497 13.7062 40.1305 13.5576C39.8112 13.4091 39.4647 13.3349 39.091 13.3349C38.5713 13.3349 38.109 13.4803 37.7041 13.7709C37.2991 14.0618 36.917 14.3915 36.5578 14.76L36.1336 15.1842L38.8008 17.7309C39.1437 18.083 39.4209 18.4719 39.6327 18.8978C39.8441 19.3236 39.9499 19.7817 39.9499 20.2723C39.9499 21.0931 39.6659 21.7875 39.0978 22.3556C38.5297 22.9236 37.8367 23.2077 37.0188 23.2077C36.6233 23.2077 36.2402 23.1383 35.8693 22.9996C35.4985 22.8612 35.1608 22.6396 34.8561 22.335L32.2273 19.6926C32.1453 19.6103 32.0404 19.5692 31.9126 19.5692C31.785 19.5692 31.6802 19.6103 31.5982 19.6926L26.4415 24.8489C26.3339 24.9803 26.2472 25.1213 26.1815 25.2721C26.1158 25.4227 26.083 25.5781 26.083 25.7384C26.083 26.0409 26.1872 26.2911 26.3956 26.4891C26.604 26.6871 26.8592 26.7861 27.1613 26.7861C27.3216 26.7861 27.4741 26.7532 27.619 26.6876C27.7641 26.6219 27.9023 26.5352 28.0337 26.4276L31.4584 23.038C31.6554 22.841 31.8698 22.7425 32.1014 22.7425C32.333 22.7425 32.5474 22.841 32.7444 23.038C32.9504 23.2441 33.0534 23.4584 33.0534 23.681C33.0534 23.9034 32.9504 24.1176 32.7444 24.3237L29.3054 27.7488C29.1743 27.8801 29.0818 28.0204 29.028 28.1695C28.9742 28.3189 28.9473 28.4728 28.9473 28.6315C28.9473 28.9219 29.0516 29.1725 29.2602 29.3833C29.4689 29.594 29.7226 29.6994 30.0213 29.6994C30.1844 29.6994 30.3443 29.6666 30.5011 29.6009C30.658 29.5352 30.7902 29.4486 30.8976 29.3409L34.487 25.738C34.684 25.5412 34.8982 25.4428 35.1296 25.4428C35.3613 25.4428 35.5756 25.5412 35.7726 25.738C35.9786 25.9443 36.0817 26.1645 36.0817 26.3988C36.0817 26.633 35.9786 26.8533 35.7726 27.0596L32.2052 30.613C32.0831 30.7444 31.9929 30.8914 31.9346 31.054C31.8763 31.2169 31.8471 31.3774 31.8471 31.5356C31.8471 31.8248 31.9514 32.0743 32.1601 32.2842C32.3687 32.4942 32.6224 32.5993 32.9211 32.5993C33.084 32.5993 33.2439 32.5664 33.4009 32.5007C33.5576 32.4351 33.6898 32.3484 33.7974 32.2408L37.3868 28.6379C37.5836 28.4408 37.7978 28.3423 38.0295 28.3423C38.2611 28.3423 38.4754 28.4408 38.6724 28.6379C38.8785 28.8439 38.9815 29.0641 38.9815 29.2986C38.9815 29.5329 38.8785 29.7531 38.6724 29.9594L35.119 33.5129C35.0113 33.6442 34.9247 33.7919 34.859 33.956C34.7933 34.1201 34.7605 34.2802 34.7605 34.4365C34.7605 34.7489 34.864 35.0042 35.0709 35.2021C35.2779 35.4001 35.5273 35.4991 35.8192 35.4991ZM35.7972 37.2769C34.9929 37.2769 34.3095 36.998 33.7469 36.4401C33.1843 35.882 32.9012 35.1989 32.8977 34.3909C32.1153 34.3836 31.4477 34.1092 30.8951 33.5676C30.3424 33.0259 30.0434 32.344 29.9978 31.522C29.1552 31.4706 28.4622 31.1777 27.9188 30.6433C27.3751 30.1089 27.1088 29.4367 27.1197 28.6268C26.2972 28.6434 25.6106 28.3722 25.0599 27.8131C24.5091 27.2541 24.2337 26.5625 24.2337 25.7384C24.2337 25.3353 24.3076 24.9445 24.4553 24.5658C24.603 24.1875 24.8292 23.846 25.1338 23.5416L30.304 18.4066C30.74 17.9635 31.2767 17.7419 31.914 17.7419C32.5515 17.7419 33.0918 17.9635 33.535 18.4066L36.1147 20.9864C36.2458 21.1085 36.3793 21.1988 36.5152 21.2574C36.6513 21.3157 36.8062 21.3449 36.98 21.3449C37.273 21.3449 37.5248 21.2414 37.7354 21.0344C37.9461 20.8274 38.0515 20.5701 38.0515 20.2623C38.0515 20.09 38.0164 19.9291 37.9462 19.7797C37.8758 19.6304 37.7914 19.5019 37.693 19.3942L32.4898 14.1909C32.1834 13.8936 31.8664 13.6766 31.5388 13.5398C31.2111 13.4032 30.8583 13.3349 30.4804 13.3349C30.1148 13.3349 29.7757 13.4091 29.463 13.5576C29.15 13.7062 28.845 13.9173 28.5479 14.1909L23.4485 19.2765C23.0582 19.6668 22.8038 20.1414 22.6853 20.7005C22.5667 21.2595 22.605 21.8026 22.8002 22.3296C22.8623 22.552 22.8326 22.7772 22.7112 23.0053C22.5901 23.2332 22.4064 23.3827 22.16 23.4538C21.9139 23.5249 21.6746 23.4976 21.442 23.372C21.2094 23.2461 21.0576 23.06 20.9864 22.8136C20.7147 21.9748 20.6783 21.1163 20.8772 20.2381C21.0759 19.36 21.4971 18.599 22.1408 17.9553L27.2264 12.8698C27.6643 12.4228 28.1609 12.0805 28.7161 11.8427C29.2714 11.6047 29.87 11.4856 30.5121 11.4856C31.1539 11.4856 31.7502 11.6047 32.3009 11.8427C32.8519 12.0805 33.3507 12.4228 33.7974 12.8698L34.7907 13.8627L35.7836 12.8342C36.2213 12.3873 36.7155 12.0449 37.2663 11.8071C37.817 11.5691 38.4134 11.4501 39.0555 11.4501C39.6975 11.4501 40.2902 11.5691 40.8336 11.8071C41.377 12.0449 41.8722 12.3873 42.3191 12.8342L48.6138 19.1289C49.0605 19.5758 49.4097 20.0824 49.6615 20.6485C49.9131 21.2147 50.0389 21.8188 50.0389 22.4609C50.0389 23.1029 49.9131 23.6993 49.6615 24.25C49.4097 24.8008 49.0605 25.2995 48.6138 25.7462L37.9829 36.3907C37.6692 36.7043 37.3274 36.9305 36.9576 37.0692C36.5877 37.2077 36.2009 37.2769 35.7972 37.2769Z" fill="#1C1B1F"/>
</g>
</g>
<defs>
<filter id="filter0_d_8_40" x="0.287624" y="0" width="69.6304" height="69.6304" filterUnits="userSpaceOnUse" color-interpolation-filters="sRGB">
<feFlood flood-opacity="0" result="BackgroundImageFix"/>
<feColorMatrix in="SourceAlpha" type="matrix" values="0 0 0 0 0 0 0 0 0 0 0 0 0 0 0 0 0 0 127 0" result="hardAlpha"/>
<feOffset dy="10.7124"/>
<feGaussianBlur stdDeviation="5.35619"/>
<feComposite in2="hardAlpha" operator="out"/>
<feColorMatrix type="matrix" values="0 0 0 0 0 0 0 0 0 0 0 0 0 0 0 0 0 0 0.05 0"/>
<feBlend mode="normal" in2="BackgroundImageFix" result="effect1_dropShadow_8_40"/>
<feBlend mode="normal" in="SourceGraphic" in2="effect1_dropShadow_8_40" result="shape"/>
</filter>
</defs>
</svg>
