<svg width="32" height="24" viewBox="0 0 32 24" fill="none" xmlns="http://www.w3.org/2000/svg">
<mask id="mask0_78_3583" style="mask-type:luminance" maskUnits="userSpaceOnUse" x="4" y="0" width="24" height="24">
<path d="M17.5335 16.3501L25.0785 15.7751C25.3526 15.754 25.6274 15.8061 25.8748 15.926C26.1222 16.0458 26.3334 16.2292 26.4869 16.4573C26.6403 16.6855 26.7304 16.9502 26.7481 17.2246C26.7658 17.499 26.7103 17.7731 26.5875 18.0191C26.4114 18.3697 26.1097 18.6411 25.7425 18.7791L15.3085 22.6911C14.6658 22.9326 13.9596 22.9456 13.3085 22.7281L5.31445 20.0641" stroke="white" stroke-width="1.5" stroke-linecap="round" stroke-linejoin="round"/>
<path d="M10.5645 17.0638H16.3525C16.6325 17.0638 16.9054 16.9757 17.1326 16.812C17.3598 16.6484 17.5297 16.4174 17.6185 16.1518C17.6757 15.9797 17.6972 15.7977 17.6818 15.6169C17.6663 15.4362 17.6142 15.2605 17.5286 15.1005C17.4429 14.9406 17.3256 14.7998 17.1837 14.6867C17.0419 14.5736 16.8785 14.4906 16.7035 14.4428L10.7655 12.8238C10.1388 12.6524 9.48251 12.6183 8.84145 12.7238L5.31445 13.3118M12.7305 2.96584L9.06445 5.71584L12.7305 8.46584M21.8975 2.96584L25.5645 5.71584L21.8975 8.46584M18.2305 1.13184L16.3975 10.2988" stroke="white" stroke-width="1.5" stroke-linecap="round" stroke-linejoin="round"/>
</mask>
<g mask="url(#mask0_78_3583)">
<path d="M28 0H4V24H28V0Z" fill="#FFD300"/>
</g>
</svg>
