<svg width="5" height="9" viewBox="0 0 5 9" fill="none" xmlns="http://www.w3.org/2000/svg">
<path d="M0.225195 3.775L3.8502 0.15C3.9002 0.1 3.95436 0.0625 4.0127 0.0375C4.07103 0.0125 4.13353 -2.47698e-08 4.2002 -2.18557e-08C4.33353 -1.60275e-08 4.4502 0.0458333 4.5502 0.1375C4.6502 0.229167 4.7002 0.35 4.7002 0.5L4.70019 8.1C4.70019 8.25 4.65019 8.37083 4.55019 8.4625C4.45019 8.55417 4.33353 8.6 4.20019 8.6C4.16686 8.6 4.05019 8.55 3.85019 8.45L0.225195 4.825C0.141861 4.74167 0.0835278 4.65833 0.0501945 4.575C0.0168612 4.49167 0.000194834 4.4 0.000194838 4.3C0.000194843 4.2 0.0168613 4.10833 0.0501946 4.025C0.0835279 3.94167 0.141861 3.85833 0.225195 3.775Z" fill="#1C1B1F"/>
</svg>
