<svg width="62" height="62" viewBox="0 0 62 62" fill="none" xmlns="http://www.w3.org/2000/svg">
<rect width="62" height="62" rx="12" fill="#E7E7E8"/>
<g clip-path="url(#clip0_147_27546)">
<path d="M21.4414 43.1133C21.9102 43.1133 22.2383 42.8789 22.7891 42.3633L26.1992 39.1875C25.543 38.6602 25.0039 37.8281 25.0039 35.918V28.1484C25.0039 24.5625 27.1836 22.418 30.7812 22.418H38.9844L38.9727 21.9844C38.7969 19.5703 37.2148 18.0117 34.5312 18.0117H18.4531C15.7695 18.0117 14 19.6172 14 22.418V33.9258C14 36.7031 15.7695 38.4961 18.4531 38.4961H20.3984V41.918C20.3984 42.6328 20.7852 43.1133 21.4414 43.1133ZM40.3789 44.7305C41.0469 44.7305 41.4219 44.2617 41.4219 43.5352V40.125H42.6641C45.3477 40.125 47.1172 38.332 47.1172 35.543V28.418C47.1172 25.6289 45.3477 24.0234 42.6641 24.0234H31.0508C28.25 24.0234 26.6094 25.6289 26.6094 28.4297V35.543C26.6094 38.332 28.25 40.125 31.0508 40.125H34.8008L39.0312 43.9922C39.582 44.4961 39.9102 44.7305 40.3789 44.7305Z" fill="black"/>
</g>
<defs>
<clipPath id="clip0_147_27546">
<rect width="33.1172" height="26.7305" fill="white" transform="translate(14 18)"/>
</clipPath>
</defs>
</svg>
