<svg width="56" height="56" viewBox="0 0 56 56" fill="none" xmlns="http://www.w3.org/2000/svg">
<path d="M18.8125 12.875H39.4375C40.0219 12.875 40.5118 13.0739 40.9074 13.4718C41.3025 13.8691 41.5 14.3618 41.5 14.9499C41.5 15.5375 41.3025 16.026 40.9074 16.4156C40.5118 16.8052 40.0219 17 39.4375 17H18.8125C18.2281 17 17.7384 16.8011 17.3433 16.4033C16.9478 16.0059 16.75 15.5132 16.75 14.9251C16.75 14.3375 16.9478 13.849 17.3433 13.4594C17.7384 13.0698 18.2281 12.875 18.8125 12.875ZM18.8125 21.125H39.4375C40.0219 21.125 40.5118 21.3239 40.9074 21.7218C41.3025 22.1191 41.5 22.6118 41.5 23.1999C41.5 23.7875 41.3025 24.276 40.9074 24.6656C40.5118 25.0552 40.0219 25.25 39.4375 25.25H18.8125C18.2281 25.25 17.7384 25.0511 17.3433 24.6532C16.9478 24.2559 16.75 23.7632 16.75 23.1751C16.75 22.5875 16.9478 22.099 17.3433 21.7094C17.7384 21.3198 18.2281 21.125 18.8125 21.125ZM7.46875 55.5C5.46354 55.5 3.75923 54.7981 2.35581 53.3942C0.951938 51.9908 0.25 50.2865 0.25 48.2812V41.0625C0.25 40.4781 0.447771 39.9882 0.843313 39.5926C1.2384 39.1975 1.72812 39 2.3125 39H8.5V4.625C8.5 3.49062 8.90402 2.51942 9.71206 1.71137C10.5196 0.903791 11.4906 0.5 12.625 0.5H45.625C46.7594 0.5 47.7306 0.903791 48.5386 1.71137C49.3462 2.51942 49.75 3.49062 49.75 4.625V23.1875C49.75 23.7719 49.5511 24.2616 49.1533 24.6567C48.7559 25.0522 48.2632 25.25 47.6751 25.25C47.0875 25.25 46.599 25.0522 46.2094 24.6567C45.8198 24.2616 45.625 23.7719 45.625 23.1875V4.625H12.625V39H24.3125C24.8969 39 25.3868 39.1989 25.7824 39.5967C26.1775 39.9941 26.375 40.4868 26.375 41.0749C26.375 41.6625 26.1775 42.151 25.7824 42.5406C25.3868 42.9302 24.8969 43.125 24.3125 43.125H4.375V48.2812C4.375 49.1576 4.67292 49.8923 5.26875 50.4854C5.86458 51.0785 6.575 51.375 7.4 51.375H24.3125C24.8969 51.375 25.3868 51.5739 25.7824 51.9718C26.1775 52.3691 26.375 52.8618 26.375 53.4499C26.375 54.0375 26.1775 54.526 25.7824 54.9156C25.3868 55.3052 24.8969 55.5 24.3125 55.5H7.46875ZM30.5 53.4375V47.8688C30.5 47.6135 30.5458 47.3664 30.6375 47.1276C30.7292 46.8884 30.8896 46.6542 31.1188 46.425L45.6669 31.9346C46.0845 31.5166 46.5485 31.2145 47.0591 31.0284C47.5697 30.8428 48.0771 30.75 48.5813 30.75C49.1313 30.75 49.6583 30.8531 50.1625 31.0594C50.6667 31.2656 51.125 31.575 51.5375 31.9875L54.0813 34.5312C54.4938 34.9437 54.7917 35.4021 54.975 35.9062C55.1583 36.4104 55.25 36.9146 55.25 37.4188C55.25 37.9229 55.1469 38.4385 54.9406 38.9656C54.7344 39.4927 54.4232 39.9653 54.007 40.3833L39.575 54.8812C39.3458 55.1104 39.1116 55.2708 38.8724 55.3625C38.6336 55.4542 38.3865 55.5 38.1313 55.5H32.5625C31.9781 55.5 31.4884 55.3022 31.0933 54.9067C30.6978 54.5116 30.5 54.0219 30.5 53.4375ZM34.625 51.375H37.2375L45.5563 42.9875L44.3187 41.6813L43.0125 40.4438L34.625 48.7625V51.375ZM44.3187 41.6813L43.0125 40.4438L45.5563 42.9875L44.3187 41.6813Z" fill="#FF4545"/>
</svg>
