<svg width="300" height="154" viewBox="0 0 300 154" fill="none" xmlns="http://www.w3.org/2000/svg">
<path d="M1.5 39.5H288C294.351 39.5 299.5 44.6487 299.5 51C299.5 57.3513 294.351 62.5 288 62.5H1.5V39.5Z" fill="url(#paint0_linear_64_17)"/>
<path d="M1.5 39.5H288C294.351 39.5 299.5 44.6487 299.5 51C299.5 57.3513 294.351 62.5 288 62.5H1.5V39.5Z" stroke="#C1C1C1"/>
<g opacity="0.2" filter="url(#filter0_f_64_17)">
<mask id="path-2-inside-1_64_17" fill="white">
<path d="M247.955 30V26.7642L256.54 18.3487C257.361 17.5196 258.045 16.7831 258.592 16.1392C259.14 15.4953 259.55 14.8714 259.824 14.2678C260.098 13.6641 260.234 13.0201 260.234 12.3359C260.234 11.5552 260.057 10.8871 259.703 10.3317C259.349 9.76823 258.862 9.33357 258.242 9.0277C257.622 8.72183 256.918 8.56889 256.129 8.56889C255.316 8.56889 254.604 8.73793 253.992 9.07599C253.38 9.40601 252.906 9.87689 252.567 10.4886C252.237 11.1004 252.072 11.8288 252.072 12.674H247.81C247.81 11.1044 248.169 9.74006 248.885 8.58096C249.601 7.42187 250.587 6.52438 251.843 5.88849C253.107 5.2526 254.556 4.93466 256.19 4.93466C257.848 4.93466 259.305 5.24455 260.56 5.86435C261.816 6.48414 262.79 7.33333 263.482 8.41193C264.183 9.49053 264.533 10.7221 264.533 12.1065C264.533 13.0322 264.356 13.9418 264.001 14.8352C263.647 15.7287 263.023 16.7187 262.13 17.8054C261.245 18.892 260.001 20.2081 258.399 21.7536L254.137 26.0881V26.2571H264.907V30H247.955ZM272.695 11.4545L276.438 18.3004L280.241 11.4545H284.865L279.275 20.7273L284.962 30H280.362L276.438 23.3232L272.55 30H267.913L273.564 20.7273L268.058 11.4545H272.695Z"/>
</mask>
<path d="M247.955 30V26.7642L256.54 18.3487C257.361 17.5196 258.045 16.7831 258.592 16.1392C259.14 15.4953 259.55 14.8714 259.824 14.2678C260.098 13.6641 260.234 13.0201 260.234 12.3359C260.234 11.5552 260.057 10.8871 259.703 10.3317C259.349 9.76823 258.862 9.33357 258.242 9.0277C257.622 8.72183 256.918 8.56889 256.129 8.56889C255.316 8.56889 254.604 8.73793 253.992 9.07599C253.38 9.40601 252.906 9.87689 252.567 10.4886C252.237 11.1004 252.072 11.8288 252.072 12.674H247.81C247.81 11.1044 248.169 9.74006 248.885 8.58096C249.601 7.42187 250.587 6.52438 251.843 5.88849C253.107 5.2526 254.556 4.93466 256.19 4.93466C257.848 4.93466 259.305 5.24455 260.56 5.86435C261.816 6.48414 262.79 7.33333 263.482 8.41193C264.183 9.49053 264.533 10.7221 264.533 12.1065C264.533 13.0322 264.356 13.9418 264.001 14.8352C263.647 15.7287 263.023 16.7187 262.13 17.8054C261.245 18.892 260.001 20.2081 258.399 21.7536L254.137 26.0881V26.2571H264.907V30H247.955ZM272.695 11.4545L276.438 18.3004L280.241 11.4545H284.865L279.275 20.7273L284.962 30H280.362L276.438 23.3232L272.55 30H267.913L273.564 20.7273L268.058 11.4545H272.695Z" fill="url(#paint1_linear_64_17)"/>
<path d="M247.955 30H246.955V31H247.955V30ZM247.955 26.7642L247.255 26.0501L246.955 26.3442V26.7642H247.955ZM256.54 18.3487L257.24 19.0628L257.245 19.0576L257.25 19.0524L256.54 18.3487ZM259.824 14.2678L260.735 14.6806L260.735 14.6806L259.824 14.2678ZM259.703 10.3317L258.856 10.8639L258.86 10.8693L259.703 10.3317ZM258.242 9.0277L257.8 9.92444L257.8 9.92444L258.242 9.0277ZM253.992 9.07599L254.467 9.95614L254.476 9.95124L253.992 9.07599ZM252.567 10.4886L251.692 10.0049L251.687 10.0138L252.567 10.4886ZM252.072 12.674V13.674H253.072V12.674H252.072ZM247.81 12.674H246.81V13.674H247.81V12.674ZM248.885 8.58096L249.736 9.10671L249.736 9.10671L248.885 8.58096ZM251.843 5.88849L251.394 4.9952L251.391 4.99637L251.843 5.88849ZM260.56 5.86435L261.003 4.96763L261.003 4.96763L260.56 5.86435ZM263.482 8.41193L262.641 8.95206L262.644 8.95648L263.482 8.41193ZM264.001 14.8352L263.072 14.4667L263.072 14.4667L264.001 14.8352ZM262.13 17.8054L261.358 17.1703L261.355 17.1737L262.13 17.8054ZM258.399 21.7536L257.705 21.0339L257.695 21.043L257.686 21.0524L258.399 21.7536ZM254.137 26.0881L253.424 25.3869L253.137 25.6788V26.0881H254.137ZM254.137 26.2571H253.137V27.2571H254.137V26.2571ZM264.907 26.2571H265.907V25.2571H264.907V26.2571ZM264.907 30V31H265.907V30H264.907ZM248.955 30V26.7642H246.955V30H248.955ZM248.655 27.4783L257.24 19.0628L255.84 17.6346L247.255 26.0501L248.655 27.4783ZM257.25 19.0524C258.083 18.2115 258.786 17.4558 259.354 16.7869L257.83 15.4916C257.304 16.1105 256.639 16.8278 255.829 17.6451L257.25 19.0524ZM259.354 16.7869C259.946 16.0904 260.414 15.3887 260.735 14.6806L258.913 13.8549C258.687 14.3542 258.333 14.9001 257.83 15.4916L259.354 16.7869ZM260.735 14.6806C261.069 13.943 261.234 13.1578 261.234 12.3359H259.234C259.234 12.8824 259.126 13.3851 258.913 13.8549L260.735 14.6806ZM261.234 12.3359C261.234 11.4005 261.021 10.5378 260.546 9.79401L258.86 10.8693C259.094 11.2364 259.234 11.7099 259.234 12.3359H261.234ZM260.55 9.7995C260.093 9.0733 259.464 8.51535 258.685 8.13095L257.8 9.92444C258.26 10.1518 258.605 10.4632 258.856 10.8638L260.55 9.7995ZM258.685 8.13096C257.909 7.74814 257.05 7.56889 256.129 7.56889V9.56889C256.786 9.56889 257.336 9.69552 257.8 9.92444L258.685 8.13096ZM256.129 7.56889C255.175 7.56889 254.291 7.76838 253.509 8.20075L254.476 9.95124C254.917 9.70747 255.458 9.56889 256.129 9.56889V7.56889ZM253.517 8.19589C252.736 8.61747 252.122 9.22641 251.692 10.005L253.443 10.9723C253.689 10.5274 254.025 10.1946 254.467 9.95609L253.517 8.19589ZM251.687 10.0138C251.263 10.7998 251.072 11.6986 251.072 12.674H253.072C253.072 11.9591 253.212 11.401 253.448 10.9634L251.687 10.0138ZM252.072 11.674H247.81V13.674H252.072V11.674ZM248.81 12.674C248.81 11.2613 249.131 10.085 249.736 9.10671L248.034 8.05522C247.206 9.3951 246.81 10.9475 246.81 12.674H248.81ZM249.736 9.10671C250.352 8.10944 251.198 7.33627 252.295 6.78062L251.391 4.99637C249.977 5.71249 248.851 6.73431 248.034 8.05522L249.736 9.10671ZM252.293 6.78178C253.397 6.2262 254.687 5.93466 256.19 5.93466V3.93466C254.424 3.93466 252.817 4.27901 251.394 4.99521L252.293 6.78178ZM256.19 5.93466C257.722 5.93466 259.023 6.22063 260.118 6.76106L261.003 4.96763C259.587 4.26848 257.973 3.93466 256.19 3.93466V5.93466ZM260.118 6.76106C261.226 7.30813 262.056 8.04035 262.641 8.95205L264.324 7.87181C263.524 6.62632 262.406 5.66014 261.003 4.96763L260.118 6.76106ZM262.644 8.95648C263.23 9.86046 263.533 10.8999 263.533 12.1065H265.533C265.533 10.5442 265.135 9.1206 264.321 7.86738L262.644 8.95648ZM263.533 12.1065C263.533 12.9012 263.381 13.686 263.072 14.4667L264.931 15.2037C265.33 14.1975 265.533 13.1632 265.533 12.1065H263.533ZM263.072 14.4667C262.769 15.2302 262.213 16.1302 261.358 17.1703L262.902 18.4405C263.834 17.3073 264.525 16.2272 264.931 15.2037L263.072 14.4667ZM261.355 17.1737C260.505 18.217 259.292 19.5021 257.705 21.0339L259.093 22.4732C260.709 20.9141 261.984 19.5671 262.905 18.4371L261.355 17.1737ZM257.686 21.0524L253.424 25.3869L254.85 26.7892L259.112 22.4547L257.686 21.0524ZM253.137 26.0881V26.2571H255.137V26.0881H253.137ZM254.137 27.2571H264.907V25.2571H254.137V27.2571ZM263.907 26.2571V30H265.907V26.2571H263.907ZM264.907 29H247.955V31H264.907V29ZM272.695 11.4545L273.572 10.9748L273.288 10.4545H272.695V11.4545ZM276.438 18.3004L275.56 18.7801L276.43 20.3722L277.312 18.7861L276.438 18.3004ZM280.241 11.4545V10.4545H279.652L279.367 10.9689L280.241 11.4545ZM284.865 11.4545L285.721 11.9708L286.636 10.4545H284.865V11.4545ZM279.275 20.7273L278.418 20.211L278.105 20.7317L278.422 21.2501L279.275 20.7273ZM284.962 30V31H286.748L285.814 29.4772L284.962 30ZM280.362 30L279.499 30.5067L279.789 31H280.362V30ZM276.438 23.3232L277.3 22.8165L276.433 21.3427L275.573 22.82L276.438 23.3232ZM272.55 30V31H273.125L273.414 30.5032L272.55 30ZM267.913 30L267.059 29.4796L266.133 31H267.913V30ZM273.564 20.7273L274.418 21.2476L274.731 20.734L274.424 20.2167L273.564 20.7273ZM268.058 11.4545V10.4545H266.302L267.198 11.9651L268.058 11.4545ZM271.817 11.9343L275.56 18.7801L277.315 17.8207L273.572 10.9748L271.817 11.9343ZM277.312 18.7861L281.115 11.9402L279.367 10.9689L275.563 17.8148L277.312 18.7861ZM280.241 12.4545H284.865V10.4545H280.241V12.4545ZM284.009 10.9382L278.418 20.211L280.131 21.2436L285.721 11.9708L284.009 10.9382ZM278.422 21.2501L284.109 30.5228L285.814 29.4772L280.127 20.2045L278.422 21.2501ZM284.962 29H280.362V31H284.962V29ZM281.224 29.4933L277.3 22.8165L275.575 23.8298L279.499 30.5067L281.224 29.4933ZM275.573 22.82L271.686 29.4968L273.414 30.5032L277.302 23.8263L275.573 22.82ZM272.55 29H267.913V31H272.55V29ZM268.767 30.5204L274.418 21.2476L272.71 20.2069L267.059 29.4796L268.767 30.5204ZM274.424 20.2167L268.918 10.944L267.198 11.9651L272.704 21.2378L274.424 20.2167ZM268.058 12.4545H272.695V10.4545H268.058V12.4545Z" fill="#C1C1C1" mask="url(#path-2-inside-1_64_17)"/>
</g>
<mask id="path-4-inside-2_64_17" fill="white">
<path d="M247.955 30V26.7642L256.54 18.3487C257.361 17.5196 258.045 16.7831 258.592 16.1392C259.14 15.4953 259.55 14.8714 259.824 14.2678C260.098 13.6641 260.234 13.0201 260.234 12.3359C260.234 11.5552 260.057 10.8871 259.703 10.3317C259.349 9.76823 258.862 9.33357 258.242 9.0277C257.622 8.72183 256.918 8.56889 256.129 8.56889C255.316 8.56889 254.604 8.73793 253.992 9.07599C253.38 9.40601 252.906 9.87689 252.567 10.4886C252.237 11.1004 252.072 11.8288 252.072 12.674H247.81C247.81 11.1044 248.169 9.74006 248.885 8.58096C249.601 7.42187 250.587 6.52438 251.843 5.88849C253.107 5.2526 254.556 4.93466 256.19 4.93466C257.848 4.93466 259.305 5.24455 260.56 5.86435C261.816 6.48414 262.79 7.33333 263.482 8.41193C264.183 9.49053 264.533 10.7221 264.533 12.1065C264.533 13.0322 264.356 13.9418 264.001 14.8352C263.647 15.7287 263.023 16.7187 262.13 17.8054C261.245 18.892 260.001 20.2081 258.399 21.7536L254.137 26.0881V26.2571H264.907V30H247.955ZM272.695 11.4545L276.438 18.3004L280.241 11.4545H284.865L279.275 20.7273L284.962 30H280.362L276.438 23.3232L272.55 30H267.913L273.564 20.7273L268.058 11.4545H272.695Z"/>
</mask>
<path d="M247.955 30V26.7642L256.54 18.3487C257.361 17.5196 258.045 16.7831 258.592 16.1392C259.14 15.4953 259.55 14.8714 259.824 14.2678C260.098 13.6641 260.234 13.0201 260.234 12.3359C260.234 11.5552 260.057 10.8871 259.703 10.3317C259.349 9.76823 258.862 9.33357 258.242 9.0277C257.622 8.72183 256.918 8.56889 256.129 8.56889C255.316 8.56889 254.604 8.73793 253.992 9.07599C253.38 9.40601 252.906 9.87689 252.567 10.4886C252.237 11.1004 252.072 11.8288 252.072 12.674H247.81C247.81 11.1044 248.169 9.74006 248.885 8.58096C249.601 7.42187 250.587 6.52438 251.843 5.88849C253.107 5.2526 254.556 4.93466 256.19 4.93466C257.848 4.93466 259.305 5.24455 260.56 5.86435C261.816 6.48414 262.79 7.33333 263.482 8.41193C264.183 9.49053 264.533 10.7221 264.533 12.1065C264.533 13.0322 264.356 13.9418 264.001 14.8352C263.647 15.7287 263.023 16.7187 262.13 17.8054C261.245 18.892 260.001 20.2081 258.399 21.7536L254.137 26.0881V26.2571H264.907V30H247.955ZM272.695 11.4545L276.438 18.3004L280.241 11.4545H284.865L279.275 20.7273L284.962 30H280.362L276.438 23.3232L272.55 30H267.913L273.564 20.7273L268.058 11.4545H272.695Z" fill="url(#paint2_linear_64_17)"/>
<path d="M247.955 30H246.955V31H247.955V30ZM247.955 26.7642L247.255 26.0501L246.955 26.3442V26.7642H247.955ZM256.54 18.3487L257.24 19.0628L257.245 19.0576L257.25 19.0524L256.54 18.3487ZM259.824 14.2678L260.735 14.6806L260.735 14.6806L259.824 14.2678ZM259.703 10.3317L258.856 10.8639L258.86 10.8693L259.703 10.3317ZM258.242 9.0277L257.8 9.92444L257.8 9.92444L258.242 9.0277ZM253.992 9.07599L254.467 9.95614L254.476 9.95124L253.992 9.07599ZM252.567 10.4886L251.692 10.0049L251.687 10.0138L252.567 10.4886ZM252.072 12.674V13.674H253.072V12.674H252.072ZM247.81 12.674H246.81V13.674H247.81V12.674ZM248.885 8.58096L249.736 9.10671L249.736 9.10671L248.885 8.58096ZM251.843 5.88849L251.394 4.9952L251.391 4.99637L251.843 5.88849ZM260.56 5.86435L261.003 4.96763L261.003 4.96763L260.56 5.86435ZM263.482 8.41193L262.641 8.95206L262.644 8.95648L263.482 8.41193ZM264.001 14.8352L263.072 14.4667L263.072 14.4667L264.001 14.8352ZM262.13 17.8054L261.358 17.1703L261.355 17.1737L262.13 17.8054ZM258.399 21.7536L257.705 21.0339L257.695 21.043L257.686 21.0524L258.399 21.7536ZM254.137 26.0881L253.424 25.3869L253.137 25.6788V26.0881H254.137ZM254.137 26.2571H253.137V27.2571H254.137V26.2571ZM264.907 26.2571H265.907V25.2571H264.907V26.2571ZM264.907 30V31H265.907V30H264.907ZM248.955 30V26.7642H246.955V30H248.955ZM248.655 27.4783L257.24 19.0628L255.84 17.6346L247.255 26.0501L248.655 27.4783ZM257.25 19.0524C258.083 18.2115 258.786 17.4558 259.354 16.7869L257.83 15.4916C257.304 16.1105 256.639 16.8278 255.829 17.6451L257.25 19.0524ZM259.354 16.7869C259.946 16.0904 260.414 15.3887 260.735 14.6806L258.913 13.8549C258.687 14.3542 258.333 14.9001 257.83 15.4916L259.354 16.7869ZM260.735 14.6806C261.069 13.943 261.234 13.1578 261.234 12.3359H259.234C259.234 12.8824 259.126 13.3851 258.913 13.8549L260.735 14.6806ZM261.234 12.3359C261.234 11.4005 261.021 10.5378 260.546 9.79401L258.86 10.8693C259.094 11.2364 259.234 11.7099 259.234 12.3359H261.234ZM260.55 9.7995C260.093 9.0733 259.464 8.51535 258.685 8.13095L257.8 9.92444C258.26 10.1518 258.605 10.4632 258.856 10.8638L260.55 9.7995ZM258.685 8.13096C257.909 7.74814 257.05 7.56889 256.129 7.56889V9.56889C256.786 9.56889 257.336 9.69552 257.8 9.92444L258.685 8.13096ZM256.129 7.56889C255.175 7.56889 254.291 7.76838 253.509 8.20075L254.476 9.95124C254.917 9.70747 255.458 9.56889 256.129 9.56889V7.56889ZM253.517 8.19589C252.736 8.61747 252.122 9.22641 251.692 10.005L253.443 10.9723C253.689 10.5274 254.025 10.1946 254.467 9.95609L253.517 8.19589ZM251.687 10.0138C251.263 10.7998 251.072 11.6986 251.072 12.674H253.072C253.072 11.9591 253.212 11.401 253.448 10.9634L251.687 10.0138ZM252.072 11.674H247.81V13.674H252.072V11.674ZM248.81 12.674C248.81 11.2613 249.131 10.085 249.736 9.10671L248.034 8.05522C247.206 9.3951 246.81 10.9475 246.81 12.674H248.81ZM249.736 9.10671C250.352 8.10944 251.198 7.33627 252.295 6.78062L251.391 4.99637C249.977 5.71249 248.851 6.73431 248.034 8.05522L249.736 9.10671ZM252.293 6.78178C253.397 6.2262 254.687 5.93466 256.19 5.93466V3.93466C254.424 3.93466 252.817 4.27901 251.394 4.99521L252.293 6.78178ZM256.19 5.93466C257.722 5.93466 259.023 6.22063 260.118 6.76106L261.003 4.96763C259.587 4.26848 257.973 3.93466 256.19 3.93466V5.93466ZM260.118 6.76106C261.226 7.30813 262.056 8.04035 262.641 8.95205L264.324 7.87181C263.524 6.62632 262.406 5.66014 261.003 4.96763L260.118 6.76106ZM262.644 8.95648C263.23 9.86046 263.533 10.8999 263.533 12.1065H265.533C265.533 10.5442 265.135 9.1206 264.321 7.86738L262.644 8.95648ZM263.533 12.1065C263.533 12.9012 263.381 13.686 263.072 14.4667L264.931 15.2037C265.33 14.1975 265.533 13.1632 265.533 12.1065H263.533ZM263.072 14.4667C262.769 15.2302 262.213 16.1302 261.358 17.1703L262.902 18.4405C263.834 17.3073 264.525 16.2272 264.931 15.2037L263.072 14.4667ZM261.355 17.1737C260.505 18.217 259.292 19.5021 257.705 21.0339L259.093 22.4732C260.709 20.9141 261.984 19.5671 262.905 18.4371L261.355 17.1737ZM257.686 21.0524L253.424 25.3869L254.85 26.7892L259.112 22.4547L257.686 21.0524ZM253.137 26.0881V26.2571H255.137V26.0881H253.137ZM254.137 27.2571H264.907V25.2571H254.137V27.2571ZM263.907 26.2571V30H265.907V26.2571H263.907ZM264.907 29H247.955V31H264.907V29ZM272.695 11.4545L273.572 10.9748L273.288 10.4545H272.695V11.4545ZM276.438 18.3004L275.56 18.7801L276.43 20.3722L277.312 18.7861L276.438 18.3004ZM280.241 11.4545V10.4545H279.652L279.367 10.9689L280.241 11.4545ZM284.865 11.4545L285.721 11.9708L286.636 10.4545H284.865V11.4545ZM279.275 20.7273L278.418 20.211L278.105 20.7317L278.422 21.2501L279.275 20.7273ZM284.962 30V31H286.748L285.814 29.4772L284.962 30ZM280.362 30L279.499 30.5067L279.789 31H280.362V30ZM276.438 23.3232L277.3 22.8165L276.433 21.3427L275.573 22.82L276.438 23.3232ZM272.55 30V31H273.125L273.414 30.5032L272.55 30ZM267.913 30L267.059 29.4796L266.133 31H267.913V30ZM273.564 20.7273L274.418 21.2476L274.731 20.734L274.424 20.2167L273.564 20.7273ZM268.058 11.4545V10.4545H266.302L267.198 11.9651L268.058 11.4545ZM271.817 11.9343L275.56 18.7801L277.315 17.8207L273.572 10.9748L271.817 11.9343ZM277.312 18.7861L281.115 11.9402L279.367 10.9689L275.563 17.8148L277.312 18.7861ZM280.241 12.4545H284.865V10.4545H280.241V12.4545ZM284.009 10.9382L278.418 20.211L280.131 21.2436L285.721 11.9708L284.009 10.9382ZM278.422 21.2501L284.109 30.5228L285.814 29.4772L280.127 20.2045L278.422 21.2501ZM284.962 29H280.362V31H284.962V29ZM281.224 29.4933L277.3 22.8165L275.575 23.8298L279.499 30.5067L281.224 29.4933ZM275.573 22.82L271.686 29.4968L273.414 30.5032L277.302 23.8263L275.573 22.82ZM272.55 29H267.913V31H272.55V29ZM268.767 30.5204L274.418 21.2476L272.71 20.2069L267.059 29.4796L268.767 30.5204ZM274.424 20.2167L268.918 10.944L267.198 11.9651L272.704 21.2378L274.424 20.2167ZM268.058 12.4545H272.695V10.4545H268.058V12.4545Z" fill="#C1C1C1" mask="url(#path-4-inside-2_64_17)"/>
<path d="M1.5 107.5H119C125.351 107.5 130.5 112.649 130.5 119C130.5 125.351 125.351 130.5 119 130.5H1.5V107.5Z" fill="#A5A5A5"/>
<path d="M1.5 107.5H119C125.351 107.5 130.5 112.649 130.5 119C130.5 125.351 125.351 130.5 119 130.5H1.5V107.5Z" stroke="#C1C1C1"/>
<line x1="0.5" y1="15" x2="0.500006" y2="154" stroke="#C1C1C1"/>
<defs>
<filter id="filter0_f_64_17" x="243.81" y="0.93457" width="45.1514" height="33.0654" filterUnits="userSpaceOnUse" color-interpolation-filters="sRGB">
<feFlood flood-opacity="0" result="BackgroundImageFix"/>
<feBlend mode="normal" in="SourceGraphic" in2="BackgroundImageFix" result="shape"/>
<feGaussianBlur stdDeviation="2" result="effect1_foregroundBlur_64_17"/>
</filter>
<linearGradient id="paint0_linear_64_17" x1="65.8872" y1="51" x2="300" y2="51" gradientUnits="userSpaceOnUse">
<stop stop-color="#A966FF"/>
<stop offset="1" stop-color="#E6D3FF"/>
</linearGradient>
<linearGradient id="paint1_linear_64_17" x1="265.5" y1="24.1667" x2="280.587" y2="12.1389" gradientUnits="userSpaceOnUse">
<stop stop-color="#A966FF"/>
<stop offset="1" stop-color="#E6D3FF"/>
</linearGradient>
<linearGradient id="paint2_linear_64_17" x1="265.5" y1="24.1667" x2="280.587" y2="12.1389" gradientUnits="userSpaceOnUse">
<stop stop-color="#A966FF"/>
<stop offset="1" stop-color="#E6D3FF"/>
</linearGradient>
</defs>
</svg>
