<svg width="84" height="17" viewBox="0 0 84 17" fill="none" xmlns="http://www.w3.org/2000/svg">
<g clip-path="url(#clip0_44_1186)">
<path d="M9.55078 8.47656C9.55078 8.35287 9.52637 8.23731 9.47754 8.12988C9.42871 8.02246 9.35873 7.92318 9.26758 7.83203L1.5332 0.253906C1.35742 0.0846353 1.14258 0 0.888672 0C0.725911 0 0.576172 0.0390627 0.439453 0.117188C0.302734 0.195313 0.195313 0.301107 0.117188 0.43457C0.0390627 0.568034 0 0.719401 0 0.888672C0 1.12956 0.0846353 1.34115 0.253906 1.52344L7.36328 8.47656L0.253906 15.4297C0.0846353 15.612 0 15.8236 0 16.0645C0 16.2338 0.0390627 16.3851 0.117188 16.5186C0.195313 16.6521 0.302734 16.7578 0.439453 16.8359C0.576172 16.914 0.725911 16.9531 0.888672 16.9531C1.14258 16.9531 1.35742 16.8652 1.5332 16.6895L9.26758 9.12109C9.35873 9.02995 9.42871 8.93067 9.47754 8.82324C9.52637 8.71582 9.55078 8.60026 9.55078 8.47656Z" fill="#1D1D1D"/>
</g>
<g clip-path="url(#clip1_44_1186)">
<path d="M28.1016 8.47656C28.1016 8.35287 28.0771 8.23731 28.0283 8.12988C27.9795 8.02246 27.9095 7.92318 27.8184 7.83203L20.084 0.253906C19.9082 0.0846353 19.6934 0 19.4395 0C19.2767 0 19.127 0.0390627 18.9902 0.117188C18.8535 0.195313 18.7461 0.301107 18.668 0.43457C18.5898 0.568034 18.5508 0.719401 18.5508 0.888672C18.5508 1.12956 18.6354 1.34115 18.8047 1.52344L25.9141 8.47656L18.8047 15.4297C18.6354 15.612 18.5508 15.8236 18.5508 16.0645C18.5508 16.2338 18.5898 16.3851 18.668 16.5186C18.7461 16.6521 18.8535 16.7578 18.9902 16.8359C19.127 16.914 19.2767 16.9531 19.4395 16.9531C19.6934 16.9531 19.9082 16.8652 20.084 16.6895L27.8184 9.12109C27.9095 9.02995 27.9795 8.93067 28.0283 8.82324C28.0771 8.71582 28.1016 8.60026 28.1016 8.47656Z" fill="#292929"/>
</g>
<g clip-path="url(#clip2_44_1186)">
<path d="M46.6523 8.47656C46.6523 8.35287 46.6279 8.23731 46.5791 8.12988C46.5303 8.02246 46.4603 7.92318 46.3691 7.83203L38.6348 0.253906C38.459 0.0846353 38.2441 0 37.9902 0C37.8275 0 37.6777 0.0390627 37.541 0.117188C37.4043 0.195313 37.2969 0.301107 37.2188 0.43457C37.1406 0.568034 37.1016 0.719401 37.1016 0.888672C37.1016 1.12956 37.1862 1.34115 37.3555 1.52344L44.4648 8.47656L37.3555 15.4297C37.1862 15.612 37.1016 15.8236 37.1016 16.0645C37.1016 16.2338 37.1406 16.3851 37.2188 16.5186C37.2969 16.6521 37.4043 16.7578 37.541 16.8359C37.6777 16.914 37.8275 16.9531 37.9902 16.9531C38.2441 16.9531 38.459 16.8652 38.6348 16.6895L46.3691 9.12109C46.4603 9.02995 46.5303 8.93067 46.5791 8.82324C46.6279 8.71582 46.6523 8.60026 46.6523 8.47656Z" fill="#5B5B5B"/>
</g>
<g clip-path="url(#clip3_44_1186)">
<path d="M65.2031 8.47656C65.2031 8.35287 65.1787 8.23731 65.1299 8.12988C65.0811 8.02246 65.0111 7.92318 64.9199 7.83203L57.1855 0.253906C57.0098 0.0846353 56.7949 0 56.541 0C56.3783 0 56.2285 0.0390627 56.0918 0.117188C55.9551 0.195313 55.8477 0.301107 55.7695 0.43457C55.6914 0.568034 55.6523 0.719401 55.6523 0.888672C55.6523 1.12956 55.737 1.34115 55.9062 1.52344L63.0156 8.47656L55.9062 15.4297C55.737 15.612 55.6523 15.8236 55.6523 16.0645C55.6523 16.2338 55.6914 16.3851 55.7695 16.5186C55.8477 16.6521 55.9551 16.7578 56.0918 16.8359C56.2285 16.914 56.3783 16.9531 56.541 16.9531C56.7949 16.9531 57.0098 16.8652 57.1855 16.6895L64.9199 9.12109C65.0111 9.02995 65.0811 8.93067 65.1299 8.82324C65.1787 8.71582 65.2031 8.60026 65.2031 8.47656Z" fill="#A9A9A9"/>
</g>
<g clip-path="url(#clip4_44_1186)">
<path d="M83.7539 8.47656C83.7539 8.35287 83.7295 8.23731 83.6807 8.12988C83.6318 8.02246 83.5619 7.92318 83.4707 7.83203L75.7363 0.253906C75.5605 0.0846353 75.3457 0 75.0918 0C74.929 0 74.7793 0.0390627 74.6426 0.117188C74.5059 0.195313 74.3984 0.301107 74.3203 0.43457C74.2422 0.568034 74.2031 0.719401 74.2031 0.888672C74.2031 1.12956 74.2878 1.34115 74.457 1.52344L81.5664 8.47656L74.457 15.4297C74.2878 15.612 74.2031 15.8236 74.2031 16.0645C74.2031 16.2338 74.2422 16.3851 74.3203 16.5186C74.3984 16.6521 74.5059 16.7578 74.6426 16.8359C74.7793 16.914 74.929 16.9531 75.0918 16.9531C75.3457 16.9531 75.5605 16.8652 75.7363 16.6895L83.4707 9.12109C83.5619 9.02995 83.6318 8.93067 83.6807 8.82324C83.7295 8.71582 83.7539 8.60026 83.7539 8.47656Z" fill="#F0F0F0"/>
</g>
<defs>
<clipPath id="clip0_44_1186">
<rect width="9.55078" height="16.9629" fill="white"/>
</clipPath>
<clipPath id="clip1_44_1186">
<rect width="9.55078" height="16.9629" fill="white" transform="translate(18.5508)"/>
</clipPath>
<clipPath id="clip2_44_1186">
<rect width="9.55078" height="16.9629" fill="white" transform="translate(37.1016)"/>
</clipPath>
<clipPath id="clip3_44_1186">
<rect width="9.55078" height="16.9629" fill="white" transform="translate(55.6523)"/>
</clipPath>
<clipPath id="clip4_44_1186">
<rect width="9.55078" height="16.9629" fill="white" transform="translate(74.2031)"/>
</clipPath>
</defs>
</svg>
