<svg width="32" height="24" viewBox="0 0 32 24" fill="none" xmlns="http://www.w3.org/2000/svg">
<mask id="mask0_78_3597" style="mask-type:luminance" maskUnits="userSpaceOnUse" x="4" y="0" width="24" height="24">
<path d="M13.7345 23.023C11.7122 22.6071 9.84332 21.6428 8.33255 20.2356C6.82177 18.8284 5.72733 17.0326 5.16908 15.0449C4.61083 13.0572 4.6103 10.9542 5.16753 8.96623C5.72477 6.97824 6.81829 5.1819 8.32834 3.77394C9.8384 2.36598 11.7068 1.40068 13.7288 0.98375C15.7509 0.566819 17.8487 0.714334 19.7926 1.41014C21.7364 2.10595 23.4513 3.32322 24.7495 4.92865C26.0476 6.53408 26.879 8.46576 27.1525 10.5122M13.2886 22.9222C11.7675 20.6892 10.7496 16.6342 10.7496 12.0002C10.7496 7.36612 11.7675 3.31218 13.2884 1.07915M4.77442 11.251H16.7496M6.99853 5.25103H24.9996M6.04762 17.251H14.4996M18.7105 1.07915C19.8894 3.03961 20.6392 5.22771 20.9106 7.49915" stroke="white" stroke-width="1.5" stroke-linecap="round" stroke-linejoin="round"/>
<path d="M19.3751 13.1258C19.3711 13.473 19.4361 13.8176 19.5662 14.1395C19.6964 14.4615 19.8891 14.7544 20.1332 15.0014C20.3773 15.2483 20.6681 15.4444 20.9885 15.5782C21.3089 15.712 21.6527 15.7809 22 15.7809C22.3473 15.7809 22.6911 15.712 23.0115 15.5782C23.3319 15.4444 23.6227 15.2483 23.8668 15.0014C24.1109 14.7544 24.3037 14.4615 24.4338 14.1395C24.5639 13.8176 24.6289 13.473 24.6249 13.1258C24.6289 12.7786 24.5639 12.434 24.4338 12.112C24.3037 11.7901 24.1109 11.4972 23.8668 11.2502C23.6227 11.0033 23.3319 10.8072 23.0115 10.6734C22.6911 10.5396 22.3473 10.4707 22 10.4707C21.6527 10.4707 21.3089 10.5396 20.9885 10.6734C20.6681 10.8072 20.3773 11.0033 20.1332 11.2502C19.8891 11.4972 19.6964 11.7901 19.5662 12.112C19.4361 12.434 19.3711 12.7786 19.3751 13.1258ZM22 16.4998C20.6076 16.4998 19.2723 17.053 18.2877 18.0375C17.3031 19.0221 16.75 20.3575 16.75 21.7498V23.2498H27.25V21.7498C27.2501 21.0604 27.1144 20.3776 26.8506 19.7406C26.5868 19.1036 26.2001 18.5248 25.7126 18.0373C25.225 17.5498 24.6462 17.163 24.0092 16.8992C23.3722 16.6355 22.6895 16.4997 22 16.4998Z" stroke="white" stroke-width="1.5" stroke-linecap="round" stroke-linejoin="round"/>
</mask>
<g mask="url(#mask0_78_3597)">
<path d="M28 0H4V24H28V0Z" fill="#AEE938"/>
</g>
</svg>
