<svg width="62" height="62" viewBox="0 0 62 62" fill="none" xmlns="http://www.w3.org/2000/svg">
<rect width="62" height="62" rx="12" fill="#E7E7E8"/>
<g clip-path="url(#clip0_147_27534)">
<path d="M20.5438 46.1395H40.8507C44.3664 46.1395 46.1074 44.3983 46.1074 40.9496V20.5088C46.1074 17.0602 44.3664 15.3191 40.8507 15.3191H20.5438C17.0449 15.3191 15.2871 17.0434 15.2871 20.5088V40.9496C15.2871 44.415 17.0449 46.1395 20.5438 46.1395ZM23.507 37.6685C21.7994 37.6685 20.7614 36.6639 20.7614 34.9563V26.4686C20.7614 24.7443 21.8664 23.7566 23.507 23.7566H32.7145C34.4557 23.7566 35.3764 24.7443 35.3764 26.4686V34.9563C35.3764 36.6639 34.3553 37.6685 32.6308 37.6685H23.507ZM36.3474 33.0646V28.3604L39.7124 25.4642C39.997 25.2466 40.3653 25.0791 40.6665 25.0791C41.3195 25.0791 41.7715 25.5479 41.7715 26.251V35.1573C41.7715 35.8772 41.3195 36.3626 40.6665 36.3626C40.3653 36.3626 40.0137 36.1952 39.7124 35.944L36.3474 33.0646Z" fill="black"/>
</g>
<defs>
<clipPath id="clip0_147_27534">
<rect width="30.8203" height="30.8539" fill="white" transform="translate(15.2852 15.2858)"/>
</clipPath>
</defs>
</svg>
