<svg width="233" height="54" viewBox="0 0 233 54" fill="none" xmlns="http://www.w3.org/2000/svg">
<path d="M8.63078 43.2159C7.81306 48.1222 3.19488 52.7287 0.476929 53.8159C10.9139 53.8159 17.6 50.2825 19.2308 48.1082L27.3846 50.5543L26.5692 26.0928H9.44616V29.3543V32.6159V33.4312C9.44616 35.062 9.44616 38.3235 8.63078 43.2159Z" fill="#E9E9EB"/>
<rect x="7" width="257.138" height="53.8308" rx="26.9154" fill="#E9E9EB"/>
<path opacity="0.9" d="M33.5087 35.4155V27.9982L27.3934 18.1802H29.8419L34.4882 25.8364H34.6793L39.3255 18.1802H41.7741L35.6587 27.9982V35.4155H33.5087ZM47.7581 35.6425C44.0793 35.6425 41.8577 33.0625 41.8577 29.0254V29.0135C41.8577 25.0361 44.1271 22.3128 47.6267 22.3128C51.1263 22.3128 53.2524 24.9167 53.2524 28.7627V29.5749H43.9837C44.0434 32.2384 45.5126 33.7911 47.8058 33.7911C49.5497 33.7911 50.6247 32.967 50.971 32.1906L51.0188 32.0831H53.0971L53.0732 32.1787C52.6313 33.9225 50.7919 35.6425 47.7581 35.6425ZM47.6147 24.1642C45.7037 24.1642 44.2465 25.4661 44.0196 27.9146H51.1382C50.9233 25.3705 49.5139 24.1642 47.6147 24.1642ZM60.8966 35.6425C58.03 35.6425 56.0592 34.2569 55.8203 32.1309H57.9464C58.2928 33.2059 59.32 33.9106 60.9683 33.9106C62.7001 33.9106 63.9304 33.0864 63.9304 31.9159V31.892C63.9304 31.0201 63.2735 30.4109 61.6849 30.0287L59.6902 29.551C57.2775 28.9777 56.1906 27.9266 56.1906 26.0752V26.0633C56.1906 23.9253 58.245 22.3128 60.9802 22.3128C63.6796 22.3128 65.5548 23.6625 65.8414 25.7647H63.799C63.5243 24.7494 62.521 24.0447 60.9683 24.0447C59.4394 24.0447 58.3167 24.833 58.3167 25.9677V25.9916C58.3167 26.8635 58.9616 27.413 60.4785 27.7832L62.4613 28.261C64.8859 28.8463 66.0564 29.8973 66.0564 31.7367V31.7606C66.0564 34.0539 63.8229 35.6425 60.8966 35.6425ZM70.1533 29.6824L69.9502 18.1682H72.339L72.136 29.6824H70.1533ZM71.1566 35.6305C70.1891 35.6305 69.4963 34.9378 69.4963 33.9703C69.4963 32.9909 70.1891 32.2981 71.1566 32.2981C72.1241 32.2981 72.8049 32.9909 72.8049 33.9703C72.8049 34.9378 72.1241 35.6305 71.1566 35.6305ZM87.317 35.6425C84.8684 35.6425 83.0171 34.1614 83.0171 31.8204V31.7965C83.0171 29.5032 84.7131 28.1774 87.7111 27.9982L91.4018 27.7713V26.6008C91.4018 25.0122 90.4344 24.1522 88.5114 24.1522C86.9706 24.1522 85.9553 24.7255 85.6209 25.7289L85.609 25.7647H83.5307L83.5426 25.693C83.8771 23.6745 85.8359 22.3128 88.583 22.3128C91.7243 22.3128 93.4801 23.9253 93.4801 26.6008V35.4155H91.4018V33.5164H91.2107C90.3985 34.89 89.0489 35.6425 87.317 35.6425ZM85.1431 31.7726C85.1431 33.0745 86.2539 33.8389 87.7469 33.8389C89.8611 33.8389 91.4018 32.4534 91.4018 30.614V29.4435L87.9619 29.6585C86.0031 29.7779 85.1431 30.4707 85.1431 31.7487V31.7726ZM97.2784 35.4155V22.5398H99.3566V24.4747H99.5477C100.193 23.1131 101.399 22.3128 103.298 22.3128C106.189 22.3128 107.801 24.0208 107.801 27.0785V35.4155H105.723V27.5802C105.723 25.263 104.767 24.1522 102.713 24.1522C100.659 24.1522 99.3566 25.5377 99.3566 27.7952V35.4155H97.2784ZM116.317 35.6425C113.057 35.6425 110.919 33.0028 110.919 28.9896V28.9657C110.919 24.9286 113.045 22.3128 116.317 22.3128C118.085 22.3128 119.626 23.1967 120.33 24.5703H120.522V17.4277H122.6V35.4155H120.522V33.3611H120.33C119.542 34.7944 118.109 35.6425 116.317 35.6425ZM116.795 33.8031C119.136 33.8031 120.569 31.9637 120.569 28.9896V28.9657C120.569 25.9916 119.136 24.1522 116.795 24.1522C114.442 24.1522 113.045 25.9677 113.045 28.9657V28.9896C113.045 31.9876 114.442 33.8031 116.795 33.8031ZM133.732 35.4155V18.1802H135.882V33.4806H144.195V35.4155H133.732ZM148.471 20.0554C147.682 20.0554 147.038 19.4104 147.038 18.6221C147.038 17.8338 147.682 17.1888 148.471 17.1888C149.259 17.1888 149.904 17.8338 149.904 18.6221C149.904 19.4104 149.259 20.0554 148.471 20.0554ZM147.42 35.4155V22.5398H149.498V35.4155H147.42ZM157.059 35.4155L152.293 22.5398H154.491L158.014 33.1461H158.205L161.729 22.5398H163.926L159.161 35.4155H157.059ZM171.451 35.6425C167.772 35.6425 165.551 33.0625 165.551 29.0254V29.0135C165.551 25.0361 167.82 22.3128 171.32 22.3128C174.82 22.3128 176.946 24.9167 176.946 28.7627V29.5749H167.677C167.737 32.2384 169.206 33.7911 171.499 33.7911C173.243 33.7911 174.318 32.967 174.664 32.1906L174.712 32.0831H176.79L176.766 32.1787C176.324 33.9225 174.485 35.6425 171.451 35.6425ZM171.308 24.1642C169.397 24.1642 167.94 25.4661 167.713 27.9146H174.831C174.616 25.3705 173.207 24.1642 171.308 24.1642ZM192.318 35.6425C188.711 35.6425 186.405 33.0267 186.405 28.9418V28.9179C186.405 24.9167 188.699 22.3128 192.306 22.3128C195.435 22.3128 197.31 24.1164 197.692 26.4097L197.704 26.4813H195.638L195.626 26.4455C195.304 25.1794 194.157 24.1522 192.306 24.1522C189.989 24.1522 188.531 26.0155 188.531 28.9179V28.9418C188.531 31.904 190.012 33.8031 192.306 33.8031C194.038 33.8031 195.136 33.0386 195.614 31.6054L195.638 31.5337L197.692 31.5217L197.669 31.6531C197.143 33.9822 195.411 35.6425 192.318 35.6425ZM200.858 35.4155V17.4277H202.936V35.4155H200.858ZM210.461 35.6425C208.012 35.6425 206.161 34.1614 206.161 31.8204V31.7965C206.161 29.5032 207.857 28.1774 210.855 27.9982L214.546 27.7713V26.6008C214.546 25.0122 213.578 24.1522 211.655 24.1522C210.114 24.1522 209.099 24.7255 208.765 25.7289L208.753 25.7647H206.674L206.686 25.693C207.021 23.6745 208.98 22.3128 211.727 22.3128C214.868 22.3128 216.624 23.9253 216.624 26.6008V35.4155H214.546V33.5164H214.355C213.542 34.89 212.193 35.6425 210.461 35.6425ZM208.287 31.7726C208.287 33.0745 209.398 33.8389 210.891 33.8389C213.005 33.8389 214.546 32.4534 214.546 30.614V29.4435L211.106 29.6585C209.147 29.7779 208.287 30.4707 208.287 31.7487V31.7726ZM224.841 35.6425C221.975 35.6425 220.004 34.2569 219.765 32.1309H221.891C222.238 33.2059 223.265 33.9106 224.913 33.9106C226.645 33.9106 227.875 33.0864 227.875 31.9159V31.892C227.875 31.0201 227.218 30.4109 225.63 30.0287L223.635 29.551C221.222 28.9777 220.135 27.9266 220.135 26.0752V26.0633C220.135 23.9253 222.19 22.3128 224.925 22.3128C227.624 22.3128 229.5 23.6625 229.786 25.7647H227.744C227.469 24.7494 226.466 24.0447 224.913 24.0447C223.384 24.0447 222.262 24.833 222.262 25.9677V25.9916C222.262 26.8635 222.907 27.413 224.423 27.7832L226.406 28.261C228.831 28.8463 230.001 29.8973 230.001 31.7367V31.7606C230.001 34.0539 227.768 35.6425 224.841 35.6425ZM237.407 35.6425C234.54 35.6425 232.569 34.2569 232.33 32.1309H234.456C234.803 33.2059 235.83 33.9106 237.478 33.9106C239.21 33.9106 240.44 33.0864 240.44 31.9159V31.892C240.44 31.0201 239.784 30.4109 238.195 30.0287L236.2 29.551C233.788 28.9777 232.701 27.9266 232.701 26.0752V26.0633C232.701 23.9253 234.755 22.3128 237.49 22.3128C240.19 22.3128 242.065 23.6625 242.352 25.7647H240.309C240.034 24.7494 239.031 24.0447 237.478 24.0447C235.949 24.0447 234.827 24.833 234.827 25.9677V25.9916C234.827 26.8635 235.472 27.413 236.989 27.7832L238.971 28.261C241.396 28.8463 242.567 29.8973 242.567 31.7367V31.7606C242.567 34.0539 240.333 35.6425 237.407 35.6425Z" fill="black"/>
</svg>
