<svg width="44" height="44" viewBox="0 0 44 44" fill="none" xmlns="http://www.w3.org/2000/svg">
<g filter="url(#filter0_b_44_1117)">
<rect x="0.444336" width="43.5556" height="43.5556" rx="21.7778" fill="black" fill-opacity="0.16"/>
<path d="M21.0877 17.74L17.0498 20.8705C16.6415 19.3279 15.2803 18.1483 13.6016 18.1483H10.6979V25.3168H13.6016C15.2803 25.3168 16.7322 24.1825 17.0498 22.5946L21.0877 25.7251L25.1257 22.5946V25.3168H29.7081V23.865H26.7137V18.1483H25.035V20.8705L21.1785 24.0011L20.3618 23.2751L22.222 21.7779L24.2183 20.2353L23.084 19.2825L19.2276 22.277L18.4109 21.5511L22.2674 18.6474L21.0877 17.74ZM12.2405 19.6001H13.5109C13.7831 19.6001 14.01 19.6455 14.2368 19.7816C14.4637 19.8724 14.6905 20.0538 14.872 20.2353C15.0535 20.4168 15.1896 20.6437 15.3257 20.9159C15.4618 21.1881 15.5072 21.4603 15.5072 21.7779C15.5072 22.0501 15.4618 22.3224 15.3711 22.5946C15.2803 22.8668 15.1442 23.0937 14.9627 23.2751C14.7813 23.4566 14.5544 23.6381 14.3276 23.7742C14.1007 23.9103 13.8285 23.9557 13.5563 23.9557H12.2405V19.6001ZM34.9257 23.865V25.3168H30.3433V18.1483H32.022V23.865H34.9257ZM22.222 5.44458C13.284 5.44458 5.88867 12.84 5.88867 21.7779C5.88867 30.7159 13.1933 38.1113 22.222 38.1113C31.2507 38.1113 38.5553 30.8066 38.5553 21.7779C38.5553 12.7492 31.16 5.44458 22.222 5.44458ZM22.222 7.12328C23.2202 7.12328 24.2183 7.21402 25.1711 7.44088C26.1239 7.62236 27.0313 7.93995 27.9387 8.30291C28.8007 8.66588 29.6627 9.11958 30.434 9.66403C31.2053 10.2085 31.9313 10.7983 32.6118 11.4335C33.2924 12.0687 33.8822 12.84 34.3813 13.6112C34.9257 14.3825 35.3794 15.2446 35.7424 16.1066C36.1053 16.9687 36.4229 17.9214 36.6044 18.8742C36.7859 19.827 36.922 20.8251 36.922 21.8233C36.922 22.8214 36.8313 23.8196 36.6044 24.7724C36.4229 25.7251 36.1053 26.6325 35.7424 27.54C35.3794 28.402 34.9257 29.264 34.3813 30.0353C33.8368 30.8066 33.247 31.5325 32.6118 32.2131C31.9766 32.8937 31.2053 33.4835 30.434 33.9825C29.6627 34.527 28.8007 34.9807 27.9387 35.3437C27.0766 35.7066 26.1239 36.0242 25.1711 36.2057C24.2183 36.3872 23.2202 36.5233 22.222 36.5233C21.2239 36.5233 20.2257 36.4325 19.2729 36.2057C18.3202 36.0242 17.4127 35.7066 16.5053 35.3437C15.6433 34.9807 14.7813 34.527 14.01 33.9825C13.2387 33.4381 12.5127 32.8483 11.8322 32.2131C11.1516 31.5779 10.5618 30.8066 10.0627 30.0353C9.5183 29.264 9.0646 28.402 8.70164 27.54C8.33867 26.6779 8.02108 25.7251 7.8396 24.7724C7.65812 23.8196 7.52201 22.8214 7.52201 21.8233C7.52201 20.8251 7.61275 19.827 7.8396 18.8742C8.02108 17.9214 8.33867 17.014 8.70164 16.1066C9.0646 15.2446 9.5183 14.3825 10.0627 13.6112C10.6072 12.84 11.197 12.114 11.8322 11.4335C12.4674 10.7529 13.2387 10.1631 14.01 9.66403C14.7813 9.11958 15.6433 8.66588 16.5053 8.30291C17.3674 7.93995 18.3202 7.62236 19.2729 7.44088C20.2257 7.21402 21.2239 7.12328 22.222 7.12328Z" fill="white"/>
</g>
<defs>
<filter id="filter0_b_44_1117" x="-2.98566" y="-3.43" width="50.4157" height="50.4156" filterUnits="userSpaceOnUse" color-interpolation-filters="sRGB">
<feFlood flood-opacity="0" result="BackgroundImageFix"/>
<feGaussianBlur in="BackgroundImageFix" stdDeviation="1.715"/>
<feComposite in2="SourceAlpha" operator="in" result="effect1_backgroundBlur_44_1117"/>
<feBlend mode="normal" in="SourceGraphic" in2="effect1_backgroundBlur_44_1117" result="shape"/>
</filter>
</defs>
</svg>
