<svg width="105" height="47" viewBox="0 0 105 47" fill="none" xmlns="http://www.w3.org/2000/svg">
<g filter="url(#filter0_b_91_21237)">
<rect width="104.889" height="46.2552" rx="4.9" fill="black" fill-opacity="0.16"/>
<g clip-path="url(#clip0_91_21237)">
<path d="M19.9272 22.3439C23.5537 22.8674 25.1957 22.0918 26.9443 19.0755C28.0914 17.0976 29.2069 15.1014 30.3847 13.1427C31.2191 11.7544 31.6978 10.3229 31.3448 8.68825C31.2757 8.36611 31.2681 8.01903 31.2997 7.68922C31.41 6.53103 32.3154 5.61158 33.453 5.46393C34.5205 5.32587 35.6111 5.93373 36.0493 6.91167C36.5155 7.95096 36.2019 9.22995 35.2888 9.92218C35.0701 10.088 34.8178 10.2395 34.5579 10.3172C32.4334 10.9528 31.3083 12.5463 30.4374 14.6153C33.5115 17.0679 35.3041 20.1905 34.696 24.2883C34.3795 26.4187 33.5114 28.3007 31.6315 29.8874C30.9573 28.7379 30.2869 27.7791 29.8331 26.7264C29.6615 26.3286 29.9099 25.6804 30.1094 25.2059C31.199 22.6095 30.5689 20.1636 28.3522 18.5722C26.2978 20.5117 25.7913 23.111 27.1131 25.5175C28.4818 28.0092 29.9378 30.4541 31.3688 32.9114C32.0402 34.0638 33.0137 34.8548 34.2864 35.2863C35.3665 35.6525 36.1319 36.3159 36.2345 37.5384C36.3525 38.9372 35.4327 40.0743 34.0658 40.2201C32.608 40.3753 31.4071 39.4089 31.294 37.966C31.2681 37.6362 31.2834 37.291 31.3515 36.9669C31.7965 34.8529 30.8883 33.1866 29.6241 31.5308C26.316 32.852 23.0827 32.9354 19.9886 31.0054C17.8554 29.6746 16.4186 27.6363 15.9113 25.1455C17.184 24.7063 18.5058 24.8252 19.7833 25.0352C20.1574 25.0965 20.4547 25.7206 20.7578 26.1099C22.2109 27.9833 24.1349 28.5653 26.4061 28.1684C26.7169 28.1137 27.0037 27.9162 27.2905 27.7907C26.5299 24.9547 24.7622 23.3401 21.9951 23.2307C19.0429 23.1148 16.082 23.1877 13.1259 23.224C11.9232 23.2385 10.8355 23.666 9.90705 24.457C9.69507 24.6373 9.48023 24.8223 9.24236 24.9632C8.07509 25.6584 6.74668 25.4244 5.93812 24.3966C5.26577 23.5414 5.28207 22.133 5.97457 21.2864C6.77066 20.3123 8.1662 20.1004 9.29895 20.7907C9.4879 20.9058 9.66343 21.0486 9.83127 21.1944C11.4532 22.5951 13.3341 22.6996 15.4096 22.3641C15.9467 18.5482 17.7144 15.5971 21.3131 14.0247C23.3955 13.1149 25.5507 12.8042 27.9955 13.7812C27.3078 14.9614 26.7668 16.0478 26.059 17.0113C25.8394 17.3104 25.1698 17.3171 24.696 17.3852C22.3184 17.7246 20.7089 18.9921 19.9243 21.2729C19.8533 21.4791 19.838 21.7082 19.8236 21.9288C19.8179 22.0342 19.8745 22.1426 19.9272 22.3439Z" fill="white"/>
<path d="M19.713 33.8489C20.5349 33.8806 21.1565 34.5316 21.1487 35.3523C21.1401 36.2334 20.4121 36.8786 19.5105 36.8058C18.6655 36.7368 18.1332 36.1059 18.184 35.2344C18.2339 34.382 18.8602 33.8154 19.713 33.8489Z" fill="white"/>
<path d="M19.766 10.971C19.7383 11.7889 19.0947 12.3958 18.2554 12.3929C17.3337 12.39 16.7093 11.7083 16.7879 10.7879C16.8589 9.95283 17.5227 9.38044 18.3571 9.43317C19.1666 9.48399 19.7929 10.1676 19.766 10.971Z" fill="white"/>
<path d="M39.1071 24.3718C38.2831 24.3968 37.6395 23.7927 37.5945 22.9519C37.5484 22.089 38.0961 21.4533 38.942 21.3882C39.834 21.3191 40.5688 21.9893 40.562 22.8675C40.5563 23.669 39.9003 24.347 39.1071 24.3718Z" fill="white"/>
<path d="M61.0052 16.0255V30.0129H57.7671V24.2786H51.4099V30.0129H48.1719V16.0255H51.4099V21.5403H57.7671V16.0255H61.0052Z" fill="white"/>
<path d="M63.7227 16.0255C63.7227 15.0456 64.5024 14.2872 65.662 14.2872C66.8216 14.2872 67.6014 15.0063 67.6014 15.966C67.6014 17.0053 66.8216 17.7647 65.662 17.7647C64.5024 17.7647 63.7227 17.0044 63.7227 16.0255ZM64.1025 19.2633H67.2207V30.0138H64.1025V19.2633Z" fill="white"/>
<path d="M81.8332 24.638C81.8332 28.0147 79.4948 30.1729 76.4764 30.1729C75.1374 30.1729 74.0373 29.753 73.2383 28.8748V33.89H70.1201V19.2631H73.0982V20.5019C73.8781 19.5623 75.0377 19.1031 76.4764 19.1031C79.4948 19.1031 81.8332 21.2612 81.8332 24.638ZM78.6748 24.638C78.6748 22.7799 77.495 21.661 75.9364 21.661C74.3768 21.661 73.1971 22.7799 73.1971 24.638C73.1971 26.496 74.3768 27.6159 75.9364 27.6159C77.495 27.6159 78.6748 26.496 78.6748 24.638Z" fill="white"/>
<path d="M83.9121 15.1866H87.0303V30.0139H83.9121V15.1866Z" fill="white"/>
<path d="M99.4444 23.8787V30.0128H96.5257V28.6744C95.9454 29.6533 94.8261 30.173 93.2473 30.173C90.7277 30.173 89.2285 28.7742 89.2285 26.9161C89.2285 25.0177 90.5675 23.6985 93.8459 23.6985H96.3243C96.3243 22.36 95.5253 21.5806 93.8459 21.5806C92.7064 21.5806 91.5276 21.9602 90.7468 22.5796L89.6285 20.4013C90.8073 19.5614 92.5472 19.1021 94.2669 19.1021C97.5443 19.1031 99.4444 20.6218 99.4444 23.8787ZM96.3252 26.616V25.5172H94.1863C92.7265 25.5172 92.2671 26.057 92.2671 26.7761C92.2671 27.5555 92.927 28.0752 94.0261 28.0752C95.0659 28.0752 95.9646 27.5958 96.3252 26.616Z" fill="white"/>
</g>
</g>
<defs>
<filter id="filter0_b_91_21237" x="-3.43" y="-3.43" width="111.749" height="53.1152" filterUnits="userSpaceOnUse" color-interpolation-filters="sRGB">
<feFlood flood-opacity="0" result="BackgroundImageFix"/>
<feGaussianBlur in="BackgroundImageFix" stdDeviation="1.715"/>
<feComposite in2="SourceAlpha" operator="in" result="effect1_backgroundBlur_91_21237"/>
<feBlend mode="normal" in="SourceGraphic" in2="effect1_backgroundBlur_91_21237" result="shape"/>
</filter>
<clipPath id="clip0_91_21237">
<rect width="94" height="35.3663" fill="white" transform="translate(5.44434 5.44446)"/>
</clipPath>
</defs>
</svg>
