<svg width="93" height="44" viewBox="0 0 93 44" fill="none" xmlns="http://www.w3.org/2000/svg">
<g filter="url(#filter0_b_44_1119)">
<rect width="92.5559" height="43.5555" rx="4.9" fill="black" fill-opacity="0.16"/>
<path d="M21.3183 35.8344H5.44434V38.1111H21.3183V35.8344Z" fill="white"/>
<path d="M21.3183 31.4857H5.44434V33.7623H21.3183V31.4857Z" fill="white"/>
<path d="M16.8014 27.1369H9.9873V29.4136H16.8014V27.1369Z" fill="white"/>
<path d="M16.8014 22.8138H9.9873V25.0905H16.8014V22.8138Z" fill="white"/>
<path d="M16.8014 18.4653H9.9873V20.742H16.8014V18.4653Z" fill="white"/>
<path d="M16.8014 14.1165H9.9873V16.3932H16.8014V14.1165Z" fill="white"/>
<path d="M21.3183 9.79327H5.44434V12.07H21.3183V9.79327Z" fill="white"/>
<path d="M21.3183 5.44446H5.44434V7.72115H21.3183V5.44446Z" fill="white"/>
<path d="M23.5898 33.7623H47.8091C48.2175 33.0461 48.5237 32.2787 48.7279 31.4857H23.5898V33.7623Z" fill="white"/>
<path d="M45.8943 22.8138H28.1318V25.0905H47.8084C47.298 24.2208 46.66 23.4534 45.8943 22.8138Z" fill="white"/>
<path d="M28.1318 18.4653V20.742H45.8943C46.66 20.1024 47.298 19.335 47.7829 18.4653H28.1318Z" fill="white"/>
<path d="M47.8091 9.79327H23.5898V12.07H48.7023C48.5237 11.2514 48.2175 10.484 47.8091 9.79327Z" fill="white"/>
<path d="M40.306 5.44452H23.5898V7.72121H46.1503C44.5425 6.2631 42.4497 5.44452 40.306 5.44452Z" fill="white"/>
<path d="M34.9459 14.1165H28.1318V16.3932H34.9459V14.1165Z" fill="white"/>
<path d="M41.3267 16.3932H48.6511C48.8553 15.6513 48.9574 14.8839 48.9574 14.1165H41.3267V16.3932Z" fill="white"/>
<path d="M34.9459 27.1369H28.1318V29.4136H34.9459V27.1369Z" fill="white"/>
<path d="M41.3267 27.1369V29.4136H48.9574C48.9574 28.6461 48.8553 27.8787 48.6511 27.1369H41.3267Z" fill="white"/>
<path d="M23.5898 38.0855L40.306 38.1111C42.4753 38.1111 44.568 37.2925 46.1503 35.8344H23.5898V38.0855Z" fill="white"/>
<path d="M68.9655 38.1111L69.7566 35.8344H68.1743L68.9655 38.1111Z" fill="white"/>
<path d="M67.4597 33.7623H70.4712L71.2623 31.4857H66.6431L67.4597 33.7623Z" fill="white"/>
<path d="M65.9284 29.4136H72.0023L72.7935 27.1369H65.1372L65.9284 29.4136Z" fill="white"/>
<path d="M64.3976 25.0905H73.5085L74.3252 22.8138H63.6064L64.3976 25.0905Z" fill="white"/>
<path d="M55.3628 16.3932H67.6128L66.8216 14.1165H55.3628V16.3932Z" fill="white"/>
<path d="M71.8242 12.07H87.1112V9.79327H72.6154L71.8242 12.07Z" fill="white"/>
<path d="M74.1212 5.44452L73.3301 7.72121H87.1113V5.44452H74.1212Z" fill="white"/>
<path d="M62.1511 35.8344H50.8198V38.1111H62.1511V35.8344Z" fill="white"/>
<path d="M62.1511 31.4857H50.8198V33.7623H62.1511V31.4857Z" fill="white"/>
<path d="M62.1769 27.1369H55.3628V29.4136H62.1769V27.1369Z" fill="white"/>
<path d="M62.1769 22.8138H55.3628V25.0905H62.1769V22.8138Z" fill="white"/>
<path d="M82.5684 14.1165H71.1095L70.3184 16.3932H82.5684V14.1165Z" fill="white"/>
<path d="M75.7795 20.742H82.568V18.4653H75.7795H69.6034L68.9654 20.3071L68.3274 18.4653H62.1513H55.3628V20.742H62.1513V18.6443L62.8914 20.742H75.0394L75.7795 18.6443V20.742Z" fill="white"/>
<path d="M82.5938 22.8138H75.7798V25.0905H82.5938V22.8138Z" fill="white"/>
<path d="M82.5938 27.1369H75.7798V29.4136H82.5938V27.1369Z" fill="white"/>
<path d="M87.111 31.4857H75.7798V33.7623H87.111V31.4857Z" fill="white"/>
<path d="M87.111 35.8344H75.7798V38.1111H87.111V35.8344Z" fill="white"/>
<path d="M66.1068 12.07L65.3157 9.79327H50.8198V12.07H66.1068Z" fill="white"/>
<path d="M64.6011 7.72121L63.8099 5.44452H50.8198V7.72121H64.6011Z" fill="white"/>
</g>
<defs>
<filter id="filter0_b_44_1119" x="-3.43" y="-3.43" width="99.4162" height="50.4155" filterUnits="userSpaceOnUse" color-interpolation-filters="sRGB">
<feFlood flood-opacity="0" result="BackgroundImageFix"/>
<feGaussianBlur in="BackgroundImageFix" stdDeviation="1.715"/>
<feComposite in2="SourceAlpha" operator="in" result="effect1_backgroundBlur_44_1119"/>
<feBlend mode="normal" in="SourceGraphic" in2="effect1_backgroundBlur_44_1119" result="shape"/>
</filter>
</defs>
</svg>
